G04 #@! TF.FileFunction,Legend,Top*
%FSLAX46Y46*%
G04 Gerber Fmt 4.6, Leading zero omitted, Abs format (unit mm)*
G04 Created by KiCad (PCBNEW 4.0.6) date 07/10/17 07:09:45*
%MOMM*%
%LPD*%
G01*
G04 APERTURE LIST*
%ADD10C,0.100000*%
%ADD11C,0.300000*%
%ADD12C,0.120000*%
%ADD13C,0.150000*%
%ADD14C,0.010000*%
G04 APERTURE END LIST*
D10*
D11*
X145895715Y-125662857D02*
X146395715Y-125662857D01*
X146610001Y-126448571D02*
X145895715Y-126448571D01*
X145895715Y-124948571D01*
X146610001Y-124948571D01*
X147181429Y-126377143D02*
X147395715Y-126448571D01*
X147752858Y-126448571D01*
X147895715Y-126377143D01*
X147967144Y-126305714D01*
X148038572Y-126162857D01*
X148038572Y-126020000D01*
X147967144Y-125877143D01*
X147895715Y-125805714D01*
X147752858Y-125734286D01*
X147467144Y-125662857D01*
X147324286Y-125591429D01*
X147252858Y-125520000D01*
X147181429Y-125377143D01*
X147181429Y-125234286D01*
X147252858Y-125091429D01*
X147324286Y-125020000D01*
X147467144Y-124948571D01*
X147824286Y-124948571D01*
X148038572Y-125020000D01*
X148681429Y-126448571D02*
X148681429Y-124948571D01*
X149252857Y-124948571D01*
X149395715Y-125020000D01*
X149467143Y-125091429D01*
X149538572Y-125234286D01*
X149538572Y-125448571D01*
X149467143Y-125591429D01*
X149395715Y-125662857D01*
X149252857Y-125734286D01*
X148681429Y-125734286D01*
X150467143Y-124948571D02*
X150610000Y-124948571D01*
X150752857Y-125020000D01*
X150824286Y-125091429D01*
X150895715Y-125234286D01*
X150967143Y-125520000D01*
X150967143Y-125877143D01*
X150895715Y-126162857D01*
X150824286Y-126305714D01*
X150752857Y-126377143D01*
X150610000Y-126448571D01*
X150467143Y-126448571D01*
X150324286Y-126377143D01*
X150252857Y-126305714D01*
X150181429Y-126162857D01*
X150110000Y-125877143D01*
X150110000Y-125520000D01*
X150181429Y-125234286D01*
X150252857Y-125091429D01*
X150324286Y-125020000D01*
X150467143Y-124948571D01*
X151467143Y-124948571D02*
X152467143Y-124948571D01*
X151824286Y-126448571D01*
X138648572Y-142158571D02*
X137791429Y-142158571D01*
X138220001Y-142158571D02*
X138220001Y-140658571D01*
X138077144Y-140872857D01*
X137934286Y-141015714D01*
X137791429Y-141087143D01*
D12*
X132730000Y-130210000D02*
X166250000Y-130210000D01*
X166250000Y-130210000D02*
X166250000Y-139810000D01*
X166250000Y-139810000D02*
X132730000Y-139810000D01*
X132730000Y-139810000D02*
X132730000Y-130210000D01*
D13*
X141031100Y-116023600D02*
X157031100Y-116023600D01*
X141031100Y-94823600D02*
X157031100Y-94823600D01*
X157031100Y-116023600D02*
X157031100Y-94823600D01*
X141031100Y-116023600D02*
X141031100Y-94823600D01*
D12*
X137150000Y-103540000D02*
X137150000Y-104240000D01*
X135950000Y-104240000D02*
X135950000Y-103540000D01*
X162150000Y-108140000D02*
X162850000Y-108140000D01*
X162850000Y-109340000D02*
X162150000Y-109340000D01*
X134920000Y-111620000D02*
X134220000Y-111620000D01*
X134220000Y-110420000D02*
X134920000Y-110420000D01*
X134920000Y-113720000D02*
X134220000Y-113720000D01*
X134220000Y-112520000D02*
X134920000Y-112520000D01*
X164300000Y-114470000D02*
X164300000Y-113070000D01*
X164300000Y-113070000D02*
X161500000Y-113070000D01*
X164300000Y-114470000D02*
X161500000Y-114470000D01*
X135860000Y-109710000D02*
X135860000Y-108780000D01*
X135860000Y-106550000D02*
X135860000Y-107480000D01*
X135860000Y-106550000D02*
X132700000Y-106550000D01*
X135860000Y-109710000D02*
X134400000Y-109710000D01*
X164080000Y-103860000D02*
X163150000Y-103860000D01*
X160920000Y-103860000D02*
X161850000Y-103860000D01*
X160920000Y-103860000D02*
X160920000Y-107020000D01*
X164080000Y-103860000D02*
X164080000Y-105320000D01*
X135290000Y-103470000D02*
X135290000Y-104470000D01*
X133930000Y-104470000D02*
X133930000Y-103470000D01*
X134150000Y-117890000D02*
X135150000Y-117890000D01*
X135150000Y-119250000D02*
X134150000Y-119250000D01*
X163150000Y-111510000D02*
X162150000Y-111510000D01*
X162150000Y-110150000D02*
X163150000Y-110150000D01*
X135110000Y-116730000D02*
X134110000Y-116730000D01*
X134110000Y-115370000D02*
X135110000Y-115370000D01*
X163110000Y-119090000D02*
X162110000Y-119090000D01*
X162110000Y-117730000D02*
X163110000Y-117730000D01*
X162000000Y-115490000D02*
X163000000Y-115490000D01*
X163000000Y-116850000D02*
X162000000Y-116850000D01*
D14*
G36*
X146192094Y-120701158D02*
X146224619Y-120713736D01*
X146274193Y-120738712D01*
X146345374Y-120777876D01*
X146350916Y-120780988D01*
X146416474Y-120818476D01*
X146471798Y-120851319D01*
X146511455Y-120876205D01*
X146530012Y-120889820D01*
X146530531Y-120890487D01*
X146526048Y-120909390D01*
X146505486Y-120951605D01*
X146470183Y-121014832D01*
X146421480Y-121096772D01*
X146360718Y-121195122D01*
X146289236Y-121307585D01*
X146271445Y-121335165D01*
X146225093Y-121411699D01*
X146191342Y-121477556D01*
X146173153Y-121526782D01*
X146171286Y-121536507D01*
X146172115Y-121579312D01*
X146181394Y-121647209D01*
X146197968Y-121735843D01*
X146220680Y-121840859D01*
X146248373Y-121957902D01*
X146279890Y-122082616D01*
X146314075Y-122210645D01*
X146349771Y-122337634D01*
X146385821Y-122459228D01*
X146421068Y-122571072D01*
X146454356Y-122668810D01*
X146484528Y-122748087D01*
X146505561Y-122795122D01*
X146530337Y-122845225D01*
X146553730Y-122893168D01*
X146554997Y-122895793D01*
X146593699Y-122944220D01*
X146650184Y-122976828D01*
X146715939Y-122992454D01*
X146782451Y-122989937D01*
X146841205Y-122968114D01*
X146874258Y-122939382D01*
X146921859Y-122860583D01*
X146956739Y-122762378D01*
X146975877Y-122654779D01*
X146978588Y-122593780D01*
X146967670Y-122479935D01*
X146935624Y-122385660D01*
X146880726Y-122306379D01*
X146863607Y-122288733D01*
X146812661Y-122239235D01*
X146809163Y-121889362D01*
X146805664Y-121539489D01*
X146894818Y-121404531D01*
X146936654Y-121343445D01*
X146976945Y-121288493D01*
X147009943Y-121247336D01*
X147024126Y-121232192D01*
X147064281Y-121194810D01*
X147118665Y-121224098D01*
X147153039Y-121245084D01*
X147171846Y-121261378D01*
X147173049Y-121264307D01*
X147185903Y-121276728D01*
X147207896Y-121285977D01*
X147229150Y-121294313D01*
X147261694Y-121310149D01*
X147308322Y-121335033D01*
X147371829Y-121370509D01*
X147455008Y-121418123D01*
X147560653Y-121479422D01*
X147618062Y-121512932D01*
X147685594Y-121553071D01*
X147729885Y-121581659D01*
X147754855Y-121602039D01*
X147764423Y-121617553D01*
X147762508Y-121631546D01*
X147760911Y-121634796D01*
X147745376Y-121655266D01*
X147712136Y-121693665D01*
X147665062Y-121745696D01*
X147608028Y-121807066D01*
X147558700Y-121859090D01*
X147445030Y-121982567D01*
X147356105Y-122089591D01*
X147291134Y-122181240D01*
X147249321Y-122258588D01*
X147235217Y-122297866D01*
X147229392Y-122332249D01*
X147223375Y-122390899D01*
X147217696Y-122467117D01*
X147212884Y-122554202D01*
X147210619Y-122609268D01*
X147207459Y-122704464D01*
X147206069Y-122774062D01*
X147206858Y-122823409D01*
X147210235Y-122857854D01*
X147216608Y-122882743D01*
X147226387Y-122903425D01*
X147234067Y-122916053D01*
X147278421Y-122964726D01*
X147335574Y-122998645D01*
X147395708Y-123013438D01*
X147440773Y-123008086D01*
X147481576Y-122984930D01*
X147532724Y-122943462D01*
X147587042Y-122890912D01*
X147637357Y-122834516D01*
X147676494Y-122781505D01*
X147690905Y-122755889D01*
X147712491Y-122720814D01*
X147751753Y-122667389D01*
X147805102Y-122599789D01*
X147868952Y-122522190D01*
X147939715Y-122438768D01*
X148013804Y-122353698D01*
X148087632Y-122271155D01*
X148157611Y-122195316D01*
X148220155Y-122130356D01*
X148269260Y-122082669D01*
X148323779Y-122035032D01*
X148369642Y-121999908D01*
X148401811Y-121980949D01*
X148412489Y-121978864D01*
X148428853Y-121987274D01*
X148469671Y-122009846D01*
X148532586Y-122045224D01*
X148615244Y-122092054D01*
X148715289Y-122148981D01*
X148830366Y-122214649D01*
X148958119Y-122287703D01*
X149096194Y-122366788D01*
X149242234Y-122450548D01*
X149393884Y-122537629D01*
X149548790Y-122626676D01*
X149704595Y-122716332D01*
X149858944Y-122805243D01*
X150009482Y-122892054D01*
X150153854Y-122975409D01*
X150289704Y-123053954D01*
X150414677Y-123126333D01*
X150526417Y-123191190D01*
X150622570Y-123247171D01*
X150700779Y-123292920D01*
X150758689Y-123327083D01*
X150793946Y-123348304D01*
X150804165Y-123354963D01*
X150790402Y-123356280D01*
X150747104Y-123357559D01*
X150675714Y-123358796D01*
X150577673Y-123359983D01*
X150454422Y-123361115D01*
X150307403Y-123362186D01*
X150138057Y-123363189D01*
X149947826Y-123364119D01*
X149738151Y-123364968D01*
X149510473Y-123365732D01*
X149266235Y-123366403D01*
X149006877Y-123366976D01*
X148733841Y-123367444D01*
X148448568Y-123367802D01*
X148152500Y-123368042D01*
X147847079Y-123368159D01*
X147718924Y-123368171D01*
X144618970Y-123368171D01*
X144840053Y-122984847D01*
X144886856Y-122903680D01*
X144947102Y-122799166D01*
X145018778Y-122674801D01*
X145099869Y-122534082D01*
X145188362Y-122380503D01*
X145282240Y-122217562D01*
X145379491Y-122048754D01*
X145478100Y-121877575D01*
X145576053Y-121707521D01*
X145600825Y-121664512D01*
X145691152Y-121507857D01*
X145777289Y-121358803D01*
X145857942Y-121219568D01*
X145931816Y-121092371D01*
X145997617Y-120979432D01*
X146054050Y-120882968D01*
X146099821Y-120805200D01*
X146133635Y-120748346D01*
X146154198Y-120714625D01*
X146159953Y-120706040D01*
X146172058Y-120699189D01*
X146192094Y-120701158D01*
X146192094Y-120701158D01*
G37*
X146192094Y-120701158D02*
X146224619Y-120713736D01*
X146274193Y-120738712D01*
X146345374Y-120777876D01*
X146350916Y-120780988D01*
X146416474Y-120818476D01*
X146471798Y-120851319D01*
X146511455Y-120876205D01*
X146530012Y-120889820D01*
X146530531Y-120890487D01*
X146526048Y-120909390D01*
X146505486Y-120951605D01*
X146470183Y-121014832D01*
X146421480Y-121096772D01*
X146360718Y-121195122D01*
X146289236Y-121307585D01*
X146271445Y-121335165D01*
X146225093Y-121411699D01*
X146191342Y-121477556D01*
X146173153Y-121526782D01*
X146171286Y-121536507D01*
X146172115Y-121579312D01*
X146181394Y-121647209D01*
X146197968Y-121735843D01*
X146220680Y-121840859D01*
X146248373Y-121957902D01*
X146279890Y-122082616D01*
X146314075Y-122210645D01*
X146349771Y-122337634D01*
X146385821Y-122459228D01*
X146421068Y-122571072D01*
X146454356Y-122668810D01*
X146484528Y-122748087D01*
X146505561Y-122795122D01*
X146530337Y-122845225D01*
X146553730Y-122893168D01*
X146554997Y-122895793D01*
X146593699Y-122944220D01*
X146650184Y-122976828D01*
X146715939Y-122992454D01*
X146782451Y-122989937D01*
X146841205Y-122968114D01*
X146874258Y-122939382D01*
X146921859Y-122860583D01*
X146956739Y-122762378D01*
X146975877Y-122654779D01*
X146978588Y-122593780D01*
X146967670Y-122479935D01*
X146935624Y-122385660D01*
X146880726Y-122306379D01*
X146863607Y-122288733D01*
X146812661Y-122239235D01*
X146809163Y-121889362D01*
X146805664Y-121539489D01*
X146894818Y-121404531D01*
X146936654Y-121343445D01*
X146976945Y-121288493D01*
X147009943Y-121247336D01*
X147024126Y-121232192D01*
X147064281Y-121194810D01*
X147118665Y-121224098D01*
X147153039Y-121245084D01*
X147171846Y-121261378D01*
X147173049Y-121264307D01*
X147185903Y-121276728D01*
X147207896Y-121285977D01*
X147229150Y-121294313D01*
X147261694Y-121310149D01*
X147308322Y-121335033D01*
X147371829Y-121370509D01*
X147455008Y-121418123D01*
X147560653Y-121479422D01*
X147618062Y-121512932D01*
X147685594Y-121553071D01*
X147729885Y-121581659D01*
X147754855Y-121602039D01*
X147764423Y-121617553D01*
X147762508Y-121631546D01*
X147760911Y-121634796D01*
X147745376Y-121655266D01*
X147712136Y-121693665D01*
X147665062Y-121745696D01*
X147608028Y-121807066D01*
X147558700Y-121859090D01*
X147445030Y-121982567D01*
X147356105Y-122089591D01*
X147291134Y-122181240D01*
X147249321Y-122258588D01*
X147235217Y-122297866D01*
X147229392Y-122332249D01*
X147223375Y-122390899D01*
X147217696Y-122467117D01*
X147212884Y-122554202D01*
X147210619Y-122609268D01*
X147207459Y-122704464D01*
X147206069Y-122774062D01*
X147206858Y-122823409D01*
X147210235Y-122857854D01*
X147216608Y-122882743D01*
X147226387Y-122903425D01*
X147234067Y-122916053D01*
X147278421Y-122964726D01*
X147335574Y-122998645D01*
X147395708Y-123013438D01*
X147440773Y-123008086D01*
X147481576Y-122984930D01*
X147532724Y-122943462D01*
X147587042Y-122890912D01*
X147637357Y-122834516D01*
X147676494Y-122781505D01*
X147690905Y-122755889D01*
X147712491Y-122720814D01*
X147751753Y-122667389D01*
X147805102Y-122599789D01*
X147868952Y-122522190D01*
X147939715Y-122438768D01*
X148013804Y-122353698D01*
X148087632Y-122271155D01*
X148157611Y-122195316D01*
X148220155Y-122130356D01*
X148269260Y-122082669D01*
X148323779Y-122035032D01*
X148369642Y-121999908D01*
X148401811Y-121980949D01*
X148412489Y-121978864D01*
X148428853Y-121987274D01*
X148469671Y-122009846D01*
X148532586Y-122045224D01*
X148615244Y-122092054D01*
X148715289Y-122148981D01*
X148830366Y-122214649D01*
X148958119Y-122287703D01*
X149096194Y-122366788D01*
X149242234Y-122450548D01*
X149393884Y-122537629D01*
X149548790Y-122626676D01*
X149704595Y-122716332D01*
X149858944Y-122805243D01*
X150009482Y-122892054D01*
X150153854Y-122975409D01*
X150289704Y-123053954D01*
X150414677Y-123126333D01*
X150526417Y-123191190D01*
X150622570Y-123247171D01*
X150700779Y-123292920D01*
X150758689Y-123327083D01*
X150793946Y-123348304D01*
X150804165Y-123354963D01*
X150790402Y-123356280D01*
X150747104Y-123357559D01*
X150675714Y-123358796D01*
X150577673Y-123359983D01*
X150454422Y-123361115D01*
X150307403Y-123362186D01*
X150138057Y-123363189D01*
X149947826Y-123364119D01*
X149738151Y-123364968D01*
X149510473Y-123365732D01*
X149266235Y-123366403D01*
X149006877Y-123366976D01*
X148733841Y-123367444D01*
X148448568Y-123367802D01*
X148152500Y-123368042D01*
X147847079Y-123368159D01*
X147718924Y-123368171D01*
X144618970Y-123368171D01*
X144840053Y-122984847D01*
X144886856Y-122903680D01*
X144947102Y-122799166D01*
X145018778Y-122674801D01*
X145099869Y-122534082D01*
X145188362Y-122380503D01*
X145282240Y-122217562D01*
X145379491Y-122048754D01*
X145478100Y-121877575D01*
X145576053Y-121707521D01*
X145600825Y-121664512D01*
X145691152Y-121507857D01*
X145777289Y-121358803D01*
X145857942Y-121219568D01*
X145931816Y-121092371D01*
X145997617Y-120979432D01*
X146054050Y-120882968D01*
X146099821Y-120805200D01*
X146133635Y-120748346D01*
X146154198Y-120714625D01*
X146159953Y-120706040D01*
X146172058Y-120699189D01*
X146192094Y-120701158D01*
G36*
X149857528Y-120644619D02*
X149868908Y-120663693D01*
X149894488Y-120707421D01*
X149933002Y-120773619D01*
X149983186Y-120860102D01*
X150043775Y-120964685D01*
X150113503Y-121085183D01*
X150191107Y-121219412D01*
X150275320Y-121365187D01*
X150364879Y-121520323D01*
X150456998Y-121680000D01*
X150551076Y-121843117D01*
X150641402Y-121999709D01*
X150726665Y-122147506D01*
X150805557Y-122284240D01*
X150876769Y-122407642D01*
X150938991Y-122515444D01*
X150990913Y-122605377D01*
X151031228Y-122675173D01*
X151058624Y-122722564D01*
X151071507Y-122744786D01*
X151092507Y-122782330D01*
X151103925Y-122805831D01*
X151104551Y-122809920D01*
X151090636Y-122802242D01*
X151051941Y-122780203D01*
X150990487Y-122744971D01*
X150908298Y-122697711D01*
X150807396Y-122639589D01*
X150689805Y-122571771D01*
X150557546Y-122495424D01*
X150412642Y-122411714D01*
X150257117Y-122321806D01*
X150092992Y-122226867D01*
X150030549Y-122190732D01*
X149863487Y-122094083D01*
X149704074Y-122001938D01*
X149554355Y-121915475D01*
X149416376Y-121835871D01*
X149292185Y-121764305D01*
X149183827Y-121701955D01*
X149093348Y-121649998D01*
X149022796Y-121609613D01*
X148974215Y-121581978D01*
X148949654Y-121568272D01*
X148947085Y-121566974D01*
X148954569Y-121555220D01*
X148980614Y-121523795D01*
X149022559Y-121475594D01*
X149077746Y-121413510D01*
X149143517Y-121340439D01*
X149217212Y-121259276D01*
X149296173Y-121172916D01*
X149377740Y-121084253D01*
X149459254Y-120996182D01*
X149538057Y-120911599D01*
X149611490Y-120833397D01*
X149676893Y-120764472D01*
X149731608Y-120707719D01*
X149772977Y-120666032D01*
X149787164Y-120652363D01*
X149834180Y-120608201D01*
X149857528Y-120644619D01*
X149857528Y-120644619D01*
G37*
X149857528Y-120644619D02*
X149868908Y-120663693D01*
X149894488Y-120707421D01*
X149933002Y-120773619D01*
X149983186Y-120860102D01*
X150043775Y-120964685D01*
X150113503Y-121085183D01*
X150191107Y-121219412D01*
X150275320Y-121365187D01*
X150364879Y-121520323D01*
X150456998Y-121680000D01*
X150551076Y-121843117D01*
X150641402Y-121999709D01*
X150726665Y-122147506D01*
X150805557Y-122284240D01*
X150876769Y-122407642D01*
X150938991Y-122515444D01*
X150990913Y-122605377D01*
X151031228Y-122675173D01*
X151058624Y-122722564D01*
X151071507Y-122744786D01*
X151092507Y-122782330D01*
X151103925Y-122805831D01*
X151104551Y-122809920D01*
X151090636Y-122802242D01*
X151051941Y-122780203D01*
X150990487Y-122744971D01*
X150908298Y-122697711D01*
X150807396Y-122639589D01*
X150689805Y-122571771D01*
X150557546Y-122495424D01*
X150412642Y-122411714D01*
X150257117Y-122321806D01*
X150092992Y-122226867D01*
X150030549Y-122190732D01*
X149863487Y-122094083D01*
X149704074Y-122001938D01*
X149554355Y-121915475D01*
X149416376Y-121835871D01*
X149292185Y-121764305D01*
X149183827Y-121701955D01*
X149093348Y-121649998D01*
X149022796Y-121609613D01*
X148974215Y-121581978D01*
X148949654Y-121568272D01*
X148947085Y-121566974D01*
X148954569Y-121555220D01*
X148980614Y-121523795D01*
X149022559Y-121475594D01*
X149077746Y-121413510D01*
X149143517Y-121340439D01*
X149217212Y-121259276D01*
X149296173Y-121172916D01*
X149377740Y-121084253D01*
X149459254Y-120996182D01*
X149538057Y-120911599D01*
X149611490Y-120833397D01*
X149676893Y-120764472D01*
X149731608Y-120707719D01*
X149772977Y-120666032D01*
X149787164Y-120652363D01*
X149834180Y-120608201D01*
X149857528Y-120644619D01*
G36*
X148034043Y-117495835D02*
X148057065Y-117533245D01*
X148092534Y-117592514D01*
X148138996Y-117671118D01*
X148194996Y-117766538D01*
X148259081Y-117876250D01*
X148329796Y-117997734D01*
X148405687Y-118128468D01*
X148485299Y-118265930D01*
X148567178Y-118407598D01*
X148649870Y-118550951D01*
X148731921Y-118693467D01*
X148811876Y-118832624D01*
X148888281Y-118965901D01*
X148959682Y-119090776D01*
X149024624Y-119204727D01*
X149081653Y-119305233D01*
X149129315Y-119389772D01*
X149166155Y-119455822D01*
X149190720Y-119500862D01*
X149201554Y-119522370D01*
X149201951Y-119523714D01*
X149188501Y-119541965D01*
X149151114Y-119569882D01*
X149094235Y-119604725D01*
X149022312Y-119643754D01*
X148947015Y-119680843D01*
X148844560Y-119725817D01*
X148736817Y-119766226D01*
X148620073Y-119802969D01*
X148490618Y-119836942D01*
X148344740Y-119869044D01*
X148178726Y-119900173D01*
X147988866Y-119931227D01*
X147792469Y-119960145D01*
X147621834Y-119985800D01*
X147478545Y-120011198D01*
X147359008Y-120037602D01*
X147259630Y-120066273D01*
X147176818Y-120098473D01*
X147106978Y-120135465D01*
X147046518Y-120178512D01*
X146991845Y-120228875D01*
X146974214Y-120247583D01*
X146936000Y-120291139D01*
X146907732Y-120326682D01*
X146894618Y-120347583D01*
X146894268Y-120349297D01*
X146889680Y-120359806D01*
X146873758Y-120359924D01*
X146843266Y-120348254D01*
X146794968Y-120323396D01*
X146725627Y-120283952D01*
X146677439Y-120255587D01*
X146605583Y-120211247D01*
X146549742Y-120173279D01*
X146513667Y-120144416D01*
X146501113Y-120127388D01*
X146501121Y-120127264D01*
X146508906Y-120111037D01*
X146530892Y-120070400D01*
X146565803Y-120007567D01*
X146612363Y-119924752D01*
X146669295Y-119824172D01*
X146735323Y-119708040D01*
X146809172Y-119578571D01*
X146889564Y-119437980D01*
X146975224Y-119288482D01*
X147064876Y-119132292D01*
X147157243Y-118971624D01*
X147251049Y-118808693D01*
X147345018Y-118645713D01*
X147437874Y-118484900D01*
X147528340Y-118328468D01*
X147615141Y-118178633D01*
X147697000Y-118037608D01*
X147772641Y-117907609D01*
X147840787Y-117790849D01*
X147900163Y-117689545D01*
X147949493Y-117605911D01*
X147987500Y-117542162D01*
X148012907Y-117500511D01*
X148024440Y-117483175D01*
X148024923Y-117482805D01*
X148034043Y-117495835D01*
X148034043Y-117495835D01*
G37*
X148034043Y-117495835D02*
X148057065Y-117533245D01*
X148092534Y-117592514D01*
X148138996Y-117671118D01*
X148194996Y-117766538D01*
X148259081Y-117876250D01*
X148329796Y-117997734D01*
X148405687Y-118128468D01*
X148485299Y-118265930D01*
X148567178Y-118407598D01*
X148649870Y-118550951D01*
X148731921Y-118693467D01*
X148811876Y-118832624D01*
X148888281Y-118965901D01*
X148959682Y-119090776D01*
X149024624Y-119204727D01*
X149081653Y-119305233D01*
X149129315Y-119389772D01*
X149166155Y-119455822D01*
X149190720Y-119500862D01*
X149201554Y-119522370D01*
X149201951Y-119523714D01*
X149188501Y-119541965D01*
X149151114Y-119569882D01*
X149094235Y-119604725D01*
X149022312Y-119643754D01*
X148947015Y-119680843D01*
X148844560Y-119725817D01*
X148736817Y-119766226D01*
X148620073Y-119802969D01*
X148490618Y-119836942D01*
X148344740Y-119869044D01*
X148178726Y-119900173D01*
X147988866Y-119931227D01*
X147792469Y-119960145D01*
X147621834Y-119985800D01*
X147478545Y-120011198D01*
X147359008Y-120037602D01*
X147259630Y-120066273D01*
X147176818Y-120098473D01*
X147106978Y-120135465D01*
X147046518Y-120178512D01*
X146991845Y-120228875D01*
X146974214Y-120247583D01*
X146936000Y-120291139D01*
X146907732Y-120326682D01*
X146894618Y-120347583D01*
X146894268Y-120349297D01*
X146889680Y-120359806D01*
X146873758Y-120359924D01*
X146843266Y-120348254D01*
X146794968Y-120323396D01*
X146725627Y-120283952D01*
X146677439Y-120255587D01*
X146605583Y-120211247D01*
X146549742Y-120173279D01*
X146513667Y-120144416D01*
X146501113Y-120127388D01*
X146501121Y-120127264D01*
X146508906Y-120111037D01*
X146530892Y-120070400D01*
X146565803Y-120007567D01*
X146612363Y-119924752D01*
X146669295Y-119824172D01*
X146735323Y-119708040D01*
X146809172Y-119578571D01*
X146889564Y-119437980D01*
X146975224Y-119288482D01*
X147064876Y-119132292D01*
X147157243Y-118971624D01*
X147251049Y-118808693D01*
X147345018Y-118645713D01*
X147437874Y-118484900D01*
X147528340Y-118328468D01*
X147615141Y-118178633D01*
X147697000Y-118037608D01*
X147772641Y-117907609D01*
X147840787Y-117790849D01*
X147900163Y-117689545D01*
X147949493Y-117605911D01*
X147987500Y-117542162D01*
X148012907Y-117500511D01*
X148024440Y-117483175D01*
X148024923Y-117482805D01*
X148034043Y-117495835D01*
G36*
X144766200Y-147206400D02*
X144156003Y-147206400D01*
X144162651Y-146222150D01*
X144169300Y-145237900D01*
X144467750Y-145230743D01*
X144766200Y-145223587D01*
X144766200Y-147206400D01*
X144766200Y-147206400D01*
G37*
X144766200Y-147206400D02*
X144156003Y-147206400D01*
X144162651Y-146222150D01*
X144169300Y-145237900D01*
X144467750Y-145230743D01*
X144766200Y-145223587D01*
X144766200Y-147206400D01*
G36*
X148769947Y-145197566D02*
X148842900Y-145205667D01*
X149096900Y-145237900D01*
X149104875Y-145349237D01*
X149107876Y-145417503D01*
X149099592Y-145446768D01*
X149073788Y-145448583D01*
X149054075Y-145443308D01*
X148977903Y-145429326D01*
X148864670Y-145418751D01*
X148728020Y-145411844D01*
X148581595Y-145408868D01*
X148439038Y-145410085D01*
X148313991Y-145415755D01*
X148220096Y-145426142D01*
X148214319Y-145427188D01*
X148061484Y-145465529D01*
X147957997Y-145514070D01*
X147903269Y-145573685D01*
X147896711Y-145645246D01*
X147937734Y-145729625D01*
X147977273Y-145778412D01*
X148022336Y-145824312D01*
X148072883Y-145865412D01*
X148136986Y-145906277D01*
X148222716Y-145951471D01*
X148338146Y-146005559D01*
X148491347Y-146073105D01*
X148521331Y-146086083D01*
X148764301Y-146198088D01*
X148960671Y-146304374D01*
X149114035Y-146407029D01*
X149200544Y-146480532D01*
X149312800Y-146588092D01*
X149312800Y-145225200D01*
X150989200Y-145225200D01*
X150989200Y-145428400D01*
X149846200Y-145428400D01*
X149846200Y-146088800D01*
X150938400Y-146088800D01*
X150938400Y-146292000D01*
X149846200Y-146292000D01*
X149846200Y-147003200D01*
X150989200Y-147003200D01*
X150989200Y-147206400D01*
X149312800Y-147206400D01*
X149312800Y-146818549D01*
X149263367Y-146881392D01*
X149213603Y-146925537D01*
X149135447Y-146975369D01*
X149066017Y-147010616D01*
X148804780Y-147104633D01*
X148515717Y-147167537D01*
X148212570Y-147197416D01*
X147909080Y-147192359D01*
X147820581Y-147183809D01*
X147668316Y-147166128D01*
X147559692Y-147152219D01*
X147487978Y-147139295D01*
X147446440Y-147124569D01*
X147428346Y-147105254D01*
X147426963Y-147078561D01*
X147435559Y-147041705D01*
X147439626Y-147026092D01*
X147460391Y-146963882D01*
X147481553Y-146929433D01*
X147487078Y-146927000D01*
X147520469Y-146931122D01*
X147591526Y-146942179D01*
X147687904Y-146958207D01*
X147744338Y-146967925D01*
X147969456Y-146994031D01*
X148180356Y-146993103D01*
X148369332Y-146966277D01*
X148528681Y-146914689D01*
X148650697Y-146839476D01*
X148657821Y-146833193D01*
X148698815Y-146765678D01*
X148697426Y-146684647D01*
X148655145Y-146602193D01*
X148625373Y-146569881D01*
X148579897Y-146536991D01*
X148496769Y-146486160D01*
X148383924Y-146421866D01*
X148249294Y-146348589D01*
X148100814Y-146270809D01*
X148047189Y-146243426D01*
X147893301Y-146163673D01*
X147748283Y-146085350D01*
X147620663Y-146013308D01*
X147518969Y-145952400D01*
X147451729Y-145907476D01*
X147439215Y-145897556D01*
X147331600Y-145805441D01*
X147331600Y-147206400D01*
X147058550Y-147204783D01*
X146785500Y-147203167D01*
X145540900Y-145764147D01*
X145534160Y-146485273D01*
X145527420Y-147206400D01*
X144968803Y-147206400D01*
X144975451Y-146222150D01*
X144982100Y-145237900D01*
X145518040Y-145223584D01*
X146785500Y-146618016D01*
X146792251Y-145921608D01*
X146799003Y-145225199D01*
X147065301Y-145225199D01*
X147331600Y-145225200D01*
X147331600Y-145531978D01*
X147388750Y-145476901D01*
X147504713Y-145393197D01*
X147661926Y-145321457D01*
X147851908Y-145263262D01*
X148066180Y-145220194D01*
X148296263Y-145193834D01*
X148533679Y-145185764D01*
X148769947Y-145197566D01*
X148769947Y-145197566D01*
G37*
X148769947Y-145197566D02*
X148842900Y-145205667D01*
X149096900Y-145237900D01*
X149104875Y-145349237D01*
X149107876Y-145417503D01*
X149099592Y-145446768D01*
X149073788Y-145448583D01*
X149054075Y-145443308D01*
X148977903Y-145429326D01*
X148864670Y-145418751D01*
X148728020Y-145411844D01*
X148581595Y-145408868D01*
X148439038Y-145410085D01*
X148313991Y-145415755D01*
X148220096Y-145426142D01*
X148214319Y-145427188D01*
X148061484Y-145465529D01*
X147957997Y-145514070D01*
X147903269Y-145573685D01*
X147896711Y-145645246D01*
X147937734Y-145729625D01*
X147977273Y-145778412D01*
X148022336Y-145824312D01*
X148072883Y-145865412D01*
X148136986Y-145906277D01*
X148222716Y-145951471D01*
X148338146Y-146005559D01*
X148491347Y-146073105D01*
X148521331Y-146086083D01*
X148764301Y-146198088D01*
X148960671Y-146304374D01*
X149114035Y-146407029D01*
X149200544Y-146480532D01*
X149312800Y-146588092D01*
X149312800Y-145225200D01*
X150989200Y-145225200D01*
X150989200Y-145428400D01*
X149846200Y-145428400D01*
X149846200Y-146088800D01*
X150938400Y-146088800D01*
X150938400Y-146292000D01*
X149846200Y-146292000D01*
X149846200Y-147003200D01*
X150989200Y-147003200D01*
X150989200Y-147206400D01*
X149312800Y-147206400D01*
X149312800Y-146818549D01*
X149263367Y-146881392D01*
X149213603Y-146925537D01*
X149135447Y-146975369D01*
X149066017Y-147010616D01*
X148804780Y-147104633D01*
X148515717Y-147167537D01*
X148212570Y-147197416D01*
X147909080Y-147192359D01*
X147820581Y-147183809D01*
X147668316Y-147166128D01*
X147559692Y-147152219D01*
X147487978Y-147139295D01*
X147446440Y-147124569D01*
X147428346Y-147105254D01*
X147426963Y-147078561D01*
X147435559Y-147041705D01*
X147439626Y-147026092D01*
X147460391Y-146963882D01*
X147481553Y-146929433D01*
X147487078Y-146927000D01*
X147520469Y-146931122D01*
X147591526Y-146942179D01*
X147687904Y-146958207D01*
X147744338Y-146967925D01*
X147969456Y-146994031D01*
X148180356Y-146993103D01*
X148369332Y-146966277D01*
X148528681Y-146914689D01*
X148650697Y-146839476D01*
X148657821Y-146833193D01*
X148698815Y-146765678D01*
X148697426Y-146684647D01*
X148655145Y-146602193D01*
X148625373Y-146569881D01*
X148579897Y-146536991D01*
X148496769Y-146486160D01*
X148383924Y-146421866D01*
X148249294Y-146348589D01*
X148100814Y-146270809D01*
X148047189Y-146243426D01*
X147893301Y-146163673D01*
X147748283Y-146085350D01*
X147620663Y-146013308D01*
X147518969Y-145952400D01*
X147451729Y-145907476D01*
X147439215Y-145897556D01*
X147331600Y-145805441D01*
X147331600Y-147206400D01*
X147058550Y-147204783D01*
X146785500Y-147203167D01*
X145540900Y-145764147D01*
X145534160Y-146485273D01*
X145527420Y-147206400D01*
X144968803Y-147206400D01*
X144975451Y-146222150D01*
X144982100Y-145237900D01*
X145518040Y-145223584D01*
X146785500Y-146618016D01*
X146792251Y-145921608D01*
X146799003Y-145225199D01*
X147065301Y-145225199D01*
X147331600Y-145225200D01*
X147331600Y-145531978D01*
X147388750Y-145476901D01*
X147504713Y-145393197D01*
X147661926Y-145321457D01*
X147851908Y-145263262D01*
X148066180Y-145220194D01*
X148296263Y-145193834D01*
X148533679Y-145185764D01*
X148769947Y-145197566D01*
G36*
X151998850Y-145231059D02*
X152218370Y-145234325D01*
X152393793Y-145237744D01*
X152531818Y-145241792D01*
X152639146Y-145246945D01*
X152722478Y-145253680D01*
X152788515Y-145262474D01*
X152843956Y-145273801D01*
X152895504Y-145288138D01*
X152922204Y-145296681D01*
X153024573Y-145335293D01*
X153121729Y-145380007D01*
X153182554Y-145414798D01*
X153275200Y-145477669D01*
X153275200Y-145225200D01*
X157085200Y-145225200D01*
X157085200Y-145428400D01*
X156348600Y-145428400D01*
X156348600Y-147206400D01*
X155739000Y-147206400D01*
X155739000Y-145428400D01*
X153808600Y-145428400D01*
X153808600Y-146088800D01*
X154900800Y-146088800D01*
X154900800Y-146292000D01*
X153808600Y-146292000D01*
X153808600Y-147003200D01*
X154951600Y-147003200D01*
X154951600Y-147206400D01*
X153275200Y-147206400D01*
X153275200Y-146062965D01*
X153138473Y-146140129D01*
X153010174Y-146200599D01*
X152863439Y-146245575D01*
X152690369Y-146276478D01*
X152483068Y-146294727D01*
X152240153Y-146301696D01*
X151852807Y-146304700D01*
X151852803Y-146755550D01*
X151852800Y-147206400D01*
X151243200Y-147206400D01*
X151243200Y-145403000D01*
X151852800Y-145403000D01*
X151852800Y-146120858D01*
X152115173Y-146109189D01*
X152258648Y-146099721D01*
X152364939Y-146084541D01*
X152447551Y-146061263D01*
X152490377Y-146042900D01*
X152597646Y-145969392D01*
X152666524Y-145874933D01*
X152690905Y-145767910D01*
X152690905Y-145767380D01*
X152669594Y-145672261D01*
X152614704Y-145578403D01*
X152539447Y-145506843D01*
X152520160Y-145495499D01*
X152428867Y-145461523D01*
X152304016Y-145432774D01*
X152162801Y-145412313D01*
X152022418Y-145403200D01*
X152000535Y-145403000D01*
X151852800Y-145403000D01*
X151243200Y-145403000D01*
X151243200Y-145220683D01*
X151998850Y-145231059D01*
X151998850Y-145231059D01*
G37*
X151998850Y-145231059D02*
X152218370Y-145234325D01*
X152393793Y-145237744D01*
X152531818Y-145241792D01*
X152639146Y-145246945D01*
X152722478Y-145253680D01*
X152788515Y-145262474D01*
X152843956Y-145273801D01*
X152895504Y-145288138D01*
X152922204Y-145296681D01*
X153024573Y-145335293D01*
X153121729Y-145380007D01*
X153182554Y-145414798D01*
X153275200Y-145477669D01*
X153275200Y-145225200D01*
X157085200Y-145225200D01*
X157085200Y-145428400D01*
X156348600Y-145428400D01*
X156348600Y-147206400D01*
X155739000Y-147206400D01*
X155739000Y-145428400D01*
X153808600Y-145428400D01*
X153808600Y-146088800D01*
X154900800Y-146088800D01*
X154900800Y-146292000D01*
X153808600Y-146292000D01*
X153808600Y-147003200D01*
X154951600Y-147003200D01*
X154951600Y-147206400D01*
X153275200Y-147206400D01*
X153275200Y-146062965D01*
X153138473Y-146140129D01*
X153010174Y-146200599D01*
X152863439Y-146245575D01*
X152690369Y-146276478D01*
X152483068Y-146294727D01*
X152240153Y-146301696D01*
X151852807Y-146304700D01*
X151852803Y-146755550D01*
X151852800Y-147206400D01*
X151243200Y-147206400D01*
X151243200Y-145403000D01*
X151852800Y-145403000D01*
X151852800Y-146120858D01*
X152115173Y-146109189D01*
X152258648Y-146099721D01*
X152364939Y-146084541D01*
X152447551Y-146061263D01*
X152490377Y-146042900D01*
X152597646Y-145969392D01*
X152666524Y-145874933D01*
X152690905Y-145767910D01*
X152690905Y-145767380D01*
X152669594Y-145672261D01*
X152614704Y-145578403D01*
X152539447Y-145506843D01*
X152520160Y-145495499D01*
X152428867Y-145461523D01*
X152304016Y-145432774D01*
X152162801Y-145412313D01*
X152022418Y-145403200D01*
X152000535Y-145403000D01*
X151852800Y-145403000D01*
X151243200Y-145403000D01*
X151243200Y-145220683D01*
X151998850Y-145231059D01*
G36*
X141475786Y-143945626D02*
X141524273Y-143965279D01*
X141597690Y-144007985D01*
X141633648Y-144030369D01*
X141799577Y-144134406D01*
X141972919Y-144034467D01*
X142055904Y-143989321D01*
X142121298Y-143958779D01*
X142157623Y-143948057D01*
X142160830Y-143949097D01*
X142171507Y-143982732D01*
X142175400Y-144035117D01*
X142166271Y-144085645D01*
X142130919Y-144124768D01*
X142069997Y-144160340D01*
X141964594Y-144214112D01*
X142201209Y-144339093D01*
X142437825Y-144464074D01*
X142583867Y-144349337D01*
X142658843Y-144293216D01*
X142720219Y-144252332D01*
X142755772Y-144234763D01*
X142757454Y-144234599D01*
X142777053Y-144256599D01*
X142785000Y-144308168D01*
X142768027Y-144375815D01*
X142712178Y-144445019D01*
X142693432Y-144462134D01*
X142641994Y-144510315D01*
X142613241Y-144543245D01*
X142610882Y-144550772D01*
X142635688Y-144564537D01*
X142697374Y-144596505D01*
X142787328Y-144642272D01*
X142896941Y-144697434D01*
X142927253Y-144712599D01*
X143234607Y-144866185D01*
X143370265Y-144728821D01*
X143435625Y-144664446D01*
X143485868Y-144618356D01*
X143511854Y-144598850D01*
X143513350Y-144598883D01*
X143507601Y-144623949D01*
X143487395Y-144690087D01*
X143454982Y-144790394D01*
X143412609Y-144917968D01*
X143362527Y-145065906D01*
X143335460Y-145144881D01*
X143274086Y-145321977D01*
X143225388Y-145458120D01*
X143186057Y-145560574D01*
X143152781Y-145636607D01*
X143122251Y-145693482D01*
X143091155Y-145738467D01*
X143056183Y-145778825D01*
X143037992Y-145797726D01*
X142974873Y-145855372D01*
X142921924Y-145891947D01*
X142893520Y-145899597D01*
X142867606Y-145909404D01*
X142861200Y-145945832D01*
X142841962Y-145996926D01*
X142785844Y-146076917D01*
X142695240Y-146182480D01*
X142674800Y-146204643D01*
X142488401Y-146404816D01*
X142420800Y-146360522D01*
X142353200Y-146316228D01*
X142353200Y-146440747D01*
X142352265Y-146488175D01*
X142346086Y-146527815D01*
X142329601Y-146567201D01*
X142297750Y-146613872D01*
X142245469Y-146675363D01*
X142167698Y-146759212D01*
X142071331Y-146860433D01*
X141975111Y-146960096D01*
X141890915Y-147045236D01*
X141824999Y-147109690D01*
X141783620Y-147147294D01*
X141772881Y-147154421D01*
X141750694Y-147136508D01*
X141699948Y-147087723D01*
X141626829Y-147014254D01*
X141537525Y-146922284D01*
X141470550Y-146852165D01*
X141364533Y-146739953D01*
X141288624Y-146657070D01*
X141237798Y-146596151D01*
X141207029Y-146549833D01*
X141191291Y-146510752D01*
X141185559Y-146471545D01*
X141184800Y-146433483D01*
X141184800Y-146315879D01*
X141110186Y-146371043D01*
X141035572Y-146426208D01*
X140844520Y-146225754D01*
X140750563Y-146123109D01*
X140690472Y-146046725D01*
X140659477Y-145989877D01*
X140652434Y-145954966D01*
X140645404Y-145905519D01*
X140618000Y-145893875D01*
X140594250Y-145897986D01*
X140556712Y-145897100D01*
X140513490Y-145872390D01*
X140455341Y-145817267D01*
X140407909Y-145765120D01*
X140365106Y-145715133D01*
X140344844Y-145688150D01*
X141008628Y-145688150D01*
X141368699Y-146066275D01*
X141477825Y-146179998D01*
X141575402Y-146280029D01*
X141655960Y-146360893D01*
X141714025Y-146417115D01*
X141744125Y-146443220D01*
X141746663Y-146444400D01*
X141768575Y-146426745D01*
X141819972Y-146377310D01*
X141895610Y-146301390D01*
X141990245Y-146204279D01*
X142098634Y-146091272D01*
X142150062Y-146037105D01*
X142535567Y-145629810D01*
X142171333Y-145376470D01*
X142051301Y-145294648D01*
X141944640Y-145225080D01*
X141858641Y-145172271D01*
X141800594Y-145140726D01*
X141778814Y-145133938D01*
X141750055Y-145151824D01*
X141687520Y-145194872D01*
X141598299Y-145258065D01*
X141489480Y-145336387D01*
X141379578Y-145416448D01*
X141008628Y-145688150D01*
X140344844Y-145688150D01*
X140329537Y-145667767D01*
X140297789Y-145615432D01*
X140266447Y-145550538D01*
X140232099Y-145465494D01*
X140191330Y-145352711D01*
X140140727Y-145204598D01*
X140096858Y-145073533D01*
X140079065Y-145020173D01*
X140441611Y-145020173D01*
X140450824Y-145044010D01*
X140489585Y-145097008D01*
X140552050Y-145171886D01*
X140632372Y-145261364D01*
X140653447Y-145283978D01*
X140884572Y-145530240D01*
X141066436Y-145401067D01*
X141180951Y-145319887D01*
X141310091Y-145228576D01*
X141426902Y-145146190D01*
X141432450Y-145142285D01*
X141514325Y-145083102D01*
X141577345Y-145034583D01*
X141612093Y-145004115D01*
X141615998Y-144998287D01*
X141606020Y-144988767D01*
X141966036Y-144988767D01*
X142318368Y-145232406D01*
X142670700Y-145476044D01*
X142904399Y-145229972D01*
X142990092Y-145137541D01*
X143060630Y-145057241D01*
X143109712Y-144996569D01*
X143131040Y-144963018D01*
X143131359Y-144959931D01*
X143107536Y-144940139D01*
X143046740Y-144902225D01*
X142957296Y-144851059D01*
X142847529Y-144791511D01*
X142806810Y-144770091D01*
X142488999Y-144604219D01*
X142287749Y-144750074D01*
X142193533Y-144818638D01*
X142108625Y-144880928D01*
X142045737Y-144927597D01*
X142026268Y-144942348D01*
X141966036Y-144988767D01*
X141606020Y-144988767D01*
X141595857Y-144979071D01*
X141542899Y-144939861D01*
X141467459Y-144887475D01*
X141379866Y-144828733D01*
X141290453Y-144770454D01*
X141209551Y-144719457D01*
X141147492Y-144682562D01*
X141114608Y-144666587D01*
X141113161Y-144666400D01*
X141084813Y-144677724D01*
X141021795Y-144708221D01*
X140934002Y-144752678D01*
X140831329Y-144805884D01*
X140723670Y-144862625D01*
X140620920Y-144917689D01*
X140532973Y-144965864D01*
X140469725Y-145001937D01*
X140441611Y-145020173D01*
X140079065Y-145020173D01*
X139914996Y-144528166D01*
X140283100Y-144892818D01*
X140624662Y-144728029D01*
X140745146Y-144669485D01*
X140848726Y-144618366D01*
X140927060Y-144578851D01*
X140971805Y-144555119D01*
X140978848Y-144550618D01*
X140969467Y-144530610D01*
X141294849Y-144530610D01*
X141324630Y-144553127D01*
X141384404Y-144594998D01*
X141463928Y-144649363D01*
X141552959Y-144709361D01*
X141641254Y-144768134D01*
X141718571Y-144818821D01*
X141774666Y-144854562D01*
X141799297Y-144868497D01*
X141799377Y-144868505D01*
X141825974Y-144855110D01*
X141884819Y-144817913D01*
X141966926Y-144762781D01*
X142053377Y-144702615D01*
X142147897Y-144634726D01*
X142225646Y-144576800D01*
X142278010Y-144535393D01*
X142296309Y-144517687D01*
X142278010Y-144499352D01*
X142223352Y-144463644D01*
X142141318Y-144416098D01*
X142062510Y-144373521D01*
X141822101Y-144247300D01*
X141556350Y-144386982D01*
X141453439Y-144441562D01*
X141369821Y-144486841D01*
X141314094Y-144518100D01*
X141294849Y-144530610D01*
X140969467Y-144530610D01*
X140968633Y-144528833D01*
X140928517Y-144487458D01*
X140897635Y-144460648D01*
X140838669Y-144405593D01*
X140811233Y-144354506D01*
X140803878Y-144284266D01*
X140803800Y-144271147D01*
X140803800Y-144158992D01*
X140983005Y-144297454D01*
X141162211Y-144435916D01*
X141294155Y-144376850D01*
X141433859Y-144312822D01*
X141545783Y-144258500D01*
X141624296Y-144216778D01*
X141663769Y-144190548D01*
X141667366Y-144185088D01*
X141646677Y-144167171D01*
X141592098Y-144132782D01*
X141514803Y-144088896D01*
X141503026Y-144082511D01*
X141419452Y-144036782D01*
X141374813Y-144008061D01*
X141363326Y-143989256D01*
X141379209Y-143973276D01*
X141403221Y-143960127D01*
X141439633Y-143945189D01*
X141475786Y-143945626D01*
X141475786Y-143945626D01*
G37*
X141475786Y-143945626D02*
X141524273Y-143965279D01*
X141597690Y-144007985D01*
X141633648Y-144030369D01*
X141799577Y-144134406D01*
X141972919Y-144034467D01*
X142055904Y-143989321D01*
X142121298Y-143958779D01*
X142157623Y-143948057D01*
X142160830Y-143949097D01*
X142171507Y-143982732D01*
X142175400Y-144035117D01*
X142166271Y-144085645D01*
X142130919Y-144124768D01*
X142069997Y-144160340D01*
X141964594Y-144214112D01*
X142201209Y-144339093D01*
X142437825Y-144464074D01*
X142583867Y-144349337D01*
X142658843Y-144293216D01*
X142720219Y-144252332D01*
X142755772Y-144234763D01*
X142757454Y-144234599D01*
X142777053Y-144256599D01*
X142785000Y-144308168D01*
X142768027Y-144375815D01*
X142712178Y-144445019D01*
X142693432Y-144462134D01*
X142641994Y-144510315D01*
X142613241Y-144543245D01*
X142610882Y-144550772D01*
X142635688Y-144564537D01*
X142697374Y-144596505D01*
X142787328Y-144642272D01*
X142896941Y-144697434D01*
X142927253Y-144712599D01*
X143234607Y-144866185D01*
X143370265Y-144728821D01*
X143435625Y-144664446D01*
X143485868Y-144618356D01*
X143511854Y-144598850D01*
X143513350Y-144598883D01*
X143507601Y-144623949D01*
X143487395Y-144690087D01*
X143454982Y-144790394D01*
X143412609Y-144917968D01*
X143362527Y-145065906D01*
X143335460Y-145144881D01*
X143274086Y-145321977D01*
X143225388Y-145458120D01*
X143186057Y-145560574D01*
X143152781Y-145636607D01*
X143122251Y-145693482D01*
X143091155Y-145738467D01*
X143056183Y-145778825D01*
X143037992Y-145797726D01*
X142974873Y-145855372D01*
X142921924Y-145891947D01*
X142893520Y-145899597D01*
X142867606Y-145909404D01*
X142861200Y-145945832D01*
X142841962Y-145996926D01*
X142785844Y-146076917D01*
X142695240Y-146182480D01*
X142674800Y-146204643D01*
X142488401Y-146404816D01*
X142420800Y-146360522D01*
X142353200Y-146316228D01*
X142353200Y-146440747D01*
X142352265Y-146488175D01*
X142346086Y-146527815D01*
X142329601Y-146567201D01*
X142297750Y-146613872D01*
X142245469Y-146675363D01*
X142167698Y-146759212D01*
X142071331Y-146860433D01*
X141975111Y-146960096D01*
X141890915Y-147045236D01*
X141824999Y-147109690D01*
X141783620Y-147147294D01*
X141772881Y-147154421D01*
X141750694Y-147136508D01*
X141699948Y-147087723D01*
X141626829Y-147014254D01*
X141537525Y-146922284D01*
X141470550Y-146852165D01*
X141364533Y-146739953D01*
X141288624Y-146657070D01*
X141237798Y-146596151D01*
X141207029Y-146549833D01*
X141191291Y-146510752D01*
X141185559Y-146471545D01*
X141184800Y-146433483D01*
X141184800Y-146315879D01*
X141110186Y-146371043D01*
X141035572Y-146426208D01*
X140844520Y-146225754D01*
X140750563Y-146123109D01*
X140690472Y-146046725D01*
X140659477Y-145989877D01*
X140652434Y-145954966D01*
X140645404Y-145905519D01*
X140618000Y-145893875D01*
X140594250Y-145897986D01*
X140556712Y-145897100D01*
X140513490Y-145872390D01*
X140455341Y-145817267D01*
X140407909Y-145765120D01*
X140365106Y-145715133D01*
X140344844Y-145688150D01*
X141008628Y-145688150D01*
X141368699Y-146066275D01*
X141477825Y-146179998D01*
X141575402Y-146280029D01*
X141655960Y-146360893D01*
X141714025Y-146417115D01*
X141744125Y-146443220D01*
X141746663Y-146444400D01*
X141768575Y-146426745D01*
X141819972Y-146377310D01*
X141895610Y-146301390D01*
X141990245Y-146204279D01*
X142098634Y-146091272D01*
X142150062Y-146037105D01*
X142535567Y-145629810D01*
X142171333Y-145376470D01*
X142051301Y-145294648D01*
X141944640Y-145225080D01*
X141858641Y-145172271D01*
X141800594Y-145140726D01*
X141778814Y-145133938D01*
X141750055Y-145151824D01*
X141687520Y-145194872D01*
X141598299Y-145258065D01*
X141489480Y-145336387D01*
X141379578Y-145416448D01*
X141008628Y-145688150D01*
X140344844Y-145688150D01*
X140329537Y-145667767D01*
X140297789Y-145615432D01*
X140266447Y-145550538D01*
X140232099Y-145465494D01*
X140191330Y-145352711D01*
X140140727Y-145204598D01*
X140096858Y-145073533D01*
X140079065Y-145020173D01*
X140441611Y-145020173D01*
X140450824Y-145044010D01*
X140489585Y-145097008D01*
X140552050Y-145171886D01*
X140632372Y-145261364D01*
X140653447Y-145283978D01*
X140884572Y-145530240D01*
X141066436Y-145401067D01*
X141180951Y-145319887D01*
X141310091Y-145228576D01*
X141426902Y-145146190D01*
X141432450Y-145142285D01*
X141514325Y-145083102D01*
X141577345Y-145034583D01*
X141612093Y-145004115D01*
X141615998Y-144998287D01*
X141606020Y-144988767D01*
X141966036Y-144988767D01*
X142318368Y-145232406D01*
X142670700Y-145476044D01*
X142904399Y-145229972D01*
X142990092Y-145137541D01*
X143060630Y-145057241D01*
X143109712Y-144996569D01*
X143131040Y-144963018D01*
X143131359Y-144959931D01*
X143107536Y-144940139D01*
X143046740Y-144902225D01*
X142957296Y-144851059D01*
X142847529Y-144791511D01*
X142806810Y-144770091D01*
X142488999Y-144604219D01*
X142287749Y-144750074D01*
X142193533Y-144818638D01*
X142108625Y-144880928D01*
X142045737Y-144927597D01*
X142026268Y-144942348D01*
X141966036Y-144988767D01*
X141606020Y-144988767D01*
X141595857Y-144979071D01*
X141542899Y-144939861D01*
X141467459Y-144887475D01*
X141379866Y-144828733D01*
X141290453Y-144770454D01*
X141209551Y-144719457D01*
X141147492Y-144682562D01*
X141114608Y-144666587D01*
X141113161Y-144666400D01*
X141084813Y-144677724D01*
X141021795Y-144708221D01*
X140934002Y-144752678D01*
X140831329Y-144805884D01*
X140723670Y-144862625D01*
X140620920Y-144917689D01*
X140532973Y-144965864D01*
X140469725Y-145001937D01*
X140441611Y-145020173D01*
X140079065Y-145020173D01*
X139914996Y-144528166D01*
X140283100Y-144892818D01*
X140624662Y-144728029D01*
X140745146Y-144669485D01*
X140848726Y-144618366D01*
X140927060Y-144578851D01*
X140971805Y-144555119D01*
X140978848Y-144550618D01*
X140969467Y-144530610D01*
X141294849Y-144530610D01*
X141324630Y-144553127D01*
X141384404Y-144594998D01*
X141463928Y-144649363D01*
X141552959Y-144709361D01*
X141641254Y-144768134D01*
X141718571Y-144818821D01*
X141774666Y-144854562D01*
X141799297Y-144868497D01*
X141799377Y-144868505D01*
X141825974Y-144855110D01*
X141884819Y-144817913D01*
X141966926Y-144762781D01*
X142053377Y-144702615D01*
X142147897Y-144634726D01*
X142225646Y-144576800D01*
X142278010Y-144535393D01*
X142296309Y-144517687D01*
X142278010Y-144499352D01*
X142223352Y-144463644D01*
X142141318Y-144416098D01*
X142062510Y-144373521D01*
X141822101Y-144247300D01*
X141556350Y-144386982D01*
X141453439Y-144441562D01*
X141369821Y-144486841D01*
X141314094Y-144518100D01*
X141294849Y-144530610D01*
X140969467Y-144530610D01*
X140968633Y-144528833D01*
X140928517Y-144487458D01*
X140897635Y-144460648D01*
X140838669Y-144405593D01*
X140811233Y-144354506D01*
X140803878Y-144284266D01*
X140803800Y-144271147D01*
X140803800Y-144158992D01*
X140983005Y-144297454D01*
X141162211Y-144435916D01*
X141294155Y-144376850D01*
X141433859Y-144312822D01*
X141545783Y-144258500D01*
X141624296Y-144216778D01*
X141663769Y-144190548D01*
X141667366Y-144185088D01*
X141646677Y-144167171D01*
X141592098Y-144132782D01*
X141514803Y-144088896D01*
X141503026Y-144082511D01*
X141419452Y-144036782D01*
X141374813Y-144008061D01*
X141363326Y-143989256D01*
X141379209Y-143973276D01*
X141403221Y-143960127D01*
X141439633Y-143945189D01*
X141475786Y-143945626D01*
G36*
X153931520Y-144620325D02*
X153989851Y-144671565D01*
X154011237Y-144753567D01*
X154011411Y-144764760D01*
X154004655Y-144849620D01*
X153978738Y-144900467D01*
X153923859Y-144925517D01*
X153830216Y-144932987D01*
X153810600Y-144933100D01*
X153725741Y-144934693D01*
X153679137Y-144942691D01*
X153658270Y-144961918D01*
X153650924Y-144994641D01*
X153633565Y-145045969D01*
X153611750Y-145066607D01*
X153595797Y-145058342D01*
X153585833Y-145016653D01*
X153580926Y-144935170D01*
X153580000Y-144849769D01*
X153580000Y-144772216D01*
X153661143Y-144772216D01*
X153661831Y-144838575D01*
X153682031Y-144870343D01*
X153699243Y-144877220D01*
X153805896Y-144891280D01*
X153893001Y-144876697D01*
X153920224Y-144861997D01*
X153955303Y-144806065D01*
X153956829Y-144754047D01*
X153949117Y-144711156D01*
X153929739Y-144688847D01*
X153885409Y-144680401D01*
X153808600Y-144679100D01*
X153668900Y-144679100D01*
X153661143Y-144772216D01*
X153580000Y-144772216D01*
X153580000Y-144622504D01*
X153696799Y-144606495D01*
X153834438Y-144598938D01*
X153931520Y-144620325D01*
X153931520Y-144620325D01*
G37*
X153931520Y-144620325D02*
X153989851Y-144671565D01*
X154011237Y-144753567D01*
X154011411Y-144764760D01*
X154004655Y-144849620D01*
X153978738Y-144900467D01*
X153923859Y-144925517D01*
X153830216Y-144932987D01*
X153810600Y-144933100D01*
X153725741Y-144934693D01*
X153679137Y-144942691D01*
X153658270Y-144961918D01*
X153650924Y-144994641D01*
X153633565Y-145045969D01*
X153611750Y-145066607D01*
X153595797Y-145058342D01*
X153585833Y-145016653D01*
X153580926Y-144935170D01*
X153580000Y-144849769D01*
X153580000Y-144772216D01*
X153661143Y-144772216D01*
X153661831Y-144838575D01*
X153682031Y-144870343D01*
X153699243Y-144877220D01*
X153805896Y-144891280D01*
X153893001Y-144876697D01*
X153920224Y-144861997D01*
X153955303Y-144806065D01*
X153956829Y-144754047D01*
X153949117Y-144711156D01*
X153929739Y-144688847D01*
X153885409Y-144680401D01*
X153808600Y-144679100D01*
X153668900Y-144679100D01*
X153661143Y-144772216D01*
X153580000Y-144772216D01*
X153580000Y-144622504D01*
X153696799Y-144606495D01*
X153834438Y-144598938D01*
X153931520Y-144620325D01*
G36*
X148633415Y-144844206D02*
X149112068Y-144844245D01*
X149544595Y-144844345D01*
X149933333Y-144844538D01*
X150280618Y-144844852D01*
X150588789Y-144845317D01*
X150860181Y-144845963D01*
X151097131Y-144846820D01*
X151301978Y-144847917D01*
X151477057Y-144849283D01*
X151624706Y-144850949D01*
X151747261Y-144852944D01*
X151847059Y-144855298D01*
X151926439Y-144858041D01*
X151987735Y-144861202D01*
X152033286Y-144864811D01*
X152065428Y-144868897D01*
X152086499Y-144873490D01*
X152098835Y-144878621D01*
X152104773Y-144884318D01*
X152106650Y-144890611D01*
X152106800Y-144895000D01*
X152106302Y-144901693D01*
X152103250Y-144907771D01*
X152095307Y-144913264D01*
X152080137Y-144918200D01*
X152055402Y-144922610D01*
X152018765Y-144926523D01*
X151967890Y-144929969D01*
X151900439Y-144932978D01*
X151814076Y-144935580D01*
X151706463Y-144937803D01*
X151575264Y-144939678D01*
X151418141Y-144941234D01*
X151232758Y-144942501D01*
X151016778Y-144943509D01*
X150767863Y-144944288D01*
X150483678Y-144944866D01*
X150161884Y-144945274D01*
X149800144Y-144945542D01*
X149396123Y-144945698D01*
X148947483Y-144945774D01*
X148451886Y-144945798D01*
X148106300Y-144945800D01*
X147579184Y-144945793D01*
X147100531Y-144945754D01*
X146668004Y-144945654D01*
X146279266Y-144945461D01*
X145931981Y-144945147D01*
X145623810Y-144944682D01*
X145352418Y-144944036D01*
X145115468Y-144943179D01*
X144910621Y-144942082D01*
X144735542Y-144940716D01*
X144587893Y-144939050D01*
X144465338Y-144937055D01*
X144365540Y-144934701D01*
X144286160Y-144931958D01*
X144224864Y-144928797D01*
X144179313Y-144925188D01*
X144147171Y-144921102D01*
X144126100Y-144916509D01*
X144113764Y-144911378D01*
X144107826Y-144905681D01*
X144105949Y-144899388D01*
X144105800Y-144895000D01*
X144106297Y-144888306D01*
X144109349Y-144882228D01*
X144117292Y-144876735D01*
X144132462Y-144871799D01*
X144157197Y-144867389D01*
X144193834Y-144863476D01*
X144244709Y-144860030D01*
X144312160Y-144857021D01*
X144398523Y-144854419D01*
X144506136Y-144852196D01*
X144637335Y-144850321D01*
X144794458Y-144848765D01*
X144979841Y-144847498D01*
X145195821Y-144846490D01*
X145444736Y-144845711D01*
X145728921Y-144845133D01*
X146050715Y-144844725D01*
X146412455Y-144844457D01*
X146816476Y-144844301D01*
X147265116Y-144844225D01*
X147760713Y-144844201D01*
X148106300Y-144844200D01*
X148633415Y-144844206D01*
X148633415Y-144844206D01*
G37*
X148633415Y-144844206D02*
X149112068Y-144844245D01*
X149544595Y-144844345D01*
X149933333Y-144844538D01*
X150280618Y-144844852D01*
X150588789Y-144845317D01*
X150860181Y-144845963D01*
X151097131Y-144846820D01*
X151301978Y-144847917D01*
X151477057Y-144849283D01*
X151624706Y-144850949D01*
X151747261Y-144852944D01*
X151847059Y-144855298D01*
X151926439Y-144858041D01*
X151987735Y-144861202D01*
X152033286Y-144864811D01*
X152065428Y-144868897D01*
X152086499Y-144873490D01*
X152098835Y-144878621D01*
X152104773Y-144884318D01*
X152106650Y-144890611D01*
X152106800Y-144895000D01*
X152106302Y-144901693D01*
X152103250Y-144907771D01*
X152095307Y-144913264D01*
X152080137Y-144918200D01*
X152055402Y-144922610D01*
X152018765Y-144926523D01*
X151967890Y-144929969D01*
X151900439Y-144932978D01*
X151814076Y-144935580D01*
X151706463Y-144937803D01*
X151575264Y-144939678D01*
X151418141Y-144941234D01*
X151232758Y-144942501D01*
X151016778Y-144943509D01*
X150767863Y-144944288D01*
X150483678Y-144944866D01*
X150161884Y-144945274D01*
X149800144Y-144945542D01*
X149396123Y-144945698D01*
X148947483Y-144945774D01*
X148451886Y-144945798D01*
X148106300Y-144945800D01*
X147579184Y-144945793D01*
X147100531Y-144945754D01*
X146668004Y-144945654D01*
X146279266Y-144945461D01*
X145931981Y-144945147D01*
X145623810Y-144944682D01*
X145352418Y-144944036D01*
X145115468Y-144943179D01*
X144910621Y-144942082D01*
X144735542Y-144940716D01*
X144587893Y-144939050D01*
X144465338Y-144937055D01*
X144365540Y-144934701D01*
X144286160Y-144931958D01*
X144224864Y-144928797D01*
X144179313Y-144925188D01*
X144147171Y-144921102D01*
X144126100Y-144916509D01*
X144113764Y-144911378D01*
X144107826Y-144905681D01*
X144105949Y-144899388D01*
X144105800Y-144895000D01*
X144106297Y-144888306D01*
X144109349Y-144882228D01*
X144117292Y-144876735D01*
X144132462Y-144871799D01*
X144157197Y-144867389D01*
X144193834Y-144863476D01*
X144244709Y-144860030D01*
X144312160Y-144857021D01*
X144398523Y-144854419D01*
X144506136Y-144852196D01*
X144637335Y-144850321D01*
X144794458Y-144848765D01*
X144979841Y-144847498D01*
X145195821Y-144846490D01*
X145444736Y-144845711D01*
X145728921Y-144845133D01*
X146050715Y-144844725D01*
X146412455Y-144844457D01*
X146816476Y-144844301D01*
X147265116Y-144844225D01*
X147760713Y-144844201D01*
X148106300Y-144844200D01*
X148633415Y-144844206D01*
G36*
X152528254Y-144602158D02*
X152609314Y-144624902D01*
X152662290Y-144661903D01*
X152667489Y-144669931D01*
X152688233Y-144726821D01*
X152674683Y-144764084D01*
X152622043Y-144785047D01*
X152525514Y-144793035D01*
X152489394Y-144793400D01*
X152395452Y-144795180D01*
X152343360Y-144801876D01*
X152324251Y-144815517D01*
X152325949Y-144830809D01*
X152363789Y-144866460D01*
X152431903Y-144885836D01*
X152511765Y-144886764D01*
X152584848Y-144867074D01*
X152594068Y-144862216D01*
X152651277Y-144839046D01*
X152679611Y-144847293D01*
X152672029Y-144884274D01*
X152668360Y-144890534D01*
X152630802Y-144912641D01*
X152560851Y-144928311D01*
X152476693Y-144935825D01*
X152396513Y-144933461D01*
X152342509Y-144921350D01*
X152287701Y-144873862D01*
X152262739Y-144802432D01*
X152266940Y-144723717D01*
X152275997Y-144704500D01*
X152326214Y-144704500D01*
X152326613Y-144726018D01*
X152354972Y-144737731D01*
X152420621Y-144742234D01*
X152463197Y-144742600D01*
X152551426Y-144739646D01*
X152598683Y-144729183D01*
X152614537Y-144708804D01*
X152614800Y-144704500D01*
X152602053Y-144681325D01*
X152557439Y-144669514D01*
X152477817Y-144666400D01*
X152387299Y-144671564D01*
X152338574Y-144688410D01*
X152326214Y-144704500D01*
X152275997Y-144704500D01*
X152299621Y-144654378D01*
X152355159Y-144612838D01*
X152437429Y-144597021D01*
X152528254Y-144602158D01*
X152528254Y-144602158D01*
G37*
X152528254Y-144602158D02*
X152609314Y-144624902D01*
X152662290Y-144661903D01*
X152667489Y-144669931D01*
X152688233Y-144726821D01*
X152674683Y-144764084D01*
X152622043Y-144785047D01*
X152525514Y-144793035D01*
X152489394Y-144793400D01*
X152395452Y-144795180D01*
X152343360Y-144801876D01*
X152324251Y-144815517D01*
X152325949Y-144830809D01*
X152363789Y-144866460D01*
X152431903Y-144885836D01*
X152511765Y-144886764D01*
X152584848Y-144867074D01*
X152594068Y-144862216D01*
X152651277Y-144839046D01*
X152679611Y-144847293D01*
X152672029Y-144884274D01*
X152668360Y-144890534D01*
X152630802Y-144912641D01*
X152560851Y-144928311D01*
X152476693Y-144935825D01*
X152396513Y-144933461D01*
X152342509Y-144921350D01*
X152287701Y-144873862D01*
X152262739Y-144802432D01*
X152266940Y-144723717D01*
X152275997Y-144704500D01*
X152326214Y-144704500D01*
X152326613Y-144726018D01*
X152354972Y-144737731D01*
X152420621Y-144742234D01*
X152463197Y-144742600D01*
X152551426Y-144739646D01*
X152598683Y-144729183D01*
X152614537Y-144708804D01*
X152614800Y-144704500D01*
X152602053Y-144681325D01*
X152557439Y-144669514D01*
X152477817Y-144666400D01*
X152387299Y-144671564D01*
X152338574Y-144688410D01*
X152326214Y-144704500D01*
X152275997Y-144704500D01*
X152299621Y-144654378D01*
X152355159Y-144612838D01*
X152437429Y-144597021D01*
X152528254Y-144602158D01*
G36*
X153398369Y-144611460D02*
X153447718Y-144632450D01*
X153471428Y-144682390D01*
X153478279Y-144771091D01*
X153478400Y-144792602D01*
X153473430Y-144886012D01*
X153461235Y-144935005D01*
X153445883Y-144938134D01*
X153431440Y-144893953D01*
X153422577Y-144812450D01*
X153414900Y-144679100D01*
X153295623Y-144671414D01*
X153176347Y-144663728D01*
X153168623Y-144792397D01*
X153157497Y-144880707D01*
X153140616Y-144920772D01*
X153122504Y-144912182D01*
X153107683Y-144854524D01*
X153102376Y-144798414D01*
X153094652Y-144663728D01*
X152856100Y-144679100D01*
X152848146Y-144793400D01*
X152835822Y-144884095D01*
X152815408Y-144931774D01*
X152788566Y-144932885D01*
X152784556Y-144929289D01*
X152775174Y-144896279D01*
X152768871Y-144828861D01*
X152767200Y-144764051D01*
X152768909Y-144680847D01*
X152777131Y-144636299D01*
X152796502Y-144618298D01*
X152824350Y-144614843D01*
X152962075Y-144612210D01*
X153074253Y-144611524D01*
X153135500Y-144611904D01*
X153224584Y-144611723D01*
X153307139Y-144609910D01*
X153314601Y-144609612D01*
X153398369Y-144611460D01*
X153398369Y-144611460D01*
G37*
X153398369Y-144611460D02*
X153447718Y-144632450D01*
X153471428Y-144682390D01*
X153478279Y-144771091D01*
X153478400Y-144792602D01*
X153473430Y-144886012D01*
X153461235Y-144935005D01*
X153445883Y-144938134D01*
X153431440Y-144893953D01*
X153422577Y-144812450D01*
X153414900Y-144679100D01*
X153295623Y-144671414D01*
X153176347Y-144663728D01*
X153168623Y-144792397D01*
X153157497Y-144880707D01*
X153140616Y-144920772D01*
X153122504Y-144912182D01*
X153107683Y-144854524D01*
X153102376Y-144798414D01*
X153094652Y-144663728D01*
X152856100Y-144679100D01*
X152848146Y-144793400D01*
X152835822Y-144884095D01*
X152815408Y-144931774D01*
X152788566Y-144932885D01*
X152784556Y-144929289D01*
X152775174Y-144896279D01*
X152768871Y-144828861D01*
X152767200Y-144764051D01*
X152768909Y-144680847D01*
X152777131Y-144636299D01*
X152796502Y-144618298D01*
X152824350Y-144614843D01*
X152962075Y-144612210D01*
X153074253Y-144611524D01*
X153135500Y-144611904D01*
X153224584Y-144611723D01*
X153307139Y-144609910D01*
X153314601Y-144609612D01*
X153398369Y-144611460D01*
G36*
X154361653Y-144606527D02*
X154425815Y-144634180D01*
X154457957Y-144671621D01*
X154460276Y-144723955D01*
X154448646Y-144747713D01*
X154422648Y-144750973D01*
X154405881Y-144718401D01*
X154386608Y-144683525D01*
X154348308Y-144670099D01*
X154282708Y-144671394D01*
X154176900Y-144679100D01*
X154169222Y-144812450D01*
X154159465Y-144900178D01*
X154145490Y-144939834D01*
X154130819Y-144933555D01*
X154118971Y-144883475D01*
X154113467Y-144791729D01*
X154113400Y-144778583D01*
X154116219Y-144684344D01*
X154125542Y-144634281D01*
X154142664Y-144622037D01*
X154145150Y-144622751D01*
X154192725Y-144621650D01*
X154221705Y-144611083D01*
X154286800Y-144597081D01*
X154361653Y-144606527D01*
X154361653Y-144606527D01*
G37*
X154361653Y-144606527D02*
X154425815Y-144634180D01*
X154457957Y-144671621D01*
X154460276Y-144723955D01*
X154448646Y-144747713D01*
X154422648Y-144750973D01*
X154405881Y-144718401D01*
X154386608Y-144683525D01*
X154348308Y-144670099D01*
X154282708Y-144671394D01*
X154176900Y-144679100D01*
X154169222Y-144812450D01*
X154159465Y-144900178D01*
X154145490Y-144939834D01*
X154130819Y-144933555D01*
X154118971Y-144883475D01*
X154113467Y-144791729D01*
X154113400Y-144778583D01*
X154116219Y-144684344D01*
X154125542Y-144634281D01*
X154142664Y-144622037D01*
X154145150Y-144622751D01*
X154192725Y-144621650D01*
X154221705Y-144611083D01*
X154286800Y-144597081D01*
X154361653Y-144606527D01*
G36*
X154777054Y-144599439D02*
X154860821Y-144619812D01*
X154918794Y-144656725D01*
X154928089Y-144669931D01*
X154948856Y-144726552D01*
X154935704Y-144763714D01*
X154883766Y-144784736D01*
X154788175Y-144792940D01*
X154747080Y-144793400D01*
X154644894Y-144798596D01*
X154586786Y-144812605D01*
X154574480Y-144833055D01*
X154609700Y-144857573D01*
X154683332Y-144881126D01*
X154763802Y-144892569D01*
X154829322Y-144875690D01*
X154852285Y-144863583D01*
X154907711Y-144841412D01*
X154938899Y-144845453D01*
X154936441Y-144870642D01*
X154912377Y-144895931D01*
X154846375Y-144925817D01*
X154754808Y-144939214D01*
X154660412Y-144935372D01*
X154585926Y-144913536D01*
X154575605Y-144907078D01*
X154537028Y-144868088D01*
X154523418Y-144814557D01*
X154524805Y-144759457D01*
X154532632Y-144710850D01*
X154576950Y-144710850D01*
X154586309Y-144729486D01*
X154634029Y-144739624D01*
X154723000Y-144742600D01*
X154813886Y-144739443D01*
X154860447Y-144729085D01*
X154869050Y-144710850D01*
X154836670Y-144690165D01*
X154760872Y-144679944D01*
X154723000Y-144679100D01*
X154632754Y-144685073D01*
X154583487Y-144702039D01*
X154576950Y-144710850D01*
X154532632Y-144710850D01*
X154536660Y-144685839D01*
X154565773Y-144642969D01*
X154604730Y-144619612D01*
X154685641Y-144598431D01*
X154777054Y-144599439D01*
X154777054Y-144599439D01*
G37*
X154777054Y-144599439D02*
X154860821Y-144619812D01*
X154918794Y-144656725D01*
X154928089Y-144669931D01*
X154948856Y-144726552D01*
X154935704Y-144763714D01*
X154883766Y-144784736D01*
X154788175Y-144792940D01*
X154747080Y-144793400D01*
X154644894Y-144798596D01*
X154586786Y-144812605D01*
X154574480Y-144833055D01*
X154609700Y-144857573D01*
X154683332Y-144881126D01*
X154763802Y-144892569D01*
X154829322Y-144875690D01*
X154852285Y-144863583D01*
X154907711Y-144841412D01*
X154938899Y-144845453D01*
X154936441Y-144870642D01*
X154912377Y-144895931D01*
X154846375Y-144925817D01*
X154754808Y-144939214D01*
X154660412Y-144935372D01*
X154585926Y-144913536D01*
X154575605Y-144907078D01*
X154537028Y-144868088D01*
X154523418Y-144814557D01*
X154524805Y-144759457D01*
X154532632Y-144710850D01*
X154576950Y-144710850D01*
X154586309Y-144729486D01*
X154634029Y-144739624D01*
X154723000Y-144742600D01*
X154813886Y-144739443D01*
X154860447Y-144729085D01*
X154869050Y-144710850D01*
X154836670Y-144690165D01*
X154760872Y-144679944D01*
X154723000Y-144679100D01*
X154632754Y-144685073D01*
X154583487Y-144702039D01*
X154576950Y-144710850D01*
X154532632Y-144710850D01*
X154536660Y-144685839D01*
X154565773Y-144642969D01*
X154604730Y-144619612D01*
X154685641Y-144598431D01*
X154777054Y-144599439D01*
G36*
X155310426Y-144600034D02*
X155378524Y-144617604D01*
X155420615Y-144645060D01*
X155426634Y-144679187D01*
X155414533Y-144696226D01*
X155383529Y-144706083D01*
X155372067Y-144694013D01*
X155337567Y-144674827D01*
X155276159Y-144665910D01*
X155205515Y-144666650D01*
X155143306Y-144676435D01*
X155107203Y-144694654D01*
X155104000Y-144703287D01*
X155118445Y-144725550D01*
X155167146Y-144739541D01*
X155258147Y-144747513D01*
X155262750Y-144747737D01*
X155349386Y-144752953D01*
X155397560Y-144762397D01*
X155419565Y-144782476D01*
X155427690Y-144819602D01*
X155429211Y-144834531D01*
X155427357Y-144893496D01*
X155399828Y-144922159D01*
X155378411Y-144929434D01*
X155294234Y-144942308D01*
X155199095Y-144943241D01*
X155115048Y-144933033D01*
X155072250Y-144918365D01*
X155035338Y-144880489D01*
X155027800Y-144855637D01*
X155037163Y-144822256D01*
X155067499Y-144832280D01*
X155094928Y-144856900D01*
X155147807Y-144882496D01*
X155225817Y-144893713D01*
X155304975Y-144889154D01*
X155354904Y-144872050D01*
X155380305Y-144841684D01*
X155360813Y-144816044D01*
X155302322Y-144798664D01*
X155223150Y-144793011D01*
X155118926Y-144786999D01*
X155057532Y-144767211D01*
X155031993Y-144729880D01*
X155031927Y-144689779D01*
X155051943Y-144644501D01*
X155104375Y-144616134D01*
X155136465Y-144607409D01*
X155226385Y-144595565D01*
X155310426Y-144600034D01*
X155310426Y-144600034D01*
G37*
X155310426Y-144600034D02*
X155378524Y-144617604D01*
X155420615Y-144645060D01*
X155426634Y-144679187D01*
X155414533Y-144696226D01*
X155383529Y-144706083D01*
X155372067Y-144694013D01*
X155337567Y-144674827D01*
X155276159Y-144665910D01*
X155205515Y-144666650D01*
X155143306Y-144676435D01*
X155107203Y-144694654D01*
X155104000Y-144703287D01*
X155118445Y-144725550D01*
X155167146Y-144739541D01*
X155258147Y-144747513D01*
X155262750Y-144747737D01*
X155349386Y-144752953D01*
X155397560Y-144762397D01*
X155419565Y-144782476D01*
X155427690Y-144819602D01*
X155429211Y-144834531D01*
X155427357Y-144893496D01*
X155399828Y-144922159D01*
X155378411Y-144929434D01*
X155294234Y-144942308D01*
X155199095Y-144943241D01*
X155115048Y-144933033D01*
X155072250Y-144918365D01*
X155035338Y-144880489D01*
X155027800Y-144855637D01*
X155037163Y-144822256D01*
X155067499Y-144832280D01*
X155094928Y-144856900D01*
X155147807Y-144882496D01*
X155225817Y-144893713D01*
X155304975Y-144889154D01*
X155354904Y-144872050D01*
X155380305Y-144841684D01*
X155360813Y-144816044D01*
X155302322Y-144798664D01*
X155223150Y-144793011D01*
X155118926Y-144786999D01*
X155057532Y-144767211D01*
X155031993Y-144729880D01*
X155031927Y-144689779D01*
X155051943Y-144644501D01*
X155104375Y-144616134D01*
X155136465Y-144607409D01*
X155226385Y-144595565D01*
X155310426Y-144600034D01*
G36*
X155810315Y-144606365D02*
X155842055Y-144616202D01*
X155884750Y-144637753D01*
X155907054Y-144666955D01*
X155915519Y-144719070D01*
X155916730Y-144790131D01*
X155916660Y-144933100D01*
X155770680Y-144937050D01*
X155682639Y-144937230D01*
X155610905Y-144933500D01*
X155581443Y-144929068D01*
X155538531Y-144896911D01*
X155522194Y-144866748D01*
X155520526Y-144829383D01*
X155586600Y-144829383D01*
X155608392Y-144867760D01*
X155663055Y-144889774D01*
X155734519Y-144892681D01*
X155806716Y-144873737D01*
X155816869Y-144868706D01*
X155860551Y-144835903D01*
X155855381Y-144811674D01*
X155802764Y-144797188D01*
X155726300Y-144793400D01*
X155640525Y-144797221D01*
X155596826Y-144810104D01*
X155586600Y-144829383D01*
X155520526Y-144829383D01*
X155519489Y-144806182D01*
X155558362Y-144766489D01*
X155641211Y-144746154D01*
X155718826Y-144742600D01*
X155807914Y-144739272D01*
X155852603Y-144728385D01*
X155859792Y-144710850D01*
X155829091Y-144688135D01*
X155767518Y-144674489D01*
X155694393Y-144671162D01*
X155629039Y-144679400D01*
X155596808Y-144693867D01*
X155555295Y-144711853D01*
X155537310Y-144689300D01*
X155543593Y-144657326D01*
X155579310Y-144626357D01*
X155647473Y-144605914D01*
X155730376Y-144598437D01*
X155810315Y-144606365D01*
X155810315Y-144606365D01*
G37*
X155810315Y-144606365D02*
X155842055Y-144616202D01*
X155884750Y-144637753D01*
X155907054Y-144666955D01*
X155915519Y-144719070D01*
X155916730Y-144790131D01*
X155916660Y-144933100D01*
X155770680Y-144937050D01*
X155682639Y-144937230D01*
X155610905Y-144933500D01*
X155581443Y-144929068D01*
X155538531Y-144896911D01*
X155522194Y-144866748D01*
X155520526Y-144829383D01*
X155586600Y-144829383D01*
X155608392Y-144867760D01*
X155663055Y-144889774D01*
X155734519Y-144892681D01*
X155806716Y-144873737D01*
X155816869Y-144868706D01*
X155860551Y-144835903D01*
X155855381Y-144811674D01*
X155802764Y-144797188D01*
X155726300Y-144793400D01*
X155640525Y-144797221D01*
X155596826Y-144810104D01*
X155586600Y-144829383D01*
X155520526Y-144829383D01*
X155519489Y-144806182D01*
X155558362Y-144766489D01*
X155641211Y-144746154D01*
X155718826Y-144742600D01*
X155807914Y-144739272D01*
X155852603Y-144728385D01*
X155859792Y-144710850D01*
X155829091Y-144688135D01*
X155767518Y-144674489D01*
X155694393Y-144671162D01*
X155629039Y-144679400D01*
X155596808Y-144693867D01*
X155555295Y-144711853D01*
X155537310Y-144689300D01*
X155543593Y-144657326D01*
X155579310Y-144626357D01*
X155647473Y-144605914D01*
X155730376Y-144598437D01*
X155810315Y-144606365D01*
G36*
X156316178Y-144617905D02*
X156361509Y-144651284D01*
X156368100Y-144712413D01*
X156366675Y-144720620D01*
X156355049Y-144780700D01*
X156336162Y-144723550D01*
X156315269Y-144686814D01*
X156274438Y-144670093D01*
X156205937Y-144666400D01*
X156094600Y-144666400D01*
X156094600Y-144791900D01*
X156088298Y-144881654D01*
X156070664Y-144930956D01*
X156043603Y-144935477D01*
X156034642Y-144928176D01*
X156025868Y-144895811D01*
X156019971Y-144828886D01*
X156018400Y-144764051D01*
X156018002Y-144691076D01*
X156023495Y-144646637D01*
X156044911Y-144623356D01*
X156092280Y-144613857D01*
X156175634Y-144610763D01*
X156228613Y-144609466D01*
X156316178Y-144617905D01*
X156316178Y-144617905D01*
G37*
X156316178Y-144617905D02*
X156361509Y-144651284D01*
X156368100Y-144712413D01*
X156366675Y-144720620D01*
X156355049Y-144780700D01*
X156336162Y-144723550D01*
X156315269Y-144686814D01*
X156274438Y-144670093D01*
X156205937Y-144666400D01*
X156094600Y-144666400D01*
X156094600Y-144791900D01*
X156088298Y-144881654D01*
X156070664Y-144930956D01*
X156043603Y-144935477D01*
X156034642Y-144928176D01*
X156025868Y-144895811D01*
X156019971Y-144828886D01*
X156018400Y-144764051D01*
X156018002Y-144691076D01*
X156023495Y-144646637D01*
X156044911Y-144623356D01*
X156092280Y-144613857D01*
X156175634Y-144610763D01*
X156228613Y-144609466D01*
X156316178Y-144617905D01*
G36*
X156488873Y-144638927D02*
X156497960Y-144700721D01*
X156501000Y-144780700D01*
X156497411Y-144866974D01*
X156487904Y-144926042D01*
X156475600Y-144945800D01*
X156462326Y-144922472D01*
X156453239Y-144860678D01*
X156450200Y-144780700D01*
X156453788Y-144694425D01*
X156463295Y-144635357D01*
X156475600Y-144615600D01*
X156488873Y-144638927D01*
X156488873Y-144638927D01*
G37*
X156488873Y-144638927D02*
X156497960Y-144700721D01*
X156501000Y-144780700D01*
X156497411Y-144866974D01*
X156487904Y-144926042D01*
X156475600Y-144945800D01*
X156462326Y-144922472D01*
X156453239Y-144860678D01*
X156450200Y-144780700D01*
X156453788Y-144694425D01*
X156463295Y-144635357D01*
X156475600Y-144615600D01*
X156488873Y-144638927D01*
G36*
X156874860Y-144602941D02*
X156913040Y-144612838D01*
X156974716Y-144658650D01*
X157004276Y-144738893D01*
X157004521Y-144844646D01*
X156997977Y-144890560D01*
X156981539Y-144916518D01*
X156942826Y-144929579D01*
X156869458Y-144936808D01*
X156839349Y-144938860D01*
X156747203Y-144942272D01*
X156688963Y-144934913D01*
X156648287Y-144913469D01*
X156629217Y-144896217D01*
X156593735Y-144848834D01*
X156595095Y-144829383D01*
X156653400Y-144829383D01*
X156672604Y-144870170D01*
X156685150Y-144878178D01*
X156751694Y-144890991D01*
X156833662Y-144890882D01*
X156892622Y-144879582D01*
X156927657Y-144848021D01*
X156932800Y-144828782D01*
X156917169Y-144806919D01*
X156865116Y-144795831D01*
X156793100Y-144793400D01*
X156707325Y-144797221D01*
X156663626Y-144810104D01*
X156653400Y-144829383D01*
X156595095Y-144829383D01*
X156596765Y-144805529D01*
X156602911Y-144792817D01*
X156627609Y-144763706D01*
X156670937Y-144748348D01*
X156746589Y-144742887D01*
X156781293Y-144742600D01*
X156869491Y-144739643D01*
X156916717Y-144729168D01*
X156932542Y-144708769D01*
X156932800Y-144704500D01*
X156910662Y-144681833D01*
X156855713Y-144668617D01*
X156785147Y-144665356D01*
X156716158Y-144672557D01*
X156665941Y-144690723D01*
X156658903Y-144696456D01*
X156622885Y-144713613D01*
X156604920Y-144691191D01*
X156610682Y-144656573D01*
X156645295Y-144627827D01*
X156712660Y-144607600D01*
X156795081Y-144598451D01*
X156874860Y-144602941D01*
X156874860Y-144602941D01*
G37*
X156874860Y-144602941D02*
X156913040Y-144612838D01*
X156974716Y-144658650D01*
X157004276Y-144738893D01*
X157004521Y-144844646D01*
X156997977Y-144890560D01*
X156981539Y-144916518D01*
X156942826Y-144929579D01*
X156869458Y-144936808D01*
X156839349Y-144938860D01*
X156747203Y-144942272D01*
X156688963Y-144934913D01*
X156648287Y-144913469D01*
X156629217Y-144896217D01*
X156593735Y-144848834D01*
X156595095Y-144829383D01*
X156653400Y-144829383D01*
X156672604Y-144870170D01*
X156685150Y-144878178D01*
X156751694Y-144890991D01*
X156833662Y-144890882D01*
X156892622Y-144879582D01*
X156927657Y-144848021D01*
X156932800Y-144828782D01*
X156917169Y-144806919D01*
X156865116Y-144795831D01*
X156793100Y-144793400D01*
X156707325Y-144797221D01*
X156663626Y-144810104D01*
X156653400Y-144829383D01*
X156595095Y-144829383D01*
X156596765Y-144805529D01*
X156602911Y-144792817D01*
X156627609Y-144763706D01*
X156670937Y-144748348D01*
X156746589Y-144742887D01*
X156781293Y-144742600D01*
X156869491Y-144739643D01*
X156916717Y-144729168D01*
X156932542Y-144708769D01*
X156932800Y-144704500D01*
X156910662Y-144681833D01*
X156855713Y-144668617D01*
X156785147Y-144665356D01*
X156716158Y-144672557D01*
X156665941Y-144690723D01*
X156658903Y-144696456D01*
X156622885Y-144713613D01*
X156604920Y-144691191D01*
X156610682Y-144656573D01*
X156645295Y-144627827D01*
X156712660Y-144607600D01*
X156795081Y-144598451D01*
X156874860Y-144602941D01*
G36*
X157085583Y-144502087D02*
X157098920Y-144585055D01*
X157105341Y-144691482D01*
X157105614Y-144820829D01*
X157095897Y-144903610D01*
X157076455Y-144938646D01*
X157051756Y-144929289D01*
X157044020Y-144897665D01*
X157038060Y-144827826D01*
X157034770Y-144732350D01*
X157034400Y-144685450D01*
X157036292Y-144572138D01*
X157042594Y-144503131D01*
X157054243Y-144472055D01*
X157066150Y-144469477D01*
X157085583Y-144502087D01*
X157085583Y-144502087D01*
G37*
X157085583Y-144502087D02*
X157098920Y-144585055D01*
X157105341Y-144691482D01*
X157105614Y-144820829D01*
X157095897Y-144903610D01*
X157076455Y-144938646D01*
X157051756Y-144929289D01*
X157044020Y-144897665D01*
X157038060Y-144827826D01*
X157034770Y-144732350D01*
X157034400Y-144685450D01*
X157036292Y-144572138D01*
X157042594Y-144503131D01*
X157054243Y-144472055D01*
X157066150Y-144469477D01*
X157085583Y-144502087D01*
G36*
X143547000Y-144552100D02*
X143534300Y-144564800D01*
X143521600Y-144552100D01*
X143534300Y-144539400D01*
X143547000Y-144552100D01*
X143547000Y-144552100D01*
G37*
X143547000Y-144552100D02*
X143534300Y-144564800D01*
X143521600Y-144552100D01*
X143534300Y-144539400D01*
X143547000Y-144552100D01*
G36*
X156498134Y-144483772D02*
X156501000Y-144501300D01*
X156487284Y-144535101D01*
X156475600Y-144539400D01*
X156453065Y-144518827D01*
X156450200Y-144501300D01*
X156463915Y-144467498D01*
X156475600Y-144463200D01*
X156498134Y-144483772D01*
X156498134Y-144483772D01*
G37*
X156498134Y-144483772D02*
X156501000Y-144501300D01*
X156487284Y-144535101D01*
X156475600Y-144539400D01*
X156453065Y-144518827D01*
X156450200Y-144501300D01*
X156463915Y-144467498D01*
X156475600Y-144463200D01*
X156498134Y-144483772D01*
G36*
X152658331Y-143830201D02*
X152677108Y-143842935D01*
X152686820Y-143876490D01*
X152690455Y-143940959D01*
X152691000Y-144042659D01*
X152689687Y-144149426D01*
X152683955Y-144217522D01*
X152671116Y-144259047D01*
X152648479Y-144286100D01*
X152634548Y-144296659D01*
X152571996Y-144320295D01*
X152480542Y-144333126D01*
X152381060Y-144334491D01*
X152294426Y-144323727D01*
X152252850Y-144308765D01*
X152215877Y-144269457D01*
X152208400Y-144243076D01*
X152220529Y-144216360D01*
X152264568Y-144216520D01*
X152278250Y-144219444D01*
X152396049Y-144244843D01*
X152473008Y-144255747D01*
X152517019Y-144252015D01*
X152535972Y-144233504D01*
X152538600Y-144214750D01*
X152533481Y-144180835D01*
X152508465Y-144176320D01*
X152463411Y-144191193D01*
X152398930Y-144205985D01*
X152335110Y-144192805D01*
X152298978Y-144177015D01*
X152223987Y-144121276D01*
X152189882Y-144052800D01*
X152191747Y-143980831D01*
X152194830Y-143974629D01*
X152341058Y-143974629D01*
X152341818Y-144040101D01*
X152350817Y-144067422D01*
X152385921Y-144097765D01*
X152444935Y-144106669D01*
X152505533Y-144093740D01*
X152537588Y-144070718D01*
X152558792Y-144015763D01*
X152541037Y-143964984D01*
X152495798Y-143928622D01*
X152434554Y-143916916D01*
X152382093Y-143931997D01*
X152341058Y-143974629D01*
X152194830Y-143974629D01*
X152224669Y-143914611D01*
X152283735Y-143863384D01*
X152364030Y-143836394D01*
X152460641Y-143842882D01*
X152474535Y-143846787D01*
X152533003Y-143859278D01*
X152562812Y-143854704D01*
X152564000Y-143851222D01*
X152585750Y-143833911D01*
X152627500Y-143828200D01*
X152658331Y-143830201D01*
X152658331Y-143830201D01*
G37*
X152658331Y-143830201D02*
X152677108Y-143842935D01*
X152686820Y-143876490D01*
X152690455Y-143940959D01*
X152691000Y-144042659D01*
X152689687Y-144149426D01*
X152683955Y-144217522D01*
X152671116Y-144259047D01*
X152648479Y-144286100D01*
X152634548Y-144296659D01*
X152571996Y-144320295D01*
X152480542Y-144333126D01*
X152381060Y-144334491D01*
X152294426Y-144323727D01*
X152252850Y-144308765D01*
X152215877Y-144269457D01*
X152208400Y-144243076D01*
X152220529Y-144216360D01*
X152264568Y-144216520D01*
X152278250Y-144219444D01*
X152396049Y-144244843D01*
X152473008Y-144255747D01*
X152517019Y-144252015D01*
X152535972Y-144233504D01*
X152538600Y-144214750D01*
X152533481Y-144180835D01*
X152508465Y-144176320D01*
X152463411Y-144191193D01*
X152398930Y-144205985D01*
X152335110Y-144192805D01*
X152298978Y-144177015D01*
X152223987Y-144121276D01*
X152189882Y-144052800D01*
X152191747Y-143980831D01*
X152194830Y-143974629D01*
X152341058Y-143974629D01*
X152341818Y-144040101D01*
X152350817Y-144067422D01*
X152385921Y-144097765D01*
X152444935Y-144106669D01*
X152505533Y-144093740D01*
X152537588Y-144070718D01*
X152558792Y-144015763D01*
X152541037Y-143964984D01*
X152495798Y-143928622D01*
X152434554Y-143916916D01*
X152382093Y-143931997D01*
X152341058Y-143974629D01*
X152194830Y-143974629D01*
X152224669Y-143914611D01*
X152283735Y-143863384D01*
X152364030Y-143836394D01*
X152460641Y-143842882D01*
X152474535Y-143846787D01*
X152533003Y-143859278D01*
X152562812Y-143854704D01*
X152564000Y-143851222D01*
X152585750Y-143833911D01*
X152627500Y-143828200D01*
X152658331Y-143830201D01*
G36*
X153919837Y-143836681D02*
X153935600Y-143852971D01*
X153955973Y-143864202D01*
X154005185Y-143851286D01*
X154105611Y-143832488D01*
X154193265Y-143850024D01*
X154261287Y-143895563D01*
X154302817Y-143960779D01*
X154310994Y-144037341D01*
X154278960Y-144116922D01*
X154251168Y-144149940D01*
X154200016Y-144191765D01*
X154145887Y-144206580D01*
X154074740Y-144202860D01*
X154005570Y-144197457D01*
X153971861Y-144206427D01*
X153958851Y-144236492D01*
X153956021Y-144256924D01*
X153937064Y-144309294D01*
X153886746Y-144330452D01*
X153878450Y-144331537D01*
X153808600Y-144339574D01*
X153808600Y-144001048D01*
X153965400Y-144001048D01*
X153974708Y-144071732D01*
X154016711Y-144120351D01*
X154062600Y-144133000D01*
X154116348Y-144114680D01*
X154137639Y-144096298D01*
X154158762Y-144042875D01*
X154159799Y-144001048D01*
X154144861Y-143960650D01*
X154105304Y-143944504D01*
X154062600Y-143942500D01*
X154000399Y-143948566D01*
X153972404Y-143973110D01*
X153965400Y-144001048D01*
X153808600Y-144001048D01*
X153808600Y-143828200D01*
X153872100Y-143828200D01*
X153919837Y-143836681D01*
X153919837Y-143836681D01*
G37*
X153919837Y-143836681D02*
X153935600Y-143852971D01*
X153955973Y-143864202D01*
X154005185Y-143851286D01*
X154105611Y-143832488D01*
X154193265Y-143850024D01*
X154261287Y-143895563D01*
X154302817Y-143960779D01*
X154310994Y-144037341D01*
X154278960Y-144116922D01*
X154251168Y-144149940D01*
X154200016Y-144191765D01*
X154145887Y-144206580D01*
X154074740Y-144202860D01*
X154005570Y-144197457D01*
X153971861Y-144206427D01*
X153958851Y-144236492D01*
X153956021Y-144256924D01*
X153937064Y-144309294D01*
X153886746Y-144330452D01*
X153878450Y-144331537D01*
X153808600Y-144339574D01*
X153808600Y-144001048D01*
X153965400Y-144001048D01*
X153974708Y-144071732D01*
X154016711Y-144120351D01*
X154062600Y-144133000D01*
X154116348Y-144114680D01*
X154137639Y-144096298D01*
X154158762Y-144042875D01*
X154159799Y-144001048D01*
X154144861Y-143960650D01*
X154105304Y-143944504D01*
X154062600Y-143942500D01*
X154000399Y-143948566D01*
X153972404Y-143973110D01*
X153965400Y-144001048D01*
X153808600Y-144001048D01*
X153808600Y-143828200D01*
X153872100Y-143828200D01*
X153919837Y-143836681D01*
G36*
X152929237Y-143836709D02*
X152945000Y-143853055D01*
X152964340Y-143863407D01*
X153006880Y-143849716D01*
X153068848Y-143834350D01*
X153119618Y-143842308D01*
X153143528Y-143869454D01*
X153141866Y-143885363D01*
X153111601Y-143912086D01*
X153057204Y-143929923D01*
X153012508Y-143942269D01*
X152988272Y-143968896D01*
X152975518Y-144024249D01*
X152970400Y-144069623D01*
X152960146Y-144145618D01*
X152943565Y-144184714D01*
X152912178Y-144200769D01*
X152887850Y-144204537D01*
X152818000Y-144212574D01*
X152818000Y-144020387D01*
X152818774Y-143922968D01*
X152823445Y-143865693D01*
X152835532Y-143837909D01*
X152858556Y-143828961D01*
X152881500Y-143828200D01*
X152929237Y-143836709D01*
X152929237Y-143836709D01*
G37*
X152929237Y-143836709D02*
X152945000Y-143853055D01*
X152964340Y-143863407D01*
X153006880Y-143849716D01*
X153068848Y-143834350D01*
X153119618Y-143842308D01*
X153143528Y-143869454D01*
X153141866Y-143885363D01*
X153111601Y-143912086D01*
X153057204Y-143929923D01*
X153012508Y-143942269D01*
X152988272Y-143968896D01*
X152975518Y-144024249D01*
X152970400Y-144069623D01*
X152960146Y-144145618D01*
X152943565Y-144184714D01*
X152912178Y-144200769D01*
X152887850Y-144204537D01*
X152818000Y-144212574D01*
X152818000Y-144020387D01*
X152818774Y-143922968D01*
X152823445Y-143865693D01*
X152835532Y-143837909D01*
X152858556Y-143828961D01*
X152881500Y-143828200D01*
X152929237Y-143836709D01*
G36*
X153638597Y-143843520D02*
X153657584Y-143858768D01*
X153666327Y-143897723D01*
X153668786Y-143971462D01*
X153668900Y-144018397D01*
X153668900Y-144195895D01*
X153487934Y-144200819D01*
X153366626Y-144198784D01*
X153286117Y-144183983D01*
X153251784Y-144167091D01*
X153219917Y-144137238D01*
X153204842Y-144095431D01*
X153202411Y-144025790D01*
X153204150Y-143984669D01*
X153210172Y-143903114D01*
X153221249Y-143860125D01*
X153243421Y-143843475D01*
X153275200Y-143840900D01*
X153312047Y-143845327D01*
X153332987Y-143866830D01*
X153344745Y-143917738D01*
X153351400Y-143980600D01*
X153361901Y-144063053D01*
X153377883Y-144107171D01*
X153404906Y-144125417D01*
X153417122Y-144127875D01*
X153474767Y-144119247D01*
X153512039Y-144070956D01*
X153531722Y-143978868D01*
X153533803Y-143954701D01*
X153541880Y-143884127D01*
X153558458Y-143850805D01*
X153592060Y-143841189D01*
X153605400Y-143840900D01*
X153638597Y-143843520D01*
X153638597Y-143843520D01*
G37*
X153638597Y-143843520D02*
X153657584Y-143858768D01*
X153666327Y-143897723D01*
X153668786Y-143971462D01*
X153668900Y-144018397D01*
X153668900Y-144195895D01*
X153487934Y-144200819D01*
X153366626Y-144198784D01*
X153286117Y-144183983D01*
X153251784Y-144167091D01*
X153219917Y-144137238D01*
X153204842Y-144095431D01*
X153202411Y-144025790D01*
X153204150Y-143984669D01*
X153210172Y-143903114D01*
X153221249Y-143860125D01*
X153243421Y-143843475D01*
X153275200Y-143840900D01*
X153312047Y-143845327D01*
X153332987Y-143866830D01*
X153344745Y-143917738D01*
X153351400Y-143980600D01*
X153361901Y-144063053D01*
X153377883Y-144107171D01*
X153404906Y-144125417D01*
X153417122Y-144127875D01*
X153474767Y-144119247D01*
X153512039Y-144070956D01*
X153531722Y-143978868D01*
X153533803Y-143954701D01*
X153541880Y-143884127D01*
X153558458Y-143850805D01*
X153592060Y-143841189D01*
X153605400Y-143840900D01*
X153638597Y-143843520D01*
G36*
X154730760Y-143843643D02*
X154818557Y-143883151D01*
X154885064Y-143936540D01*
X154904346Y-143965539D01*
X154915340Y-144039644D01*
X154885190Y-144106083D01*
X154823478Y-144159916D01*
X154739786Y-144196206D01*
X154643698Y-144210014D01*
X154544794Y-144196399D01*
X154494900Y-144176574D01*
X154427339Y-144121279D01*
X154389400Y-144047498D01*
X154389854Y-143990322D01*
X154538752Y-143990322D01*
X154544749Y-144046917D01*
X154570017Y-144081617D01*
X154635052Y-144126581D01*
X154694730Y-144122410D01*
X154733885Y-144093085D01*
X154769506Y-144032879D01*
X154760064Y-143978982D01*
X154711160Y-143941412D01*
X154642613Y-143929799D01*
X154573399Y-143947048D01*
X154538752Y-143990322D01*
X154389854Y-143990322D01*
X154389993Y-143972863D01*
X154390777Y-143970577D01*
X154429755Y-143920080D01*
X154499504Y-143872300D01*
X154580674Y-143838232D01*
X154641265Y-143828239D01*
X154730760Y-143843643D01*
X154730760Y-143843643D01*
G37*
X154730760Y-143843643D02*
X154818557Y-143883151D01*
X154885064Y-143936540D01*
X154904346Y-143965539D01*
X154915340Y-144039644D01*
X154885190Y-144106083D01*
X154823478Y-144159916D01*
X154739786Y-144196206D01*
X154643698Y-144210014D01*
X154544794Y-144196399D01*
X154494900Y-144176574D01*
X154427339Y-144121279D01*
X154389400Y-144047498D01*
X154389854Y-143990322D01*
X154538752Y-143990322D01*
X154544749Y-144046917D01*
X154570017Y-144081617D01*
X154635052Y-144126581D01*
X154694730Y-144122410D01*
X154733885Y-144093085D01*
X154769506Y-144032879D01*
X154760064Y-143978982D01*
X154711160Y-143941412D01*
X154642613Y-143929799D01*
X154573399Y-143947048D01*
X154538752Y-143990322D01*
X154389854Y-143990322D01*
X154389993Y-143972863D01*
X154390777Y-143970577D01*
X154429755Y-143920080D01*
X154499504Y-143872300D01*
X154580674Y-143838232D01*
X154641265Y-143828239D01*
X154730760Y-143843643D01*
D13*
X149156667Y-128112381D02*
X149156667Y-128826667D01*
X149109047Y-128969524D01*
X149013809Y-129064762D01*
X148870952Y-129112381D01*
X148775714Y-129112381D01*
X150156667Y-129112381D02*
X149585238Y-129112381D01*
X149870952Y-129112381D02*
X149870952Y-128112381D01*
X149775714Y-128255238D01*
X149680476Y-128350476D01*
X149585238Y-128398095D01*
D12*
X138365715Y-138452381D02*
X137794286Y-138452381D01*
X138080000Y-138452381D02*
X138080000Y-137452381D01*
X137984762Y-137595238D01*
X137889524Y-137690476D01*
X137794286Y-137738095D01*
D13*
X153888095Y-116972381D02*
X153888095Y-117781905D01*
X153935714Y-117877143D01*
X153983333Y-117924762D01*
X154078571Y-117972381D01*
X154269048Y-117972381D01*
X154364286Y-117924762D01*
X154411905Y-117877143D01*
X154459524Y-117781905D01*
X154459524Y-116972381D01*
X155459524Y-117972381D02*
X154888095Y-117972381D01*
X155173809Y-117972381D02*
X155173809Y-116972381D01*
X155078571Y-117115238D01*
X154983333Y-117210476D01*
X154888095Y-117258095D01*
X138157143Y-104056666D02*
X138204762Y-104104285D01*
X138252381Y-104247142D01*
X138252381Y-104342380D01*
X138204762Y-104485238D01*
X138109524Y-104580476D01*
X138014286Y-104628095D01*
X137823810Y-104675714D01*
X137680952Y-104675714D01*
X137490476Y-104628095D01*
X137395238Y-104580476D01*
X137300000Y-104485238D01*
X137252381Y-104342380D01*
X137252381Y-104247142D01*
X137300000Y-104104285D01*
X137347619Y-104056666D01*
X138252381Y-103104285D02*
X138252381Y-103675714D01*
X138252381Y-103390000D02*
X137252381Y-103390000D01*
X137395238Y-103485238D01*
X137490476Y-103580476D01*
X137538095Y-103675714D01*
X165583334Y-109177143D02*
X165535715Y-109224762D01*
X165392858Y-109272381D01*
X165297620Y-109272381D01*
X165154762Y-109224762D01*
X165059524Y-109129524D01*
X165011905Y-109034286D01*
X164964286Y-108843810D01*
X164964286Y-108700952D01*
X165011905Y-108510476D01*
X165059524Y-108415238D01*
X165154762Y-108320000D01*
X165297620Y-108272381D01*
X165392858Y-108272381D01*
X165535715Y-108320000D01*
X165583334Y-108367619D01*
X165964286Y-108367619D02*
X166011905Y-108320000D01*
X166107143Y-108272381D01*
X166345239Y-108272381D01*
X166440477Y-108320000D01*
X166488096Y-108367619D01*
X166535715Y-108462857D01*
X166535715Y-108558095D01*
X166488096Y-108700952D01*
X165916667Y-109272381D01*
X166535715Y-109272381D01*
X131293334Y-111507143D02*
X131245715Y-111554762D01*
X131102858Y-111602381D01*
X131007620Y-111602381D01*
X130864762Y-111554762D01*
X130769524Y-111459524D01*
X130721905Y-111364286D01*
X130674286Y-111173810D01*
X130674286Y-111030952D01*
X130721905Y-110840476D01*
X130769524Y-110745238D01*
X130864762Y-110650000D01*
X131007620Y-110602381D01*
X131102858Y-110602381D01*
X131245715Y-110650000D01*
X131293334Y-110697619D01*
X131626667Y-110602381D02*
X132245715Y-110602381D01*
X131912381Y-110983333D01*
X132055239Y-110983333D01*
X132150477Y-111030952D01*
X132198096Y-111078571D01*
X132245715Y-111173810D01*
X132245715Y-111411905D01*
X132198096Y-111507143D01*
X132150477Y-111554762D01*
X132055239Y-111602381D01*
X131769524Y-111602381D01*
X131674286Y-111554762D01*
X131626667Y-111507143D01*
X131263334Y-113477143D02*
X131215715Y-113524762D01*
X131072858Y-113572381D01*
X130977620Y-113572381D01*
X130834762Y-113524762D01*
X130739524Y-113429524D01*
X130691905Y-113334286D01*
X130644286Y-113143810D01*
X130644286Y-113000952D01*
X130691905Y-112810476D01*
X130739524Y-112715238D01*
X130834762Y-112620000D01*
X130977620Y-112572381D01*
X131072858Y-112572381D01*
X131215715Y-112620000D01*
X131263334Y-112667619D01*
X132120477Y-112905714D02*
X132120477Y-113572381D01*
X131882381Y-112524762D02*
X131644286Y-113239048D01*
X132263334Y-113239048D01*
X165411905Y-114222381D02*
X165411905Y-113222381D01*
X165650000Y-113222381D01*
X165792858Y-113270000D01*
X165888096Y-113365238D01*
X165935715Y-113460476D01*
X165983334Y-113650952D01*
X165983334Y-113793810D01*
X165935715Y-113984286D01*
X165888096Y-114079524D01*
X165792858Y-114174762D01*
X165650000Y-114222381D01*
X165411905Y-114222381D01*
X166935715Y-114222381D02*
X166364286Y-114222381D01*
X166650000Y-114222381D02*
X166650000Y-113222381D01*
X166554762Y-113365238D01*
X166459524Y-113460476D01*
X166364286Y-113508095D01*
X130794762Y-108877619D02*
X130699524Y-108830000D01*
X130604286Y-108734762D01*
X130461429Y-108591905D01*
X130366190Y-108544286D01*
X130270952Y-108544286D01*
X130318571Y-108782381D02*
X130223333Y-108734762D01*
X130128095Y-108639524D01*
X130080476Y-108449048D01*
X130080476Y-108115714D01*
X130128095Y-107925238D01*
X130223333Y-107830000D01*
X130318571Y-107782381D01*
X130509048Y-107782381D01*
X130604286Y-107830000D01*
X130699524Y-107925238D01*
X130747143Y-108115714D01*
X130747143Y-108449048D01*
X130699524Y-108639524D01*
X130604286Y-108734762D01*
X130509048Y-108782381D01*
X130318571Y-108782381D01*
X131699524Y-108782381D02*
X131128095Y-108782381D01*
X131413809Y-108782381D02*
X131413809Y-107782381D01*
X131318571Y-107925238D01*
X131223333Y-108020476D01*
X131128095Y-108068095D01*
X160547619Y-104715238D02*
X160500000Y-104810476D01*
X160404762Y-104905714D01*
X160261905Y-105048571D01*
X160214286Y-105143810D01*
X160214286Y-105239048D01*
X160452381Y-105191429D02*
X160404762Y-105286667D01*
X160309524Y-105381905D01*
X160119048Y-105429524D01*
X159785714Y-105429524D01*
X159595238Y-105381905D01*
X159500000Y-105286667D01*
X159452381Y-105191429D01*
X159452381Y-105000952D01*
X159500000Y-104905714D01*
X159595238Y-104810476D01*
X159785714Y-104762857D01*
X160119048Y-104762857D01*
X160309524Y-104810476D01*
X160404762Y-104905714D01*
X160452381Y-105000952D01*
X160452381Y-105191429D01*
X159547619Y-104381905D02*
X159500000Y-104334286D01*
X159452381Y-104239048D01*
X159452381Y-104000952D01*
X159500000Y-103905714D01*
X159547619Y-103858095D01*
X159642857Y-103810476D01*
X159738095Y-103810476D01*
X159880952Y-103858095D01*
X160452381Y-104429524D01*
X160452381Y-103810476D01*
X133612381Y-104136666D02*
X133136190Y-104470000D01*
X133612381Y-104708095D02*
X132612381Y-104708095D01*
X132612381Y-104327142D01*
X132660000Y-104231904D01*
X132707619Y-104184285D01*
X132802857Y-104136666D01*
X132945714Y-104136666D01*
X133040952Y-104184285D01*
X133088571Y-104231904D01*
X133136190Y-104327142D01*
X133136190Y-104708095D01*
X133612381Y-103184285D02*
X133612381Y-103755714D01*
X133612381Y-103470000D02*
X132612381Y-103470000D01*
X132755238Y-103565238D01*
X132850476Y-103660476D01*
X132898095Y-103755714D01*
X131043334Y-118972381D02*
X130710000Y-118496190D01*
X130471905Y-118972381D02*
X130471905Y-117972381D01*
X130852858Y-117972381D01*
X130948096Y-118020000D01*
X130995715Y-118067619D01*
X131043334Y-118162857D01*
X131043334Y-118305714D01*
X130995715Y-118400952D01*
X130948096Y-118448571D01*
X130852858Y-118496190D01*
X130471905Y-118496190D01*
X131424286Y-118067619D02*
X131471905Y-118020000D01*
X131567143Y-117972381D01*
X131805239Y-117972381D01*
X131900477Y-118020000D01*
X131948096Y-118067619D01*
X131995715Y-118162857D01*
X131995715Y-118258095D01*
X131948096Y-118400952D01*
X131376667Y-118972381D01*
X131995715Y-118972381D01*
X165803334Y-111472381D02*
X165470000Y-110996190D01*
X165231905Y-111472381D02*
X165231905Y-110472381D01*
X165612858Y-110472381D01*
X165708096Y-110520000D01*
X165755715Y-110567619D01*
X165803334Y-110662857D01*
X165803334Y-110805714D01*
X165755715Y-110900952D01*
X165708096Y-110948571D01*
X165612858Y-110996190D01*
X165231905Y-110996190D01*
X166136667Y-110472381D02*
X166755715Y-110472381D01*
X166422381Y-110853333D01*
X166565239Y-110853333D01*
X166660477Y-110900952D01*
X166708096Y-110948571D01*
X166755715Y-111043810D01*
X166755715Y-111281905D01*
X166708096Y-111377143D01*
X166660477Y-111424762D01*
X166565239Y-111472381D01*
X166279524Y-111472381D01*
X166184286Y-111424762D01*
X166136667Y-111377143D01*
X130923334Y-116572381D02*
X130590000Y-116096190D01*
X130351905Y-116572381D02*
X130351905Y-115572381D01*
X130732858Y-115572381D01*
X130828096Y-115620000D01*
X130875715Y-115667619D01*
X130923334Y-115762857D01*
X130923334Y-115905714D01*
X130875715Y-116000952D01*
X130828096Y-116048571D01*
X130732858Y-116096190D01*
X130351905Y-116096190D01*
X131780477Y-115905714D02*
X131780477Y-116572381D01*
X131542381Y-115524762D02*
X131304286Y-116239048D01*
X131923334Y-116239048D01*
X165833334Y-118942381D02*
X165500000Y-118466190D01*
X165261905Y-118942381D02*
X165261905Y-117942381D01*
X165642858Y-117942381D01*
X165738096Y-117990000D01*
X165785715Y-118037619D01*
X165833334Y-118132857D01*
X165833334Y-118275714D01*
X165785715Y-118370952D01*
X165738096Y-118418571D01*
X165642858Y-118466190D01*
X165261905Y-118466190D01*
X166738096Y-117942381D02*
X166261905Y-117942381D01*
X166214286Y-118418571D01*
X166261905Y-118370952D01*
X166357143Y-118323333D01*
X166595239Y-118323333D01*
X166690477Y-118370952D01*
X166738096Y-118418571D01*
X166785715Y-118513810D01*
X166785715Y-118751905D01*
X166738096Y-118847143D01*
X166690477Y-118894762D01*
X166595239Y-118942381D01*
X166357143Y-118942381D01*
X166261905Y-118894762D01*
X166214286Y-118847143D01*
X165763334Y-116732381D02*
X165430000Y-116256190D01*
X165191905Y-116732381D02*
X165191905Y-115732381D01*
X165572858Y-115732381D01*
X165668096Y-115780000D01*
X165715715Y-115827619D01*
X165763334Y-115922857D01*
X165763334Y-116065714D01*
X165715715Y-116160952D01*
X165668096Y-116208571D01*
X165572858Y-116256190D01*
X165191905Y-116256190D01*
X166620477Y-115732381D02*
X166430000Y-115732381D01*
X166334762Y-115780000D01*
X166287143Y-115827619D01*
X166191905Y-115970476D01*
X166144286Y-116160952D01*
X166144286Y-116541905D01*
X166191905Y-116637143D01*
X166239524Y-116684762D01*
X166334762Y-116732381D01*
X166525239Y-116732381D01*
X166620477Y-116684762D01*
X166668096Y-116637143D01*
X166715715Y-116541905D01*
X166715715Y-116303810D01*
X166668096Y-116208571D01*
X166620477Y-116160952D01*
X166525239Y-116113333D01*
X166334762Y-116113333D01*
X166239524Y-116160952D01*
X166191905Y-116208571D01*
X166144286Y-116303810D01*
M02*
