M48
;DRILL file {KiCad 4.0.6} date 07/10/17 09:04:12
;FORMAT={-:-/ absolute / metric / decimal}
FMAT,2
METRIC,TZ
T1C0.600
T2C1.016
T3C4.000
%
G90
G05
M71
T1
X130.89Y-100.96
X130.89Y-102.88
X130.89Y-104.85
X132.42Y-99.8
X132.5Y-130.36
X133.48Y-120.1
X134.56Y-99.8
X136.4Y-130.36
X136.43Y-131.87
X136.62Y-99.8
X137.73Y-109.76
X137.73Y-116.05
X138.22Y-102.48
X140.16Y-128.96
X141.25Y-118.18
X141.25Y-119.78
X141.4Y-127.76
X143.16Y-141.38
X144.06Y-110.59
X144.36Y-125.54
X144.36Y-131.29
X144.39Y-108.6
X144.66Y-104.54
X145.47Y-141.38
X147.72Y-99.8
X147.9Y-141.39
X147.96Y-109.09
X149.26Y-100.96
X149.81Y-106.17
X149.94Y-111.77
X150.17Y-141.39
X150.25Y-99.8
X151.94Y-104.53
X152.54Y-141.43
X154.77Y-124.21
X157.22Y-120.62
X157.22Y-122.31
X157.79Y-116.67
X159.29Y-116.67
X159.29Y-120.62
X159.29Y-122.31
X160.32Y-99.8
X163.47Y-99.8
X165.81Y-112.25
X166.01Y-99.8
X167.85Y-100.96
X167.85Y-102.88
X167.85Y-104.85
T2
X138.06Y-133.74
X138.06Y-136.28
X140.6Y-133.74
X140.6Y-136.28
X143.14Y-133.74
X143.14Y-136.28
X145.68Y-133.74
X145.68Y-136.28
X148.22Y-133.74
X148.22Y-136.28
X150.76Y-133.74
X150.76Y-136.28
X153.3Y-133.74
X153.3Y-136.28
X155.84Y-133.74
X155.84Y-136.28
X158.38Y-133.74
X158.38Y-136.28
X160.92Y-133.74
X160.92Y-136.28
T3
X134.45Y-124.28
X134.45Y-144.69
X164.59Y-124.28
X164.59Y-144.75
T0
M30
