G04 #@! TF.FileFunction,Soldermask,Top*
%FSLAX46Y46*%
G04 Gerber Fmt 4.6, Leading zero omitted, Abs format (unit mm)*
G04 Created by KiCad (PCBNEW 4.0.6) date 07/10/17 09:04:08*
%MOMM*%
%LPD*%
G01*
G04 APERTURE LIST*
%ADD10C,0.100000*%
%ADD11C,5.400000*%
%ADD12R,2.127200X2.127200*%
%ADD13O,2.127200X2.127200*%
%ADD14R,3.400000X1.600000*%
%ADD15R,1.150000X1.600000*%
%ADD16R,1.600000X1.150000*%
%ADD17R,1.600000X1.600000*%
%ADD18R,2.300000X1.200000*%
%ADD19R,1.200000X2.300000*%
%ADD20R,1.300000X1.600000*%
%ADD21R,1.600000X1.300000*%
G04 APERTURE END LIST*
D10*
D11*
X164590000Y-144750000D03*
X134450000Y-144690000D03*
D12*
X138060000Y-136280000D03*
D13*
X138060000Y-133740000D03*
X140600000Y-136280000D03*
X140600000Y-133740000D03*
X143140000Y-136280000D03*
X143140000Y-133740000D03*
X145680000Y-136280000D03*
X145680000Y-133740000D03*
X148220000Y-136280000D03*
X148220000Y-133740000D03*
X150760000Y-136280000D03*
X150760000Y-133740000D03*
X153300000Y-136280000D03*
X153300000Y-133740000D03*
X155840000Y-136280000D03*
X155840000Y-133740000D03*
X158380000Y-136280000D03*
X158380000Y-133740000D03*
X160920000Y-136280000D03*
X160920000Y-133740000D03*
D14*
X141031100Y-114523600D03*
X157031100Y-114523600D03*
X141031100Y-112523600D03*
X157031100Y-112523600D03*
X141031100Y-110523600D03*
X157031100Y-110523600D03*
X141031100Y-108523600D03*
X157031100Y-108523600D03*
X141031100Y-106523600D03*
X157031100Y-106523600D03*
X141031100Y-104523600D03*
X157031100Y-104523600D03*
X141031100Y-102523600D03*
X157031100Y-102523600D03*
X141031100Y-100523600D03*
X157031100Y-100523600D03*
D11*
X164590000Y-124280000D03*
X134450000Y-124280000D03*
D15*
X136550000Y-102940000D03*
X136550000Y-104840000D03*
D16*
X161550000Y-108740000D03*
X163450000Y-108740000D03*
X135520000Y-111020000D03*
X133620000Y-111020000D03*
X135520000Y-113120000D03*
X133620000Y-113120000D03*
D17*
X161400000Y-113770000D03*
X163600000Y-113770000D03*
D18*
X133600000Y-107180000D03*
X133600000Y-109080000D03*
X136600000Y-108130000D03*
D19*
X161550000Y-106120000D03*
X163450000Y-106120000D03*
X162500000Y-103120000D03*
D20*
X134610000Y-105070000D03*
X134610000Y-102870000D03*
D21*
X135750000Y-118570000D03*
X133550000Y-118570000D03*
X161550000Y-110830000D03*
X163750000Y-110830000D03*
X133510000Y-116050000D03*
X135710000Y-116050000D03*
X161510000Y-118410000D03*
X163710000Y-118410000D03*
X163600000Y-116170000D03*
X161400000Y-116170000D03*
M02*
