G04 #@! TF.FileFunction,Copper,L2,Bot,Signal*
%FSLAX46Y46*%
G04 Gerber Fmt 4.6, Leading zero omitted, Abs format (unit mm)*
G04 Created by KiCad (PCBNEW 4.0.6) date 07/10/17 09:04:08*
%MOMM*%
%LPD*%
G01*
G04 APERTURE LIST*
%ADD10C,0.100000*%
%ADD11C,5.000000*%
%ADD12R,1.727200X1.727200*%
%ADD13O,1.727200X1.727200*%
%ADD14C,1.200000*%
%ADD15C,0.300000*%
%ADD16C,0.254000*%
G04 APERTURE END LIST*
D10*
D11*
X164590000Y-144750000D03*
X134450000Y-144690000D03*
D12*
X138060000Y-136280000D03*
D13*
X138060000Y-133740000D03*
X140600000Y-136280000D03*
X140600000Y-133740000D03*
X143140000Y-136280000D03*
X143140000Y-133740000D03*
X145680000Y-136280000D03*
X145680000Y-133740000D03*
X148220000Y-136280000D03*
X148220000Y-133740000D03*
X150760000Y-136280000D03*
X150760000Y-133740000D03*
X153300000Y-136280000D03*
X153300000Y-133740000D03*
X155840000Y-136280000D03*
X155840000Y-133740000D03*
X158380000Y-136280000D03*
X158380000Y-133740000D03*
X160920000Y-136280000D03*
X160920000Y-133740000D03*
D11*
X164590000Y-124280000D03*
X134450000Y-124280000D03*
D14*
X147960000Y-109090000D03*
X149940000Y-111770000D03*
X152540000Y-141430000D03*
X150170000Y-141390000D03*
X147900000Y-141390000D03*
X145470000Y-141380000D03*
X143160000Y-141380000D03*
X144360000Y-131290000D03*
X144360000Y-125540000D03*
X141400000Y-127760000D03*
X140160000Y-128960000D03*
X141250000Y-118180000D03*
X141250000Y-119780000D03*
X136430000Y-131870000D03*
X136400000Y-130360000D03*
X132500000Y-130360000D03*
X159290000Y-122310000D03*
X157220000Y-122310000D03*
X157220000Y-120620000D03*
X159290000Y-120620000D03*
X159290000Y-116670000D03*
X157790000Y-116670000D03*
X167850000Y-104850000D03*
X149260000Y-100960000D03*
X167850000Y-102880000D03*
X167850000Y-100960000D03*
X166010000Y-99800000D03*
X163470000Y-99800000D03*
X160320000Y-99800000D03*
X150250000Y-99800000D03*
X147720000Y-99800000D03*
X130890000Y-104850000D03*
X130890000Y-102880000D03*
X130890000Y-100960000D03*
X132420000Y-99800000D03*
X134560000Y-99800000D03*
X136620000Y-99800000D03*
X138220000Y-102480000D03*
X144060000Y-110590000D03*
X144390000Y-108600000D03*
X149810000Y-106170000D03*
X151940000Y-104530000D03*
X154770000Y-124210000D03*
X165810000Y-112250000D03*
X133480000Y-120100000D03*
X137730000Y-109760000D03*
X144660000Y-104540000D03*
X137730000Y-116050000D03*
D15*
X147960000Y-109790000D02*
X147960000Y-109090000D01*
X149940000Y-111770000D02*
X147960000Y-109790000D01*
X150170000Y-141390000D02*
X152500000Y-141390000D01*
X152500000Y-141390000D02*
X152540000Y-141430000D01*
X145470000Y-141380000D02*
X147890000Y-141380000D01*
X147890000Y-141380000D02*
X147900000Y-141390000D01*
X143160000Y-137521314D02*
X143160000Y-141380000D01*
X143140000Y-136280000D02*
X143140000Y-137501314D01*
X143140000Y-137501314D02*
X143160000Y-137521314D01*
X144360000Y-125540000D02*
X144360000Y-131270000D01*
X144360000Y-131270000D02*
X144340000Y-131290000D01*
X137268528Y-130380000D02*
X138740000Y-130380000D01*
X138740000Y-130380000D02*
X140160000Y-128960000D01*
X136400000Y-130360000D02*
X137248528Y-130360000D01*
X137248528Y-130360000D02*
X137268528Y-130380000D01*
X134860000Y-129520000D02*
X141250000Y-123130000D01*
X141250000Y-123130000D02*
X141250000Y-119780000D01*
X134860000Y-131460000D02*
X134860000Y-129520000D01*
X135270000Y-131870000D02*
X134860000Y-131460000D01*
X136430000Y-131870000D02*
X135270000Y-131870000D01*
X133378528Y-130330000D02*
X136370000Y-130330000D01*
X136370000Y-130330000D02*
X136400000Y-130360000D01*
X132500000Y-130360000D02*
X133348528Y-130360000D01*
X133348528Y-130360000D02*
X133378528Y-130330000D01*
X158068528Y-122310000D02*
X159390000Y-122310000D01*
X157220000Y-122310000D02*
X158068528Y-122310000D01*
X159290000Y-117518528D02*
X159290000Y-120620000D01*
X159290000Y-116670000D02*
X159290000Y-117518528D01*
X157790000Y-116640000D02*
X159260000Y-116640000D01*
X159260000Y-116640000D02*
X159290000Y-116670000D01*
X167850000Y-103010000D02*
X167850000Y-105030000D01*
X167850000Y-100910000D02*
X167850000Y-103010000D01*
X163470000Y-99800000D02*
X166010000Y-99800000D01*
X150250000Y-99760000D02*
X160260000Y-99760000D01*
X160260000Y-99760000D02*
X160320000Y-99820000D01*
X136620000Y-99820000D02*
X147660000Y-99820000D01*
X147660000Y-99820000D02*
X147720000Y-99760000D01*
X130890000Y-100960000D02*
X130890000Y-102850000D01*
X130890000Y-102850000D02*
X130860000Y-102880000D01*
X133711472Y-99800000D02*
X132420000Y-99800000D01*
X134560000Y-99800000D02*
X133711472Y-99800000D01*
X138220000Y-102480000D02*
X136620000Y-100880000D01*
X136620000Y-100880000D02*
X136620000Y-99820000D01*
X150736399Y-133713601D02*
X149410000Y-135040000D01*
X139040000Y-135340000D02*
X139000000Y-135340000D01*
X149440000Y-135010000D02*
X139320000Y-135010000D01*
X139313601Y-135066399D02*
X139040000Y-135340000D01*
X139000000Y-135340000D02*
X138060000Y-136280000D01*
X150730000Y-132230000D02*
X150760000Y-132260000D01*
X150760000Y-132260000D02*
X150760000Y-133740000D01*
X151740000Y-131220000D02*
X150730000Y-132230000D01*
X155150000Y-131220000D02*
X151740000Y-131220000D01*
X155840000Y-131910000D02*
X155150000Y-131220000D01*
X155840000Y-133740000D02*
X155840000Y-131910000D01*
X143140000Y-133740000D02*
X143140000Y-124810000D01*
X145060000Y-111590000D02*
X144060000Y-110590000D01*
X145060000Y-122890000D02*
X145060000Y-111590000D01*
X143140000Y-124810000D02*
X145060000Y-122890000D01*
X145680000Y-133740000D02*
X145680000Y-125820000D01*
X144670000Y-108600000D02*
X144390000Y-108600000D01*
X147220000Y-111150000D02*
X144670000Y-108600000D01*
X147220000Y-124280000D02*
X147220000Y-111150000D01*
X145680000Y-125820000D02*
X147220000Y-124280000D01*
X149810000Y-106170000D02*
X152120000Y-108480000D01*
X156490000Y-130250000D02*
X162480000Y-130250000D01*
X152120000Y-108480000D02*
X152120000Y-125880000D01*
X152120000Y-125880000D02*
X156490000Y-130250000D01*
X162480000Y-130250000D02*
X164800000Y-132570000D01*
X164800000Y-132570000D02*
X164800000Y-136800000D01*
X164800000Y-136800000D02*
X162690000Y-138910000D01*
X162690000Y-138910000D02*
X151810000Y-138910000D01*
X151810000Y-138910000D02*
X150760000Y-137860000D01*
X150760000Y-137860000D02*
X150760000Y-136280000D01*
X153950000Y-106440000D02*
X152040000Y-104530000D01*
X152040000Y-104530000D02*
X151940000Y-104530000D01*
X153950000Y-122541472D02*
X153950000Y-106440000D01*
X154770000Y-124210000D02*
X154770000Y-123361472D01*
X154770000Y-123361472D02*
X153950000Y-122541472D01*
X137730000Y-109760000D02*
X137730000Y-108911472D01*
X138660000Y-107981472D02*
X138660000Y-104340000D01*
X137730000Y-108911472D02*
X138660000Y-107981472D01*
X138660000Y-104340000D02*
X140440000Y-102560000D01*
X140440000Y-102560000D02*
X162500000Y-102560000D01*
X162500000Y-102560000D02*
X163680000Y-103740000D01*
X163680000Y-103740000D02*
X163680000Y-110120000D01*
X163680000Y-110120000D02*
X165810000Y-112250000D01*
X133480000Y-114858528D02*
X133480000Y-120100000D01*
X137730000Y-109760000D02*
X137730000Y-110608528D01*
X137730000Y-110608528D02*
X133480000Y-114858528D01*
X141030000Y-104570000D02*
X144630000Y-104570000D01*
X144630000Y-104570000D02*
X144660000Y-104540000D01*
X140018528Y-105581472D02*
X141030000Y-104570000D01*
X140018528Y-114610000D02*
X140018528Y-105581472D01*
X137730000Y-116050000D02*
X138578528Y-116050000D01*
X138578528Y-116050000D02*
X140018528Y-114610000D01*
D16*
G36*
X168760000Y-99116651D02*
X168760000Y-149450000D01*
X130040000Y-149450000D01*
X130040000Y-149190000D01*
X130039005Y-149185000D01*
X130040000Y-149180000D01*
X130040000Y-145310854D01*
X131314457Y-145310854D01*
X131790727Y-146463515D01*
X132671847Y-147346174D01*
X133823674Y-147824454D01*
X135070854Y-147825543D01*
X136223515Y-147349273D01*
X137106174Y-146468153D01*
X137561812Y-145370854D01*
X161454457Y-145370854D01*
X161930727Y-146523515D01*
X162811847Y-147406174D01*
X163963674Y-147884454D01*
X165210854Y-147885543D01*
X166363515Y-147409273D01*
X167246174Y-146528153D01*
X167724454Y-145376326D01*
X167725543Y-144129146D01*
X167249273Y-142976485D01*
X166368153Y-142093826D01*
X165216326Y-141615546D01*
X163969146Y-141614457D01*
X162816485Y-142090727D01*
X161933826Y-142971847D01*
X161455546Y-144123674D01*
X161454457Y-145370854D01*
X137561812Y-145370854D01*
X137584454Y-145316326D01*
X137585543Y-144069146D01*
X137109273Y-142916485D01*
X136228153Y-142033826D01*
X135076326Y-141555546D01*
X133829146Y-141554457D01*
X132676485Y-142030727D01*
X131793826Y-142911847D01*
X131315546Y-144063674D01*
X131314457Y-145310854D01*
X130040000Y-145310854D01*
X130040000Y-133740000D01*
X136532041Y-133740000D01*
X136646115Y-134313489D01*
X136970971Y-134799670D01*
X136984642Y-134808805D01*
X136961083Y-134813238D01*
X136744959Y-134952310D01*
X136599969Y-135164510D01*
X136548960Y-135416400D01*
X136548960Y-137143600D01*
X136593238Y-137378917D01*
X136732310Y-137595041D01*
X136944510Y-137740031D01*
X137196400Y-137791040D01*
X138923600Y-137791040D01*
X139158917Y-137746762D01*
X139375041Y-137607690D01*
X139520031Y-137395490D01*
X139528908Y-137351655D01*
X139997152Y-137664526D01*
X140570641Y-137778600D01*
X140629359Y-137778600D01*
X141202848Y-137664526D01*
X141689029Y-137339670D01*
X141869992Y-137068839D01*
X142251510Y-137486821D01*
X142780973Y-137734968D01*
X143013000Y-137614469D01*
X143013000Y-136407000D01*
X142993000Y-136407000D01*
X142993000Y-136153000D01*
X143013000Y-136153000D01*
X143013000Y-136133000D01*
X143267000Y-136133000D01*
X143267000Y-136153000D01*
X143287000Y-136153000D01*
X143287000Y-136407000D01*
X143267000Y-136407000D01*
X143267000Y-137614469D01*
X143499027Y-137734968D01*
X144028490Y-137486821D01*
X144410008Y-137068839D01*
X144590971Y-137339670D01*
X145077152Y-137664526D01*
X145650641Y-137778600D01*
X145709359Y-137778600D01*
X146282848Y-137664526D01*
X146769029Y-137339670D01*
X146949992Y-137068839D01*
X147331510Y-137486821D01*
X147860973Y-137734968D01*
X148093000Y-137614469D01*
X148093000Y-136407000D01*
X148073000Y-136407000D01*
X148073000Y-136153000D01*
X148093000Y-136153000D01*
X148093000Y-136133000D01*
X148347000Y-136133000D01*
X148347000Y-136153000D01*
X148367000Y-136153000D01*
X148367000Y-136407000D01*
X148347000Y-136407000D01*
X148347000Y-137614469D01*
X148579027Y-137734968D01*
X149108490Y-137486821D01*
X149490008Y-137068839D01*
X149670971Y-137339670D01*
X149975000Y-137542816D01*
X149975000Y-137860000D01*
X150034755Y-138160407D01*
X150204921Y-138415079D01*
X151254921Y-139465079D01*
X151509593Y-139635245D01*
X151810000Y-139695000D01*
X162690000Y-139695000D01*
X162990407Y-139635245D01*
X163245079Y-139465079D01*
X165355079Y-137355079D01*
X165525245Y-137100406D01*
X165585001Y-136800000D01*
X165585000Y-136799995D01*
X165585000Y-132570000D01*
X165525245Y-132269594D01*
X165355079Y-132014921D01*
X165355076Y-132014919D01*
X163035079Y-129694921D01*
X162780407Y-129524755D01*
X162480000Y-129465000D01*
X156815158Y-129465000D01*
X152905000Y-125554842D01*
X152905000Y-108480000D01*
X152880413Y-108356393D01*
X152845245Y-108179593D01*
X152675079Y-107924921D01*
X151044892Y-106294734D01*
X151045214Y-105925421D01*
X150857592Y-105471343D01*
X150510485Y-105123629D01*
X150056734Y-104935215D01*
X149565421Y-104934786D01*
X149111343Y-105122408D01*
X148763629Y-105469515D01*
X148575215Y-105923266D01*
X148574786Y-106414579D01*
X148762408Y-106868657D01*
X149109515Y-107216371D01*
X149563266Y-107404785D01*
X149934952Y-107405110D01*
X151335000Y-108805158D01*
X151335000Y-125880000D01*
X151394755Y-126180407D01*
X151564921Y-126435079D01*
X155934921Y-130805079D01*
X156189593Y-130975245D01*
X156490000Y-131035000D01*
X162154842Y-131035000D01*
X164015000Y-132895157D01*
X164015000Y-136474842D01*
X162364842Y-138125000D01*
X152135158Y-138125000D01*
X151549780Y-137539622D01*
X151849029Y-137339670D01*
X152030000Y-137068828D01*
X152210971Y-137339670D01*
X152697152Y-137664526D01*
X153270641Y-137778600D01*
X153329359Y-137778600D01*
X153902848Y-137664526D01*
X154389029Y-137339670D01*
X154570000Y-137068828D01*
X154750971Y-137339670D01*
X155237152Y-137664526D01*
X155810641Y-137778600D01*
X155869359Y-137778600D01*
X156442848Y-137664526D01*
X156929029Y-137339670D01*
X157109992Y-137068839D01*
X157491510Y-137486821D01*
X158020973Y-137734968D01*
X158253000Y-137614469D01*
X158253000Y-136407000D01*
X158233000Y-136407000D01*
X158233000Y-136153000D01*
X158253000Y-136153000D01*
X158253000Y-136133000D01*
X158507000Y-136133000D01*
X158507000Y-136153000D01*
X158527000Y-136153000D01*
X158527000Y-136407000D01*
X158507000Y-136407000D01*
X158507000Y-137614469D01*
X158739027Y-137734968D01*
X159268490Y-137486821D01*
X159650008Y-137068839D01*
X159830971Y-137339670D01*
X160317152Y-137664526D01*
X160890641Y-137778600D01*
X160949359Y-137778600D01*
X161522848Y-137664526D01*
X162009029Y-137339670D01*
X162333885Y-136853489D01*
X162447959Y-136280000D01*
X162333885Y-135706511D01*
X162009029Y-135220330D01*
X161694248Y-135010000D01*
X162009029Y-134799670D01*
X162333885Y-134313489D01*
X162447959Y-133740000D01*
X162333885Y-133166511D01*
X162009029Y-132680330D01*
X161522848Y-132355474D01*
X160949359Y-132241400D01*
X160890641Y-132241400D01*
X160317152Y-132355474D01*
X159830971Y-132680330D01*
X159650000Y-132951172D01*
X159469029Y-132680330D01*
X158982848Y-132355474D01*
X158409359Y-132241400D01*
X158350641Y-132241400D01*
X157777152Y-132355474D01*
X157290971Y-132680330D01*
X157110000Y-132951172D01*
X156929029Y-132680330D01*
X156625000Y-132477184D01*
X156625000Y-131910000D01*
X156584207Y-131704921D01*
X156565245Y-131609593D01*
X156395079Y-131354921D01*
X155705079Y-130664921D01*
X155450407Y-130494755D01*
X155150000Y-130435000D01*
X151740000Y-130435000D01*
X151439594Y-130494755D01*
X151184921Y-130664921D01*
X150174921Y-131674921D01*
X150004755Y-131929593D01*
X149945000Y-132230000D01*
X149975000Y-132380819D01*
X149975000Y-132477184D01*
X149670971Y-132680330D01*
X149490000Y-132951172D01*
X149309029Y-132680330D01*
X148822848Y-132355474D01*
X148249359Y-132241400D01*
X148190641Y-132241400D01*
X147617152Y-132355474D01*
X147130971Y-132680330D01*
X146950000Y-132951172D01*
X146769029Y-132680330D01*
X146465000Y-132477184D01*
X146465000Y-126145158D01*
X147775079Y-124835079D01*
X147945245Y-124580406D01*
X148005000Y-124280000D01*
X148005000Y-111150005D01*
X148005001Y-111150000D01*
X147954137Y-110894295D01*
X148705108Y-111645266D01*
X148704786Y-112014579D01*
X148892408Y-112468657D01*
X149239515Y-112816371D01*
X149693266Y-113004785D01*
X150184579Y-113005214D01*
X150638657Y-112817592D01*
X150986371Y-112470485D01*
X151174785Y-112016734D01*
X151175214Y-111525421D01*
X150987592Y-111071343D01*
X150640485Y-110723629D01*
X150186734Y-110535215D01*
X149815048Y-110534890D01*
X149025229Y-109745071D01*
X149194785Y-109336734D01*
X149195214Y-108845421D01*
X149007592Y-108391343D01*
X148660485Y-108043629D01*
X148206734Y-107855215D01*
X147715421Y-107854786D01*
X147261343Y-108042408D01*
X146913629Y-108389515D01*
X146725215Y-108843266D01*
X146724786Y-109334579D01*
X146872690Y-109692532D01*
X145625136Y-108444978D01*
X145625214Y-108355421D01*
X145437592Y-107901343D01*
X145090485Y-107553629D01*
X144636734Y-107365215D01*
X144145421Y-107364786D01*
X143691343Y-107552408D01*
X143343629Y-107899515D01*
X143155215Y-108353266D01*
X143154786Y-108844579D01*
X143342408Y-109298657D01*
X143520207Y-109476767D01*
X143361343Y-109542408D01*
X143013629Y-109889515D01*
X142825215Y-110343266D01*
X142824786Y-110834579D01*
X143012408Y-111288657D01*
X143359515Y-111636371D01*
X143813266Y-111824785D01*
X144184952Y-111825110D01*
X144275000Y-111915158D01*
X144275000Y-122564842D01*
X142584921Y-124254921D01*
X142414755Y-124509593D01*
X142414755Y-124509594D01*
X142355000Y-124810000D01*
X142355000Y-132477184D01*
X142050971Y-132680330D01*
X141870000Y-132951172D01*
X141689029Y-132680330D01*
X141202848Y-132355474D01*
X140629359Y-132241400D01*
X140570641Y-132241400D01*
X139997152Y-132355474D01*
X139510971Y-132680330D01*
X139330000Y-132951172D01*
X139149029Y-132680330D01*
X138662848Y-132355474D01*
X138089359Y-132241400D01*
X138030641Y-132241400D01*
X137457152Y-132355474D01*
X136970971Y-132680330D01*
X136646115Y-133166511D01*
X136532041Y-133740000D01*
X130040000Y-133740000D01*
X130040000Y-124900854D01*
X131314457Y-124900854D01*
X131790727Y-126053515D01*
X132671847Y-126936174D01*
X133823674Y-127414454D01*
X135070854Y-127415543D01*
X136223515Y-126939273D01*
X137106174Y-126058153D01*
X137584454Y-124906326D01*
X137585543Y-123659146D01*
X137109273Y-122506485D01*
X136228153Y-121623826D01*
X135076326Y-121145546D01*
X134181489Y-121144765D01*
X134526371Y-120800485D01*
X134714785Y-120346734D01*
X134715214Y-119855421D01*
X134527592Y-119401343D01*
X134265000Y-119138292D01*
X134265000Y-115183686D01*
X138285079Y-111163607D01*
X138455245Y-110908934D01*
X138486986Y-110749365D01*
X138776371Y-110460485D01*
X138964785Y-110006734D01*
X138965214Y-109515421D01*
X138777592Y-109061343D01*
X138733978Y-109017652D01*
X139215079Y-108536551D01*
X139233528Y-108508940D01*
X139233528Y-114284843D01*
X138472576Y-115045794D01*
X138430485Y-115003629D01*
X137976734Y-114815215D01*
X137485421Y-114814786D01*
X137031343Y-115002408D01*
X136683629Y-115349515D01*
X136495215Y-115803266D01*
X136494786Y-116294579D01*
X136682408Y-116748657D01*
X137029515Y-117096371D01*
X137483266Y-117284785D01*
X137974579Y-117285214D01*
X138428657Y-117097592D01*
X138719873Y-116806885D01*
X138878935Y-116775245D01*
X139133607Y-116605079D01*
X140573604Y-115165081D01*
X140573607Y-115165079D01*
X140743773Y-114910406D01*
X140762793Y-114814786D01*
X140803529Y-114610000D01*
X140803528Y-114609995D01*
X140803528Y-105906630D01*
X141355158Y-105355000D01*
X143728548Y-105355000D01*
X143959515Y-105586371D01*
X144413266Y-105774785D01*
X144904579Y-105775214D01*
X145358657Y-105587592D01*
X145706371Y-105240485D01*
X145894785Y-104786734D01*
X145895214Y-104295421D01*
X145707592Y-103841343D01*
X145360485Y-103493629D01*
X145002547Y-103345000D01*
X151573894Y-103345000D01*
X151241343Y-103482408D01*
X150893629Y-103829515D01*
X150705215Y-104283266D01*
X150704786Y-104774579D01*
X150892408Y-105228657D01*
X151239515Y-105576371D01*
X151693266Y-105764785D01*
X152165039Y-105765197D01*
X153165000Y-106765158D01*
X153165000Y-122541472D01*
X153224755Y-122841879D01*
X153394921Y-123096551D01*
X153765794Y-123467424D01*
X153723629Y-123509515D01*
X153535215Y-123963266D01*
X153534786Y-124454579D01*
X153722408Y-124908657D01*
X154069515Y-125256371D01*
X154523266Y-125444785D01*
X155014579Y-125445214D01*
X155468657Y-125257592D01*
X155816371Y-124910485D01*
X155820370Y-124900854D01*
X161454457Y-124900854D01*
X161930727Y-126053515D01*
X162811847Y-126936174D01*
X163963674Y-127414454D01*
X165210854Y-127415543D01*
X166363515Y-126939273D01*
X167246174Y-126058153D01*
X167724454Y-124906326D01*
X167725543Y-123659146D01*
X167249273Y-122506485D01*
X166368153Y-121623826D01*
X165216326Y-121145546D01*
X163969146Y-121144457D01*
X162816485Y-121620727D01*
X161933826Y-122501847D01*
X161455546Y-123653674D01*
X161454457Y-124900854D01*
X155820370Y-124900854D01*
X156004785Y-124456734D01*
X156005214Y-123965421D01*
X155817592Y-123511343D01*
X155526885Y-123220127D01*
X155515403Y-123162408D01*
X155495245Y-123061065D01*
X155325079Y-122806393D01*
X154735000Y-122216314D01*
X154735000Y-106440000D01*
X154675245Y-106139594D01*
X154505079Y-105884921D01*
X153174979Y-104554821D01*
X153175214Y-104285421D01*
X152987592Y-103831343D01*
X152640485Y-103483629D01*
X152306630Y-103345000D01*
X162174842Y-103345000D01*
X162895000Y-104065158D01*
X162895000Y-110120000D01*
X162954755Y-110420407D01*
X163124921Y-110675079D01*
X164575108Y-112125266D01*
X164574786Y-112494579D01*
X164762408Y-112948657D01*
X165109515Y-113296371D01*
X165563266Y-113484785D01*
X166054579Y-113485214D01*
X166508657Y-113297592D01*
X166856371Y-112950485D01*
X167044785Y-112496734D01*
X167045214Y-112005421D01*
X166857592Y-111551343D01*
X166510485Y-111203629D01*
X166056734Y-111015215D01*
X165685048Y-111014890D01*
X164465000Y-109794842D01*
X164465000Y-103740000D01*
X164415993Y-103493629D01*
X164405245Y-103439593D01*
X164235079Y-103184921D01*
X163055079Y-102004921D01*
X162800407Y-101834755D01*
X162500000Y-101775000D01*
X140440000Y-101775000D01*
X140139593Y-101834755D01*
X139884921Y-102004921D01*
X138104921Y-103784921D01*
X137934755Y-104039593D01*
X137884296Y-104293266D01*
X137875000Y-104340000D01*
X137875000Y-107656314D01*
X137174921Y-108356393D01*
X137004755Y-108611065D01*
X136973014Y-108770635D01*
X136683629Y-109059515D01*
X136495215Y-109513266D01*
X136494786Y-110004579D01*
X136682408Y-110458657D01*
X136726022Y-110502348D01*
X132924921Y-114303449D01*
X132754755Y-114558121D01*
X132754755Y-114558122D01*
X132695000Y-114858528D01*
X132695000Y-119138600D01*
X132433629Y-119399515D01*
X132245215Y-119853266D01*
X132244786Y-120344579D01*
X132432408Y-120798657D01*
X132779515Y-121146371D01*
X133233266Y-121334785D01*
X133368232Y-121334903D01*
X132676485Y-121620727D01*
X131793826Y-122501847D01*
X131315546Y-123653674D01*
X131314457Y-124900854D01*
X130040000Y-124900854D01*
X130040000Y-99097334D01*
X168760000Y-99116651D01*
X168760000Y-99116651D01*
G37*
X168760000Y-99116651D02*
X168760000Y-149450000D01*
X130040000Y-149450000D01*
X130040000Y-149190000D01*
X130039005Y-149185000D01*
X130040000Y-149180000D01*
X130040000Y-145310854D01*
X131314457Y-145310854D01*
X131790727Y-146463515D01*
X132671847Y-147346174D01*
X133823674Y-147824454D01*
X135070854Y-147825543D01*
X136223515Y-147349273D01*
X137106174Y-146468153D01*
X137561812Y-145370854D01*
X161454457Y-145370854D01*
X161930727Y-146523515D01*
X162811847Y-147406174D01*
X163963674Y-147884454D01*
X165210854Y-147885543D01*
X166363515Y-147409273D01*
X167246174Y-146528153D01*
X167724454Y-145376326D01*
X167725543Y-144129146D01*
X167249273Y-142976485D01*
X166368153Y-142093826D01*
X165216326Y-141615546D01*
X163969146Y-141614457D01*
X162816485Y-142090727D01*
X161933826Y-142971847D01*
X161455546Y-144123674D01*
X161454457Y-145370854D01*
X137561812Y-145370854D01*
X137584454Y-145316326D01*
X137585543Y-144069146D01*
X137109273Y-142916485D01*
X136228153Y-142033826D01*
X135076326Y-141555546D01*
X133829146Y-141554457D01*
X132676485Y-142030727D01*
X131793826Y-142911847D01*
X131315546Y-144063674D01*
X131314457Y-145310854D01*
X130040000Y-145310854D01*
X130040000Y-133740000D01*
X136532041Y-133740000D01*
X136646115Y-134313489D01*
X136970971Y-134799670D01*
X136984642Y-134808805D01*
X136961083Y-134813238D01*
X136744959Y-134952310D01*
X136599969Y-135164510D01*
X136548960Y-135416400D01*
X136548960Y-137143600D01*
X136593238Y-137378917D01*
X136732310Y-137595041D01*
X136944510Y-137740031D01*
X137196400Y-137791040D01*
X138923600Y-137791040D01*
X139158917Y-137746762D01*
X139375041Y-137607690D01*
X139520031Y-137395490D01*
X139528908Y-137351655D01*
X139997152Y-137664526D01*
X140570641Y-137778600D01*
X140629359Y-137778600D01*
X141202848Y-137664526D01*
X141689029Y-137339670D01*
X141869992Y-137068839D01*
X142251510Y-137486821D01*
X142780973Y-137734968D01*
X143013000Y-137614469D01*
X143013000Y-136407000D01*
X142993000Y-136407000D01*
X142993000Y-136153000D01*
X143013000Y-136153000D01*
X143013000Y-136133000D01*
X143267000Y-136133000D01*
X143267000Y-136153000D01*
X143287000Y-136153000D01*
X143287000Y-136407000D01*
X143267000Y-136407000D01*
X143267000Y-137614469D01*
X143499027Y-137734968D01*
X144028490Y-137486821D01*
X144410008Y-137068839D01*
X144590971Y-137339670D01*
X145077152Y-137664526D01*
X145650641Y-137778600D01*
X145709359Y-137778600D01*
X146282848Y-137664526D01*
X146769029Y-137339670D01*
X146949992Y-137068839D01*
X147331510Y-137486821D01*
X147860973Y-137734968D01*
X148093000Y-137614469D01*
X148093000Y-136407000D01*
X148073000Y-136407000D01*
X148073000Y-136153000D01*
X148093000Y-136153000D01*
X148093000Y-136133000D01*
X148347000Y-136133000D01*
X148347000Y-136153000D01*
X148367000Y-136153000D01*
X148367000Y-136407000D01*
X148347000Y-136407000D01*
X148347000Y-137614469D01*
X148579027Y-137734968D01*
X149108490Y-137486821D01*
X149490008Y-137068839D01*
X149670971Y-137339670D01*
X149975000Y-137542816D01*
X149975000Y-137860000D01*
X150034755Y-138160407D01*
X150204921Y-138415079D01*
X151254921Y-139465079D01*
X151509593Y-139635245D01*
X151810000Y-139695000D01*
X162690000Y-139695000D01*
X162990407Y-139635245D01*
X163245079Y-139465079D01*
X165355079Y-137355079D01*
X165525245Y-137100406D01*
X165585001Y-136800000D01*
X165585000Y-136799995D01*
X165585000Y-132570000D01*
X165525245Y-132269594D01*
X165355079Y-132014921D01*
X165355076Y-132014919D01*
X163035079Y-129694921D01*
X162780407Y-129524755D01*
X162480000Y-129465000D01*
X156815158Y-129465000D01*
X152905000Y-125554842D01*
X152905000Y-108480000D01*
X152880413Y-108356393D01*
X152845245Y-108179593D01*
X152675079Y-107924921D01*
X151044892Y-106294734D01*
X151045214Y-105925421D01*
X150857592Y-105471343D01*
X150510485Y-105123629D01*
X150056734Y-104935215D01*
X149565421Y-104934786D01*
X149111343Y-105122408D01*
X148763629Y-105469515D01*
X148575215Y-105923266D01*
X148574786Y-106414579D01*
X148762408Y-106868657D01*
X149109515Y-107216371D01*
X149563266Y-107404785D01*
X149934952Y-107405110D01*
X151335000Y-108805158D01*
X151335000Y-125880000D01*
X151394755Y-126180407D01*
X151564921Y-126435079D01*
X155934921Y-130805079D01*
X156189593Y-130975245D01*
X156490000Y-131035000D01*
X162154842Y-131035000D01*
X164015000Y-132895157D01*
X164015000Y-136474842D01*
X162364842Y-138125000D01*
X152135158Y-138125000D01*
X151549780Y-137539622D01*
X151849029Y-137339670D01*
X152030000Y-137068828D01*
X152210971Y-137339670D01*
X152697152Y-137664526D01*
X153270641Y-137778600D01*
X153329359Y-137778600D01*
X153902848Y-137664526D01*
X154389029Y-137339670D01*
X154570000Y-137068828D01*
X154750971Y-137339670D01*
X155237152Y-137664526D01*
X155810641Y-137778600D01*
X155869359Y-137778600D01*
X156442848Y-137664526D01*
X156929029Y-137339670D01*
X157109992Y-137068839D01*
X157491510Y-137486821D01*
X158020973Y-137734968D01*
X158253000Y-137614469D01*
X158253000Y-136407000D01*
X158233000Y-136407000D01*
X158233000Y-136153000D01*
X158253000Y-136153000D01*
X158253000Y-136133000D01*
X158507000Y-136133000D01*
X158507000Y-136153000D01*
X158527000Y-136153000D01*
X158527000Y-136407000D01*
X158507000Y-136407000D01*
X158507000Y-137614469D01*
X158739027Y-137734968D01*
X159268490Y-137486821D01*
X159650008Y-137068839D01*
X159830971Y-137339670D01*
X160317152Y-137664526D01*
X160890641Y-137778600D01*
X160949359Y-137778600D01*
X161522848Y-137664526D01*
X162009029Y-137339670D01*
X162333885Y-136853489D01*
X162447959Y-136280000D01*
X162333885Y-135706511D01*
X162009029Y-135220330D01*
X161694248Y-135010000D01*
X162009029Y-134799670D01*
X162333885Y-134313489D01*
X162447959Y-133740000D01*
X162333885Y-133166511D01*
X162009029Y-132680330D01*
X161522848Y-132355474D01*
X160949359Y-132241400D01*
X160890641Y-132241400D01*
X160317152Y-132355474D01*
X159830971Y-132680330D01*
X159650000Y-132951172D01*
X159469029Y-132680330D01*
X158982848Y-132355474D01*
X158409359Y-132241400D01*
X158350641Y-132241400D01*
X157777152Y-132355474D01*
X157290971Y-132680330D01*
X157110000Y-132951172D01*
X156929029Y-132680330D01*
X156625000Y-132477184D01*
X156625000Y-131910000D01*
X156584207Y-131704921D01*
X156565245Y-131609593D01*
X156395079Y-131354921D01*
X155705079Y-130664921D01*
X155450407Y-130494755D01*
X155150000Y-130435000D01*
X151740000Y-130435000D01*
X151439594Y-130494755D01*
X151184921Y-130664921D01*
X150174921Y-131674921D01*
X150004755Y-131929593D01*
X149945000Y-132230000D01*
X149975000Y-132380819D01*
X149975000Y-132477184D01*
X149670971Y-132680330D01*
X149490000Y-132951172D01*
X149309029Y-132680330D01*
X148822848Y-132355474D01*
X148249359Y-132241400D01*
X148190641Y-132241400D01*
X147617152Y-132355474D01*
X147130971Y-132680330D01*
X146950000Y-132951172D01*
X146769029Y-132680330D01*
X146465000Y-132477184D01*
X146465000Y-126145158D01*
X147775079Y-124835079D01*
X147945245Y-124580406D01*
X148005000Y-124280000D01*
X148005000Y-111150005D01*
X148005001Y-111150000D01*
X147954137Y-110894295D01*
X148705108Y-111645266D01*
X148704786Y-112014579D01*
X148892408Y-112468657D01*
X149239515Y-112816371D01*
X149693266Y-113004785D01*
X150184579Y-113005214D01*
X150638657Y-112817592D01*
X150986371Y-112470485D01*
X151174785Y-112016734D01*
X151175214Y-111525421D01*
X150987592Y-111071343D01*
X150640485Y-110723629D01*
X150186734Y-110535215D01*
X149815048Y-110534890D01*
X149025229Y-109745071D01*
X149194785Y-109336734D01*
X149195214Y-108845421D01*
X149007592Y-108391343D01*
X148660485Y-108043629D01*
X148206734Y-107855215D01*
X147715421Y-107854786D01*
X147261343Y-108042408D01*
X146913629Y-108389515D01*
X146725215Y-108843266D01*
X146724786Y-109334579D01*
X146872690Y-109692532D01*
X145625136Y-108444978D01*
X145625214Y-108355421D01*
X145437592Y-107901343D01*
X145090485Y-107553629D01*
X144636734Y-107365215D01*
X144145421Y-107364786D01*
X143691343Y-107552408D01*
X143343629Y-107899515D01*
X143155215Y-108353266D01*
X143154786Y-108844579D01*
X143342408Y-109298657D01*
X143520207Y-109476767D01*
X143361343Y-109542408D01*
X143013629Y-109889515D01*
X142825215Y-110343266D01*
X142824786Y-110834579D01*
X143012408Y-111288657D01*
X143359515Y-111636371D01*
X143813266Y-111824785D01*
X144184952Y-111825110D01*
X144275000Y-111915158D01*
X144275000Y-122564842D01*
X142584921Y-124254921D01*
X142414755Y-124509593D01*
X142414755Y-124509594D01*
X142355000Y-124810000D01*
X142355000Y-132477184D01*
X142050971Y-132680330D01*
X141870000Y-132951172D01*
X141689029Y-132680330D01*
X141202848Y-132355474D01*
X140629359Y-132241400D01*
X140570641Y-132241400D01*
X139997152Y-132355474D01*
X139510971Y-132680330D01*
X139330000Y-132951172D01*
X139149029Y-132680330D01*
X138662848Y-132355474D01*
X138089359Y-132241400D01*
X138030641Y-132241400D01*
X137457152Y-132355474D01*
X136970971Y-132680330D01*
X136646115Y-133166511D01*
X136532041Y-133740000D01*
X130040000Y-133740000D01*
X130040000Y-124900854D01*
X131314457Y-124900854D01*
X131790727Y-126053515D01*
X132671847Y-126936174D01*
X133823674Y-127414454D01*
X135070854Y-127415543D01*
X136223515Y-126939273D01*
X137106174Y-126058153D01*
X137584454Y-124906326D01*
X137585543Y-123659146D01*
X137109273Y-122506485D01*
X136228153Y-121623826D01*
X135076326Y-121145546D01*
X134181489Y-121144765D01*
X134526371Y-120800485D01*
X134714785Y-120346734D01*
X134715214Y-119855421D01*
X134527592Y-119401343D01*
X134265000Y-119138292D01*
X134265000Y-115183686D01*
X138285079Y-111163607D01*
X138455245Y-110908934D01*
X138486986Y-110749365D01*
X138776371Y-110460485D01*
X138964785Y-110006734D01*
X138965214Y-109515421D01*
X138777592Y-109061343D01*
X138733978Y-109017652D01*
X139215079Y-108536551D01*
X139233528Y-108508940D01*
X139233528Y-114284843D01*
X138472576Y-115045794D01*
X138430485Y-115003629D01*
X137976734Y-114815215D01*
X137485421Y-114814786D01*
X137031343Y-115002408D01*
X136683629Y-115349515D01*
X136495215Y-115803266D01*
X136494786Y-116294579D01*
X136682408Y-116748657D01*
X137029515Y-117096371D01*
X137483266Y-117284785D01*
X137974579Y-117285214D01*
X138428657Y-117097592D01*
X138719873Y-116806885D01*
X138878935Y-116775245D01*
X139133607Y-116605079D01*
X140573604Y-115165081D01*
X140573607Y-115165079D01*
X140743773Y-114910406D01*
X140762793Y-114814786D01*
X140803529Y-114610000D01*
X140803528Y-114609995D01*
X140803528Y-105906630D01*
X141355158Y-105355000D01*
X143728548Y-105355000D01*
X143959515Y-105586371D01*
X144413266Y-105774785D01*
X144904579Y-105775214D01*
X145358657Y-105587592D01*
X145706371Y-105240485D01*
X145894785Y-104786734D01*
X145895214Y-104295421D01*
X145707592Y-103841343D01*
X145360485Y-103493629D01*
X145002547Y-103345000D01*
X151573894Y-103345000D01*
X151241343Y-103482408D01*
X150893629Y-103829515D01*
X150705215Y-104283266D01*
X150704786Y-104774579D01*
X150892408Y-105228657D01*
X151239515Y-105576371D01*
X151693266Y-105764785D01*
X152165039Y-105765197D01*
X153165000Y-106765158D01*
X153165000Y-122541472D01*
X153224755Y-122841879D01*
X153394921Y-123096551D01*
X153765794Y-123467424D01*
X153723629Y-123509515D01*
X153535215Y-123963266D01*
X153534786Y-124454579D01*
X153722408Y-124908657D01*
X154069515Y-125256371D01*
X154523266Y-125444785D01*
X155014579Y-125445214D01*
X155468657Y-125257592D01*
X155816371Y-124910485D01*
X155820370Y-124900854D01*
X161454457Y-124900854D01*
X161930727Y-126053515D01*
X162811847Y-126936174D01*
X163963674Y-127414454D01*
X165210854Y-127415543D01*
X166363515Y-126939273D01*
X167246174Y-126058153D01*
X167724454Y-124906326D01*
X167725543Y-123659146D01*
X167249273Y-122506485D01*
X166368153Y-121623826D01*
X165216326Y-121145546D01*
X163969146Y-121144457D01*
X162816485Y-121620727D01*
X161933826Y-122501847D01*
X161455546Y-123653674D01*
X161454457Y-124900854D01*
X155820370Y-124900854D01*
X156004785Y-124456734D01*
X156005214Y-123965421D01*
X155817592Y-123511343D01*
X155526885Y-123220127D01*
X155515403Y-123162408D01*
X155495245Y-123061065D01*
X155325079Y-122806393D01*
X154735000Y-122216314D01*
X154735000Y-106440000D01*
X154675245Y-106139594D01*
X154505079Y-105884921D01*
X153174979Y-104554821D01*
X153175214Y-104285421D01*
X152987592Y-103831343D01*
X152640485Y-103483629D01*
X152306630Y-103345000D01*
X162174842Y-103345000D01*
X162895000Y-104065158D01*
X162895000Y-110120000D01*
X162954755Y-110420407D01*
X163124921Y-110675079D01*
X164575108Y-112125266D01*
X164574786Y-112494579D01*
X164762408Y-112948657D01*
X165109515Y-113296371D01*
X165563266Y-113484785D01*
X166054579Y-113485214D01*
X166508657Y-113297592D01*
X166856371Y-112950485D01*
X167044785Y-112496734D01*
X167045214Y-112005421D01*
X166857592Y-111551343D01*
X166510485Y-111203629D01*
X166056734Y-111015215D01*
X165685048Y-111014890D01*
X164465000Y-109794842D01*
X164465000Y-103740000D01*
X164415993Y-103493629D01*
X164405245Y-103439593D01*
X164235079Y-103184921D01*
X163055079Y-102004921D01*
X162800407Y-101834755D01*
X162500000Y-101775000D01*
X140440000Y-101775000D01*
X140139593Y-101834755D01*
X139884921Y-102004921D01*
X138104921Y-103784921D01*
X137934755Y-104039593D01*
X137884296Y-104293266D01*
X137875000Y-104340000D01*
X137875000Y-107656314D01*
X137174921Y-108356393D01*
X137004755Y-108611065D01*
X136973014Y-108770635D01*
X136683629Y-109059515D01*
X136495215Y-109513266D01*
X136494786Y-110004579D01*
X136682408Y-110458657D01*
X136726022Y-110502348D01*
X132924921Y-114303449D01*
X132754755Y-114558121D01*
X132754755Y-114558122D01*
X132695000Y-114858528D01*
X132695000Y-119138600D01*
X132433629Y-119399515D01*
X132245215Y-119853266D01*
X132244786Y-120344579D01*
X132432408Y-120798657D01*
X132779515Y-121146371D01*
X133233266Y-121334785D01*
X133368232Y-121334903D01*
X132676485Y-121620727D01*
X131793826Y-122501847D01*
X131315546Y-123653674D01*
X131314457Y-124900854D01*
X130040000Y-124900854D01*
X130040000Y-99097334D01*
X168760000Y-99116651D01*
G36*
X146435000Y-111475158D02*
X146435000Y-123954842D01*
X145124921Y-125264921D01*
X144954755Y-125519593D01*
X144954755Y-125519594D01*
X144895000Y-125820000D01*
X144895000Y-132477184D01*
X144590971Y-132680330D01*
X144410000Y-132951172D01*
X144229029Y-132680330D01*
X143925000Y-132477184D01*
X143925000Y-125135158D01*
X145615079Y-123445079D01*
X145785245Y-123190407D01*
X145845000Y-122890000D01*
X145845000Y-111590005D01*
X145845001Y-111590000D01*
X145785245Y-111289594D01*
X145615079Y-111034921D01*
X145294892Y-110714734D01*
X145295214Y-110345421D01*
X145288138Y-110328296D01*
X146435000Y-111475158D01*
X146435000Y-111475158D01*
G37*
X146435000Y-111475158D02*
X146435000Y-123954842D01*
X145124921Y-125264921D01*
X144954755Y-125519593D01*
X144954755Y-125519594D01*
X144895000Y-125820000D01*
X144895000Y-132477184D01*
X144590971Y-132680330D01*
X144410000Y-132951172D01*
X144229029Y-132680330D01*
X143925000Y-132477184D01*
X143925000Y-125135158D01*
X145615079Y-123445079D01*
X145785245Y-123190407D01*
X145845000Y-122890000D01*
X145845000Y-111590005D01*
X145845001Y-111590000D01*
X145785245Y-111289594D01*
X145615079Y-111034921D01*
X145294892Y-110714734D01*
X145295214Y-110345421D01*
X145288138Y-110328296D01*
X146435000Y-111475158D01*
M02*
