G04 #@! TF.FileFunction,Copper,L1,Top,Signal*
%FSLAX46Y46*%
G04 Gerber Fmt 4.6, Leading zero omitted, Abs format (unit mm)*
G04 Created by KiCad (PCBNEW 4.0.6) date 07/10/17 09:04:08*
%MOMM*%
%LPD*%
G01*
G04 APERTURE LIST*
%ADD10C,0.100000*%
%ADD11C,5.000000*%
%ADD12R,1.727200X1.727200*%
%ADD13O,1.727200X1.727200*%
%ADD14R,3.000000X1.200000*%
%ADD15R,0.750000X1.200000*%
%ADD16R,1.200000X0.750000*%
%ADD17R,1.200000X1.200000*%
%ADD18R,1.900000X0.800000*%
%ADD19R,0.800000X1.900000*%
%ADD20R,0.900000X1.200000*%
%ADD21R,1.200000X0.900000*%
%ADD22C,1.200000*%
%ADD23C,0.500000*%
%ADD24C,0.300000*%
%ADD25C,0.254000*%
G04 APERTURE END LIST*
D10*
D11*
X164590000Y-144750000D03*
X134450000Y-144690000D03*
D12*
X138060000Y-136280000D03*
D13*
X138060000Y-133740000D03*
X140600000Y-136280000D03*
X140600000Y-133740000D03*
X143140000Y-136280000D03*
X143140000Y-133740000D03*
X145680000Y-136280000D03*
X145680000Y-133740000D03*
X148220000Y-136280000D03*
X148220000Y-133740000D03*
X150760000Y-136280000D03*
X150760000Y-133740000D03*
X153300000Y-136280000D03*
X153300000Y-133740000D03*
X155840000Y-136280000D03*
X155840000Y-133740000D03*
X158380000Y-136280000D03*
X158380000Y-133740000D03*
X160920000Y-136280000D03*
X160920000Y-133740000D03*
D14*
X141031100Y-114523600D03*
X157031100Y-114523600D03*
X141031100Y-112523600D03*
X157031100Y-112523600D03*
X141031100Y-110523600D03*
X157031100Y-110523600D03*
X141031100Y-108523600D03*
X157031100Y-108523600D03*
X141031100Y-106523600D03*
X157031100Y-106523600D03*
X141031100Y-104523600D03*
X157031100Y-104523600D03*
X141031100Y-102523600D03*
X157031100Y-102523600D03*
X141031100Y-100523600D03*
X157031100Y-100523600D03*
D11*
X164590000Y-124280000D03*
X134450000Y-124280000D03*
D15*
X136550000Y-102940000D03*
X136550000Y-104840000D03*
D16*
X161550000Y-108740000D03*
X163450000Y-108740000D03*
X135520000Y-111020000D03*
X133620000Y-111020000D03*
X135520000Y-113120000D03*
X133620000Y-113120000D03*
D17*
X161400000Y-113770000D03*
X163600000Y-113770000D03*
D18*
X133600000Y-107180000D03*
X133600000Y-109080000D03*
X136600000Y-108130000D03*
D19*
X161550000Y-106120000D03*
X163450000Y-106120000D03*
X162500000Y-103120000D03*
D20*
X134610000Y-105070000D03*
X134610000Y-102870000D03*
D21*
X135750000Y-118570000D03*
X133550000Y-118570000D03*
X161550000Y-110830000D03*
X163750000Y-110830000D03*
X133510000Y-116050000D03*
X135710000Y-116050000D03*
X161510000Y-118410000D03*
X163710000Y-118410000D03*
X163600000Y-116170000D03*
X161400000Y-116170000D03*
D22*
X147960000Y-109090000D03*
X149940000Y-111770000D03*
X152540000Y-141430000D03*
X150170000Y-141390000D03*
X147900000Y-141390000D03*
X145470000Y-141380000D03*
X143160000Y-141380000D03*
X144360000Y-131290000D03*
X144360000Y-125540000D03*
X141400000Y-127760000D03*
X140160000Y-128960000D03*
X141250000Y-118180000D03*
X141250000Y-119780000D03*
X136430000Y-131870000D03*
X136400000Y-130360000D03*
X132500000Y-130360000D03*
X159290000Y-122310000D03*
X157220000Y-122310000D03*
X157220000Y-120620000D03*
X159290000Y-120620000D03*
X159290000Y-116670000D03*
X157790000Y-116670000D03*
X167850000Y-104850000D03*
X149260000Y-100960000D03*
X167850000Y-102880000D03*
X167850000Y-100960000D03*
X166010000Y-99800000D03*
X163470000Y-99800000D03*
X160320000Y-99800000D03*
X150250000Y-99800000D03*
X147720000Y-99800000D03*
X130890000Y-104850000D03*
X130890000Y-102880000D03*
X130890000Y-100960000D03*
X132420000Y-99800000D03*
X134560000Y-99800000D03*
X136620000Y-99800000D03*
X138220000Y-102480000D03*
X144060000Y-110590000D03*
X144390000Y-108600000D03*
X149810000Y-106170000D03*
X151940000Y-104530000D03*
X154770000Y-124210000D03*
X165810000Y-112250000D03*
X133480000Y-120100000D03*
X137730000Y-109760000D03*
X144660000Y-104540000D03*
X137730000Y-116050000D03*
D23*
X137876078Y-101190000D02*
X138542478Y-100523600D01*
X136550000Y-102940000D02*
X136550000Y-101840000D01*
X136550000Y-101840000D02*
X137200000Y-101190000D01*
X137200000Y-101190000D02*
X137876078Y-101190000D01*
X138542478Y-100523600D02*
X139031100Y-100523600D01*
X139031100Y-100523600D02*
X141031100Y-100523600D01*
X134610000Y-102870000D02*
X136480000Y-102870000D01*
X136480000Y-102870000D02*
X136550000Y-102940000D01*
D24*
X147960000Y-102270000D02*
X146213600Y-100523600D01*
X146213600Y-100523600D02*
X141031100Y-100523600D01*
X147960000Y-109090000D02*
X147960000Y-102270000D01*
X149980000Y-129198686D02*
X149980000Y-111810000D01*
X149980000Y-111810000D02*
X149940000Y-111770000D01*
X153300000Y-133740000D02*
X153300000Y-132518686D01*
X153300000Y-132518686D02*
X149980000Y-129198686D01*
X147900000Y-141390000D02*
X150170000Y-141390000D01*
X143160000Y-141380000D02*
X145470000Y-141380000D01*
X161220000Y-122310000D02*
X162380000Y-121150000D01*
X163710000Y-118410000D02*
X163710000Y-119160000D01*
X163710000Y-119160000D02*
X162380000Y-120490000D01*
X162380000Y-120490000D02*
X162380000Y-121150000D01*
X143620000Y-125540000D02*
X144360000Y-125540000D01*
X141400000Y-127760000D02*
X143620000Y-125540000D01*
X141400000Y-127760000D02*
X144363248Y-124796752D01*
X144363248Y-124796752D02*
X144496752Y-124796752D01*
X140160000Y-128960000D02*
X140200000Y-128960000D01*
X140200000Y-128960000D02*
X141400000Y-127760000D01*
X141250000Y-119780000D02*
X141250000Y-118180000D01*
X136400000Y-130360000D02*
X136400000Y-131840000D01*
X136400000Y-131840000D02*
X136430000Y-131870000D01*
X137360000Y-139570000D02*
X132500000Y-134710000D01*
X132500000Y-134710000D02*
X132500000Y-130360000D01*
X141350000Y-139570000D02*
X137360000Y-139570000D01*
X143140000Y-137780000D02*
X141350000Y-139570000D01*
X143140000Y-137501314D02*
X143140000Y-137780000D01*
X143140000Y-136280000D02*
X143140000Y-137501314D01*
X159390000Y-122310000D02*
X161220000Y-122310000D01*
X157220000Y-121468528D02*
X157220000Y-122310000D01*
X157220000Y-120620000D02*
X157220000Y-121468528D01*
X159290000Y-120620000D02*
X157220000Y-120620000D01*
X157000000Y-115850000D02*
X157790000Y-116640000D01*
X157000000Y-115454700D02*
X157000000Y-115850000D01*
X157031100Y-114523600D02*
X157031100Y-115423600D01*
X157031100Y-115423600D02*
X157000000Y-115454700D01*
X150250000Y-99760000D02*
X150250000Y-99970000D01*
X150250000Y-99970000D02*
X149260000Y-100960000D01*
X167850000Y-103010000D02*
X167850000Y-103858528D01*
X167850000Y-103858528D02*
X165588528Y-106120000D01*
X165588528Y-106120000D02*
X164150000Y-106120000D01*
X164150000Y-106120000D02*
X163450000Y-106120000D01*
X166010000Y-99800000D02*
X166740000Y-99800000D01*
X166740000Y-99800000D02*
X167850000Y-100910000D01*
X161188528Y-99800000D02*
X163470000Y-99800000D01*
X160320000Y-99820000D02*
X161168528Y-99820000D01*
X161168528Y-99820000D02*
X161188528Y-99800000D01*
X148568528Y-99760000D02*
X150250000Y-99760000D01*
X147720000Y-99760000D02*
X148568528Y-99760000D01*
X130860000Y-102880000D02*
X130860000Y-104850000D01*
X132420000Y-99800000D02*
X132050000Y-99800000D01*
X132050000Y-99800000D02*
X130890000Y-100960000D01*
X136620000Y-99820000D02*
X134580000Y-99820000D01*
X134580000Y-99820000D02*
X134560000Y-99800000D01*
X138200000Y-104430000D02*
X138200000Y-102500000D01*
X138200000Y-102500000D02*
X138220000Y-102480000D01*
X137830000Y-104800000D02*
X138200000Y-104430000D01*
X137265000Y-104800000D02*
X137830000Y-104800000D01*
X136550000Y-104840000D02*
X137225000Y-104840000D01*
X137225000Y-104840000D02*
X137265000Y-104800000D01*
X163450000Y-106120000D02*
X163450000Y-108740000D01*
X133620000Y-111020000D02*
X133620000Y-109100000D01*
X133620000Y-109100000D02*
X133600000Y-109080000D01*
X133620000Y-111020000D02*
X133620000Y-113120000D01*
D23*
X161550000Y-110830000D02*
X161550000Y-108740000D01*
X161550000Y-106120000D02*
X161550000Y-108740000D01*
X135520000Y-113120000D02*
X135520000Y-111020000D01*
X138023600Y-114523600D02*
X141031100Y-114523600D01*
D24*
X138070000Y-114523600D02*
X141031100Y-114523600D01*
D23*
X135520000Y-113120000D02*
X136620000Y-113120000D01*
X136620000Y-113120000D02*
X138023600Y-114523600D01*
X138023600Y-114523600D02*
X138070000Y-114523600D01*
X135520000Y-114170000D02*
X135520000Y-113120000D01*
X133960000Y-114650000D02*
X135040000Y-114650000D01*
X135040000Y-114650000D02*
X135520000Y-114170000D01*
X133510000Y-116050000D02*
X133510000Y-115100000D01*
X133510000Y-115100000D02*
X133960000Y-114650000D01*
X133960000Y-114650000D02*
X134160000Y-114650000D01*
X133510000Y-116850000D02*
X133510000Y-116050000D01*
X135750000Y-118570000D02*
X135750000Y-117620000D01*
X135750000Y-117620000D02*
X135500000Y-117370000D01*
X135500000Y-117370000D02*
X134030000Y-117370000D01*
X134030000Y-117370000D02*
X133510000Y-116850000D01*
X135750000Y-118570000D02*
X135750000Y-119520000D01*
X135750000Y-119520000D02*
X139150000Y-122920000D01*
X139150000Y-122920000D02*
X139150000Y-124950000D01*
X141031100Y-114523600D02*
X141031100Y-115423600D01*
X139150000Y-124950000D02*
X139150000Y-117304700D01*
X139150000Y-117304700D02*
X141031100Y-115423600D01*
X135010000Y-134950000D02*
X135010000Y-129090000D01*
X135010000Y-129090000D02*
X139150000Y-124950000D01*
X138060000Y-136280000D02*
X136340000Y-136280000D01*
X136340000Y-136280000D02*
X135010000Y-134950000D01*
D24*
X139150000Y-117304700D02*
X139150000Y-122720000D01*
X139150000Y-124950000D02*
X139150000Y-122720000D01*
X139150000Y-122720000D02*
X135750000Y-119320000D01*
X135750000Y-119320000D02*
X135750000Y-118570000D01*
X138060000Y-136280000D02*
X136896400Y-136280000D01*
X134160000Y-114650000D02*
X135040000Y-114650000D01*
D23*
X159880000Y-113350000D02*
X159880000Y-110880000D01*
X159880000Y-110880000D02*
X159523600Y-110523600D01*
X161400000Y-113770000D02*
X160300000Y-113770000D01*
X160300000Y-113770000D02*
X159880000Y-113350000D01*
X159880000Y-113350000D02*
X159880000Y-113150000D01*
X157031100Y-110523600D02*
X159523600Y-110523600D01*
D24*
X159880000Y-113150000D02*
X159880000Y-110880000D01*
D23*
X163600000Y-113770000D02*
X163600000Y-116170000D01*
D24*
X138060000Y-133740000D02*
X138060000Y-128540000D01*
X138060000Y-128540000D02*
X144150000Y-122450000D01*
X144150000Y-122450000D02*
X144150000Y-113220000D01*
X144150000Y-113220000D02*
X143453600Y-112523600D01*
X143453600Y-112523600D02*
X141031100Y-112523600D01*
X141031100Y-106523600D02*
X144913600Y-106523600D01*
X144913600Y-106523600D02*
X145930000Y-107540000D01*
X145930000Y-107540000D02*
X145930000Y-126670000D01*
X145930000Y-126670000D02*
X140600000Y-132000000D01*
X140600000Y-132000000D02*
X140600000Y-133740000D01*
X143993600Y-110523600D02*
X141031100Y-110523600D01*
X144060000Y-110590000D02*
X143993600Y-110523600D01*
X144313600Y-108523600D02*
X141031100Y-108523600D01*
X144390000Y-108600000D02*
X144313600Y-108523600D01*
X148220000Y-133740000D02*
X148220000Y-111170000D01*
X152866400Y-106523600D02*
X157031100Y-106523600D01*
X148220000Y-111170000D02*
X152866400Y-106523600D01*
X153120000Y-100530000D02*
X149810000Y-103840000D01*
X149810000Y-103840000D02*
X149810000Y-106170000D01*
X155224700Y-100530000D02*
X153120000Y-100530000D01*
X157031100Y-100523600D02*
X155231100Y-100523600D01*
X155231100Y-100523600D02*
X155224700Y-100530000D01*
X152539999Y-103920001D02*
X153936400Y-102523600D01*
X153936400Y-102523600D02*
X157031100Y-102523600D01*
X151940000Y-104530000D02*
X152539999Y-103930001D01*
X152539999Y-103930001D02*
X152539999Y-103920001D01*
X158390000Y-127830000D02*
X154770000Y-124210000D01*
X158390000Y-132508686D02*
X158390000Y-127830000D01*
X158380000Y-133740000D02*
X158380000Y-132518686D01*
X158380000Y-132518686D02*
X158390000Y-132508686D01*
D23*
X133600000Y-107180000D02*
X133600000Y-106080000D01*
X133600000Y-106080000D02*
X134610000Y-105070000D01*
X163750000Y-110830000D02*
X164390000Y-110830000D01*
X164390000Y-110830000D02*
X165810000Y-112250000D01*
D24*
X133480000Y-120100000D02*
X133480000Y-118640000D01*
X133480000Y-118640000D02*
X133550000Y-118570000D01*
X137530000Y-109760000D02*
X137730000Y-109760000D01*
X136600000Y-108130000D02*
X136600000Y-108830000D01*
X136600000Y-108830000D02*
X137530000Y-109760000D01*
D23*
X160740000Y-103120000D02*
X162500000Y-103120000D01*
X159780000Y-107774700D02*
X159780000Y-104080000D01*
X159780000Y-104080000D02*
X160740000Y-103120000D01*
X157031100Y-108523600D02*
X159031100Y-108523600D01*
X159031100Y-108523600D02*
X159780000Y-107774700D01*
X159780000Y-107774700D02*
X159780000Y-107574700D01*
D24*
X159780000Y-107574700D02*
X159780000Y-104080000D01*
X144660000Y-104540000D02*
X141047500Y-104540000D01*
X141047500Y-104540000D02*
X141031100Y-104523600D01*
X135710000Y-116050000D02*
X137730000Y-116050000D01*
D23*
X157031100Y-112523600D02*
X154816400Y-112523600D01*
X153940000Y-115970000D02*
X153940000Y-113400000D01*
X153940000Y-113400000D02*
X154816400Y-112523600D01*
X161510000Y-118410000D02*
X156380000Y-118410000D01*
X156380000Y-118410000D02*
X153940000Y-115970000D01*
D25*
G36*
X168760000Y-99116651D02*
X168760000Y-149450000D01*
X130040000Y-149450000D01*
X130040000Y-149190000D01*
X130039005Y-149185000D01*
X130040000Y-149180000D01*
X130040000Y-145310854D01*
X131314457Y-145310854D01*
X131790727Y-146463515D01*
X132671847Y-147346174D01*
X133823674Y-147824454D01*
X135070854Y-147825543D01*
X136223515Y-147349273D01*
X137106174Y-146468153D01*
X137561812Y-145370854D01*
X161454457Y-145370854D01*
X161930727Y-146523515D01*
X162811847Y-147406174D01*
X163963674Y-147884454D01*
X165210854Y-147885543D01*
X166363515Y-147409273D01*
X167246174Y-146528153D01*
X167724454Y-145376326D01*
X167725543Y-144129146D01*
X167249273Y-142976485D01*
X166368153Y-142093826D01*
X165216326Y-141615546D01*
X163969146Y-141614457D01*
X162816485Y-142090727D01*
X161933826Y-142971847D01*
X161455546Y-144123674D01*
X161454457Y-145370854D01*
X137561812Y-145370854D01*
X137584454Y-145316326D01*
X137585543Y-144069146D01*
X137109273Y-142916485D01*
X136228153Y-142033826D01*
X135076326Y-141555546D01*
X133829146Y-141554457D01*
X132676485Y-142030727D01*
X131793826Y-142911847D01*
X131315546Y-144063674D01*
X131314457Y-145310854D01*
X130040000Y-145310854D01*
X130040000Y-124900854D01*
X131314457Y-124900854D01*
X131790727Y-126053515D01*
X132671847Y-126936174D01*
X133823674Y-127414454D01*
X135070854Y-127415543D01*
X135687790Y-127160630D01*
X134384210Y-128464210D01*
X134192367Y-128751325D01*
X134192367Y-128751326D01*
X134124999Y-129090000D01*
X134125000Y-129090005D01*
X134125000Y-134949995D01*
X134124999Y-134950000D01*
X134178772Y-135220330D01*
X134192367Y-135288675D01*
X134263411Y-135395000D01*
X134384210Y-135575790D01*
X135714208Y-136905787D01*
X135714210Y-136905790D01*
X136001325Y-137097633D01*
X136057516Y-137108810D01*
X136340000Y-137165001D01*
X136340005Y-137165000D01*
X136552987Y-137165000D01*
X136593238Y-137378917D01*
X136732310Y-137595041D01*
X136944510Y-137740031D01*
X137196400Y-137791040D01*
X138923600Y-137791040D01*
X139158917Y-137746762D01*
X139375041Y-137607690D01*
X139520031Y-137395490D01*
X139528908Y-137351655D01*
X139997152Y-137664526D01*
X140570641Y-137778600D01*
X140629359Y-137778600D01*
X141202848Y-137664526D01*
X141689029Y-137339670D01*
X141869992Y-137068839D01*
X142251510Y-137486821D01*
X142780973Y-137734968D01*
X143013000Y-137614469D01*
X143013000Y-136407000D01*
X142993000Y-136407000D01*
X142993000Y-136153000D01*
X143013000Y-136153000D01*
X143013000Y-136133000D01*
X143267000Y-136133000D01*
X143267000Y-136153000D01*
X143287000Y-136153000D01*
X143287000Y-136407000D01*
X143267000Y-136407000D01*
X143267000Y-137614469D01*
X143499027Y-137734968D01*
X144028490Y-137486821D01*
X144410008Y-137068839D01*
X144590971Y-137339670D01*
X145077152Y-137664526D01*
X145650641Y-137778600D01*
X145709359Y-137778600D01*
X146282848Y-137664526D01*
X146769029Y-137339670D01*
X146949992Y-137068839D01*
X147331510Y-137486821D01*
X147860973Y-137734968D01*
X148093000Y-137614469D01*
X148093000Y-136407000D01*
X148073000Y-136407000D01*
X148073000Y-136153000D01*
X148093000Y-136153000D01*
X148093000Y-136133000D01*
X148347000Y-136133000D01*
X148347000Y-136153000D01*
X148367000Y-136153000D01*
X148367000Y-136407000D01*
X148347000Y-136407000D01*
X148347000Y-137614469D01*
X148579027Y-137734968D01*
X149108490Y-137486821D01*
X149490008Y-137068839D01*
X149670971Y-137339670D01*
X150157152Y-137664526D01*
X150730641Y-137778600D01*
X150789359Y-137778600D01*
X151362848Y-137664526D01*
X151849029Y-137339670D01*
X152030000Y-137068828D01*
X152210971Y-137339670D01*
X152697152Y-137664526D01*
X153270641Y-137778600D01*
X153329359Y-137778600D01*
X153902848Y-137664526D01*
X154389029Y-137339670D01*
X154570000Y-137068828D01*
X154750971Y-137339670D01*
X155237152Y-137664526D01*
X155810641Y-137778600D01*
X155869359Y-137778600D01*
X156442848Y-137664526D01*
X156929029Y-137339670D01*
X157109992Y-137068839D01*
X157491510Y-137486821D01*
X158020973Y-137734968D01*
X158253000Y-137614469D01*
X158253000Y-136407000D01*
X158233000Y-136407000D01*
X158233000Y-136153000D01*
X158253000Y-136153000D01*
X158253000Y-136133000D01*
X158507000Y-136133000D01*
X158507000Y-136153000D01*
X158527000Y-136153000D01*
X158527000Y-136407000D01*
X158507000Y-136407000D01*
X158507000Y-137614469D01*
X158739027Y-137734968D01*
X159268490Y-137486821D01*
X159650008Y-137068839D01*
X159830971Y-137339670D01*
X160317152Y-137664526D01*
X160890641Y-137778600D01*
X160949359Y-137778600D01*
X161522848Y-137664526D01*
X162009029Y-137339670D01*
X162333885Y-136853489D01*
X162447959Y-136280000D01*
X162333885Y-135706511D01*
X162009029Y-135220330D01*
X161694248Y-135010000D01*
X162009029Y-134799670D01*
X162333885Y-134313489D01*
X162447959Y-133740000D01*
X162333885Y-133166511D01*
X162009029Y-132680330D01*
X161522848Y-132355474D01*
X160949359Y-132241400D01*
X160890641Y-132241400D01*
X160317152Y-132355474D01*
X159830971Y-132680330D01*
X159650000Y-132951172D01*
X159469029Y-132680330D01*
X159175000Y-132483866D01*
X159175000Y-127830000D01*
X159115245Y-127529594D01*
X159115245Y-127529593D01*
X158945079Y-127274921D01*
X156571012Y-124900854D01*
X161454457Y-124900854D01*
X161930727Y-126053515D01*
X162811847Y-126936174D01*
X163963674Y-127414454D01*
X165210854Y-127415543D01*
X166363515Y-126939273D01*
X167246174Y-126058153D01*
X167724454Y-124906326D01*
X167725543Y-123659146D01*
X167249273Y-122506485D01*
X166368153Y-121623826D01*
X165216326Y-121145546D01*
X163969146Y-121144457D01*
X162816485Y-121620727D01*
X161933826Y-122501847D01*
X161455546Y-123653674D01*
X161454457Y-124900854D01*
X156571012Y-124900854D01*
X156004892Y-124334734D01*
X156005214Y-123965421D01*
X155817592Y-123511343D01*
X155470485Y-123163629D01*
X155016734Y-122975215D01*
X154525421Y-122974786D01*
X154071343Y-123162408D01*
X153723629Y-123509515D01*
X153535215Y-123963266D01*
X153534786Y-124454579D01*
X153722408Y-124908657D01*
X154069515Y-125256371D01*
X154523266Y-125444785D01*
X154894952Y-125445110D01*
X157605000Y-128155158D01*
X157605000Y-132468413D01*
X157604521Y-132470823D01*
X157290971Y-132680330D01*
X157110000Y-132951172D01*
X156929029Y-132680330D01*
X156442848Y-132355474D01*
X155869359Y-132241400D01*
X155810641Y-132241400D01*
X155237152Y-132355474D01*
X154750971Y-132680330D01*
X154570000Y-132951172D01*
X154389029Y-132680330D01*
X154075479Y-132470823D01*
X154025245Y-132218280D01*
X154025245Y-132218279D01*
X153855079Y-131963607D01*
X150765000Y-128873528D01*
X150765000Y-112691470D01*
X150986371Y-112470485D01*
X151174785Y-112016734D01*
X151175214Y-111525421D01*
X150987592Y-111071343D01*
X150640485Y-110723629D01*
X150186734Y-110535215D01*
X149965136Y-110535022D01*
X153191558Y-107308600D01*
X154918470Y-107308600D01*
X154927938Y-107358917D01*
X155034859Y-107525077D01*
X154934669Y-107671710D01*
X154883660Y-107923600D01*
X154883660Y-109123600D01*
X154927938Y-109358917D01*
X155034859Y-109525077D01*
X154934669Y-109671710D01*
X154883660Y-109923600D01*
X154883660Y-111123600D01*
X154927938Y-111358917D01*
X155034859Y-111525077D01*
X154957292Y-111638600D01*
X154816405Y-111638600D01*
X154816400Y-111638599D01*
X154533916Y-111694790D01*
X154477725Y-111705967D01*
X154190610Y-111897810D01*
X154190608Y-111897813D01*
X153314210Y-112774210D01*
X153122367Y-113061325D01*
X153122367Y-113061326D01*
X153054999Y-113400000D01*
X153055000Y-113400005D01*
X153055000Y-115969995D01*
X153054999Y-115970000D01*
X153105566Y-116224210D01*
X153122367Y-116308675D01*
X153240183Y-116485000D01*
X153314210Y-116595790D01*
X155754208Y-119035787D01*
X155754210Y-119035790D01*
X156029451Y-119219699D01*
X156041325Y-119227633D01*
X156380000Y-119295001D01*
X156380005Y-119295000D01*
X160435331Y-119295000D01*
X160445910Y-119311441D01*
X160658110Y-119456431D01*
X160910000Y-119507440D01*
X162110000Y-119507440D01*
X162345317Y-119463162D01*
X162561441Y-119324090D01*
X162607969Y-119255994D01*
X162750302Y-119398327D01*
X162983691Y-119495000D01*
X163424250Y-119495000D01*
X163583000Y-119336250D01*
X163583000Y-118537000D01*
X163837000Y-118537000D01*
X163837000Y-119336250D01*
X163995750Y-119495000D01*
X164436309Y-119495000D01*
X164669698Y-119398327D01*
X164848327Y-119219699D01*
X164945000Y-118986310D01*
X164945000Y-118695750D01*
X164786250Y-118537000D01*
X163837000Y-118537000D01*
X163583000Y-118537000D01*
X163563000Y-118537000D01*
X163563000Y-118283000D01*
X163583000Y-118283000D01*
X163583000Y-117483750D01*
X163837000Y-117483750D01*
X163837000Y-118283000D01*
X164786250Y-118283000D01*
X164945000Y-118124250D01*
X164945000Y-117833690D01*
X164848327Y-117600301D01*
X164669698Y-117421673D01*
X164436309Y-117325000D01*
X163995750Y-117325000D01*
X163837000Y-117483750D01*
X163583000Y-117483750D01*
X163424250Y-117325000D01*
X162983691Y-117325000D01*
X162750302Y-117421673D01*
X162609064Y-117562910D01*
X162574090Y-117508559D01*
X162361890Y-117363569D01*
X162110000Y-117312560D01*
X160910000Y-117312560D01*
X160674683Y-117356838D01*
X160458559Y-117495910D01*
X160438683Y-117525000D01*
X156746579Y-117525000D01*
X155677330Y-116455750D01*
X160165000Y-116455750D01*
X160165000Y-116746310D01*
X160261673Y-116979699D01*
X160440302Y-117158327D01*
X160673691Y-117255000D01*
X161114250Y-117255000D01*
X161273000Y-117096250D01*
X161273000Y-116297000D01*
X160323750Y-116297000D01*
X160165000Y-116455750D01*
X155677330Y-116455750D01*
X154825000Y-115603420D01*
X154825000Y-114809350D01*
X154896100Y-114809350D01*
X154896100Y-115249910D01*
X154992773Y-115483299D01*
X155171402Y-115661927D01*
X155404791Y-115758600D01*
X156745350Y-115758600D01*
X156904100Y-115599850D01*
X156904100Y-114650600D01*
X157158100Y-114650600D01*
X157158100Y-115599850D01*
X157316850Y-115758600D01*
X158657409Y-115758600D01*
X158890798Y-115661927D01*
X158959035Y-115593690D01*
X160165000Y-115593690D01*
X160165000Y-115884250D01*
X160323750Y-116043000D01*
X161273000Y-116043000D01*
X161273000Y-115243750D01*
X161114250Y-115085000D01*
X160673691Y-115085000D01*
X160440302Y-115181673D01*
X160261673Y-115360301D01*
X160165000Y-115593690D01*
X158959035Y-115593690D01*
X159069427Y-115483299D01*
X159166100Y-115249910D01*
X159166100Y-114809350D01*
X159007350Y-114650600D01*
X157158100Y-114650600D01*
X156904100Y-114650600D01*
X155054850Y-114650600D01*
X154896100Y-114809350D01*
X154825000Y-114809350D01*
X154825000Y-113766580D01*
X154968091Y-113623489D01*
X154896100Y-113797290D01*
X154896100Y-114237850D01*
X155054850Y-114396600D01*
X156904100Y-114396600D01*
X156904100Y-114376600D01*
X157158100Y-114376600D01*
X157158100Y-114396600D01*
X159007350Y-114396600D01*
X159166100Y-114237850D01*
X159166100Y-113843923D01*
X159249353Y-113968521D01*
X159254210Y-113975790D01*
X159674208Y-114395787D01*
X159674210Y-114395790D01*
X159961325Y-114587633D01*
X160017516Y-114598810D01*
X160218359Y-114638761D01*
X160335910Y-114821441D01*
X160548110Y-114966431D01*
X160800000Y-115017440D01*
X162000000Y-115017440D01*
X162235317Y-114973162D01*
X162451441Y-114834090D01*
X162499134Y-114764289D01*
X162535910Y-114821441D01*
X162715000Y-114943808D01*
X162715000Y-115148808D01*
X162548559Y-115255910D01*
X162502031Y-115324006D01*
X162359698Y-115181673D01*
X162126309Y-115085000D01*
X161685750Y-115085000D01*
X161527000Y-115243750D01*
X161527000Y-116043000D01*
X161547000Y-116043000D01*
X161547000Y-116297000D01*
X161527000Y-116297000D01*
X161527000Y-117096250D01*
X161685750Y-117255000D01*
X162126309Y-117255000D01*
X162359698Y-117158327D01*
X162500936Y-117017090D01*
X162535910Y-117071441D01*
X162748110Y-117216431D01*
X163000000Y-117267440D01*
X164200000Y-117267440D01*
X164435317Y-117223162D01*
X164651441Y-117084090D01*
X164796431Y-116871890D01*
X164847440Y-116620000D01*
X164847440Y-115720000D01*
X164803162Y-115484683D01*
X164664090Y-115268559D01*
X164485000Y-115146192D01*
X164485000Y-114941192D01*
X164651441Y-114834090D01*
X164796431Y-114621890D01*
X164847440Y-114370000D01*
X164847440Y-113170000D01*
X164815868Y-113002211D01*
X165109515Y-113296371D01*
X165563266Y-113484785D01*
X166054579Y-113485214D01*
X166508657Y-113297592D01*
X166856371Y-112950485D01*
X167044785Y-112496734D01*
X167045214Y-112005421D01*
X166857592Y-111551343D01*
X166510485Y-111203629D01*
X166056734Y-111015215D01*
X165826593Y-111015014D01*
X165015790Y-110204210D01*
X164956967Y-110164906D01*
X164953162Y-110144683D01*
X164814090Y-109928559D01*
X164601890Y-109783569D01*
X164350000Y-109732560D01*
X164218413Y-109732560D01*
X164409698Y-109653327D01*
X164588327Y-109474699D01*
X164685000Y-109241310D01*
X164685000Y-109025750D01*
X164526250Y-108867000D01*
X163577000Y-108867000D01*
X163577000Y-108887000D01*
X163323000Y-108887000D01*
X163323000Y-108867000D01*
X163303000Y-108867000D01*
X163303000Y-108613000D01*
X163323000Y-108613000D01*
X163323000Y-107888750D01*
X163577000Y-107888750D01*
X163577000Y-108613000D01*
X164526250Y-108613000D01*
X164685000Y-108454250D01*
X164685000Y-108238690D01*
X164588327Y-108005301D01*
X164409698Y-107826673D01*
X164176309Y-107730000D01*
X163735750Y-107730000D01*
X163577000Y-107888750D01*
X163323000Y-107888750D01*
X163164250Y-107730000D01*
X162723691Y-107730000D01*
X162490302Y-107826673D01*
X162488932Y-107828043D01*
X162435000Y-107791192D01*
X162435000Y-107484975D01*
X162496990Y-107394250D01*
X162511673Y-107429698D01*
X162690301Y-107608327D01*
X162923690Y-107705000D01*
X163164250Y-107705000D01*
X163323000Y-107546250D01*
X163323000Y-106247000D01*
X163577000Y-106247000D01*
X163577000Y-107546250D01*
X163735750Y-107705000D01*
X163976310Y-107705000D01*
X164209699Y-107608327D01*
X164388327Y-107429698D01*
X164485000Y-107196309D01*
X164485000Y-106405750D01*
X164326250Y-106247000D01*
X163577000Y-106247000D01*
X163323000Y-106247000D01*
X163303000Y-106247000D01*
X163303000Y-105993000D01*
X163323000Y-105993000D01*
X163323000Y-104693750D01*
X163577000Y-104693750D01*
X163577000Y-105993000D01*
X164326250Y-105993000D01*
X164485000Y-105834250D01*
X164485000Y-105043691D01*
X164388327Y-104810302D01*
X164209699Y-104631673D01*
X163976310Y-104535000D01*
X163735750Y-104535000D01*
X163577000Y-104693750D01*
X163323000Y-104693750D01*
X163236988Y-104607738D01*
X163351441Y-104534090D01*
X163496431Y-104321890D01*
X163547440Y-104070000D01*
X163547440Y-102170000D01*
X163503162Y-101934683D01*
X163364090Y-101718559D01*
X163151890Y-101573569D01*
X162900000Y-101522560D01*
X162100000Y-101522560D01*
X161864683Y-101566838D01*
X161648559Y-101705910D01*
X161503569Y-101918110D01*
X161452560Y-102170000D01*
X161452560Y-102235000D01*
X160740005Y-102235000D01*
X160740000Y-102234999D01*
X160457516Y-102291190D01*
X160401325Y-102302367D01*
X160114210Y-102494210D01*
X160114208Y-102494213D01*
X159154210Y-103454210D01*
X159067320Y-103584251D01*
X159027341Y-103522123D01*
X159127531Y-103375490D01*
X159178540Y-103123600D01*
X159178540Y-101923600D01*
X159134262Y-101688283D01*
X159027341Y-101522123D01*
X159127531Y-101375490D01*
X159178540Y-101123600D01*
X159178540Y-99923600D01*
X159134262Y-99688283D01*
X158995190Y-99472159D01*
X158782990Y-99327169D01*
X158531100Y-99276160D01*
X155531100Y-99276160D01*
X155295783Y-99320438D01*
X155079659Y-99459510D01*
X154934669Y-99671710D01*
X154919827Y-99745000D01*
X153120000Y-99745000D01*
X152819594Y-99804755D01*
X152564921Y-99974921D01*
X149254921Y-103284921D01*
X149084755Y-103539593D01*
X149048494Y-103721890D01*
X149025000Y-103840000D01*
X149025000Y-105208600D01*
X148763629Y-105469515D01*
X148745000Y-105514379D01*
X148745000Y-102270005D01*
X148745001Y-102270000D01*
X148685245Y-101969594D01*
X148515079Y-101714921D01*
X146768679Y-99968521D01*
X146514007Y-99798355D01*
X146213600Y-99738600D01*
X143143730Y-99738600D01*
X143134262Y-99688283D01*
X142995190Y-99472159D01*
X142782990Y-99327169D01*
X142531100Y-99276160D01*
X139531100Y-99276160D01*
X139295783Y-99320438D01*
X139079659Y-99459510D01*
X138957292Y-99638600D01*
X138542483Y-99638600D01*
X138542478Y-99638599D01*
X138259994Y-99694790D01*
X138203803Y-99705967D01*
X137916688Y-99897810D01*
X137916686Y-99897813D01*
X137509498Y-100305000D01*
X137200005Y-100305000D01*
X137200000Y-100304999D01*
X136917516Y-100361190D01*
X136861325Y-100372367D01*
X136574210Y-100564210D01*
X136574208Y-100564213D01*
X135924210Y-101214210D01*
X135732367Y-101501325D01*
X135732367Y-101501326D01*
X135664999Y-101840000D01*
X135665000Y-101840005D01*
X135665000Y-101961614D01*
X135649021Y-101985000D01*
X135631192Y-101985000D01*
X135524090Y-101818559D01*
X135311890Y-101673569D01*
X135060000Y-101622560D01*
X134160000Y-101622560D01*
X133924683Y-101666838D01*
X133708559Y-101805910D01*
X133563569Y-102018110D01*
X133512560Y-102270000D01*
X133512560Y-103470000D01*
X133556838Y-103705317D01*
X133695910Y-103921441D01*
X133765711Y-103969134D01*
X133708559Y-104005910D01*
X133563569Y-104218110D01*
X133512560Y-104470000D01*
X133512560Y-104915861D01*
X132974210Y-105454210D01*
X132782367Y-105741325D01*
X132771190Y-105797516D01*
X132714999Y-106080000D01*
X132715000Y-106080005D01*
X132715000Y-106132560D01*
X132650000Y-106132560D01*
X132414683Y-106176838D01*
X132198559Y-106315910D01*
X132053569Y-106528110D01*
X132002560Y-106780000D01*
X132002560Y-107580000D01*
X132046838Y-107815317D01*
X132185910Y-108031441D01*
X132325750Y-108126990D01*
X132290302Y-108141673D01*
X132111673Y-108320301D01*
X132015000Y-108553690D01*
X132015000Y-108794250D01*
X132173750Y-108953000D01*
X133473000Y-108953000D01*
X133473000Y-108933000D01*
X133727000Y-108933000D01*
X133727000Y-108953000D01*
X135026250Y-108953000D01*
X135112262Y-108866988D01*
X135185910Y-108981441D01*
X135398110Y-109126431D01*
X135650000Y-109177440D01*
X135906181Y-109177440D01*
X136044921Y-109385079D01*
X136494934Y-109835092D01*
X136494786Y-110004579D01*
X136568458Y-110182878D01*
X136371890Y-110048569D01*
X136120000Y-109997560D01*
X134930465Y-109997560D01*
X135088327Y-109839699D01*
X135185000Y-109606310D01*
X135185000Y-109365750D01*
X135026250Y-109207000D01*
X133727000Y-109207000D01*
X133727000Y-109956250D01*
X133843250Y-110072500D01*
X133747000Y-110168750D01*
X133747000Y-110893000D01*
X133767000Y-110893000D01*
X133767000Y-111147000D01*
X133747000Y-111147000D01*
X133747000Y-111871250D01*
X133905750Y-112030000D01*
X134346309Y-112030000D01*
X134579698Y-111933327D01*
X134581068Y-111931957D01*
X134635000Y-111968808D01*
X134635000Y-112173808D01*
X134581354Y-112208329D01*
X134579698Y-112206673D01*
X134346309Y-112110000D01*
X133905750Y-112110000D01*
X133747000Y-112268750D01*
X133747000Y-112993000D01*
X133767000Y-112993000D01*
X133767000Y-113247000D01*
X133747000Y-113247000D01*
X133747000Y-113267000D01*
X133493000Y-113267000D01*
X133493000Y-113247000D01*
X132543750Y-113247000D01*
X132385000Y-113405750D01*
X132385000Y-113621310D01*
X132481673Y-113854699D01*
X132660302Y-114033327D01*
X132893691Y-114130000D01*
X133228421Y-114130000D01*
X132884210Y-114474210D01*
X132692367Y-114761325D01*
X132682814Y-114809350D01*
X132641239Y-115018359D01*
X132458559Y-115135910D01*
X132313569Y-115348110D01*
X132262560Y-115600000D01*
X132262560Y-116500000D01*
X132306838Y-116735317D01*
X132445910Y-116951441D01*
X132658110Y-117096431D01*
X132674686Y-117099788D01*
X132692367Y-117188675D01*
X132882052Y-117472560D01*
X132884210Y-117475790D01*
X132891910Y-117483490D01*
X132714683Y-117516838D01*
X132498559Y-117655910D01*
X132353569Y-117868110D01*
X132302560Y-118120000D01*
X132302560Y-119020000D01*
X132346838Y-119255317D01*
X132437281Y-119395869D01*
X132433629Y-119399515D01*
X132245215Y-119853266D01*
X132244786Y-120344579D01*
X132432408Y-120798657D01*
X132779515Y-121146371D01*
X133233266Y-121334785D01*
X133368232Y-121334903D01*
X132676485Y-121620727D01*
X131793826Y-122501847D01*
X131315546Y-123653674D01*
X131314457Y-124900854D01*
X130040000Y-124900854D01*
X130040000Y-112618690D01*
X132385000Y-112618690D01*
X132385000Y-112834250D01*
X132543750Y-112993000D01*
X133493000Y-112993000D01*
X133493000Y-112268750D01*
X133334250Y-112110000D01*
X132893691Y-112110000D01*
X132660302Y-112206673D01*
X132481673Y-112385301D01*
X132385000Y-112618690D01*
X130040000Y-112618690D01*
X130040000Y-111305750D01*
X132385000Y-111305750D01*
X132385000Y-111521310D01*
X132481673Y-111754699D01*
X132660302Y-111933327D01*
X132893691Y-112030000D01*
X133334250Y-112030000D01*
X133493000Y-111871250D01*
X133493000Y-111147000D01*
X132543750Y-111147000D01*
X132385000Y-111305750D01*
X130040000Y-111305750D01*
X130040000Y-109365750D01*
X132015000Y-109365750D01*
X132015000Y-109606310D01*
X132111673Y-109839699D01*
X132290302Y-110018327D01*
X132523691Y-110115000D01*
X132651975Y-110115000D01*
X132481673Y-110285301D01*
X132385000Y-110518690D01*
X132385000Y-110734250D01*
X132543750Y-110893000D01*
X133493000Y-110893000D01*
X133493000Y-110168750D01*
X133376750Y-110052500D01*
X133473000Y-109956250D01*
X133473000Y-109207000D01*
X132173750Y-109207000D01*
X132015000Y-109365750D01*
X130040000Y-109365750D01*
X130040000Y-99097354D01*
X168760000Y-99116651D01*
X168760000Y-99116651D01*
G37*
X168760000Y-99116651D02*
X168760000Y-149450000D01*
X130040000Y-149450000D01*
X130040000Y-149190000D01*
X130039005Y-149185000D01*
X130040000Y-149180000D01*
X130040000Y-145310854D01*
X131314457Y-145310854D01*
X131790727Y-146463515D01*
X132671847Y-147346174D01*
X133823674Y-147824454D01*
X135070854Y-147825543D01*
X136223515Y-147349273D01*
X137106174Y-146468153D01*
X137561812Y-145370854D01*
X161454457Y-145370854D01*
X161930727Y-146523515D01*
X162811847Y-147406174D01*
X163963674Y-147884454D01*
X165210854Y-147885543D01*
X166363515Y-147409273D01*
X167246174Y-146528153D01*
X167724454Y-145376326D01*
X167725543Y-144129146D01*
X167249273Y-142976485D01*
X166368153Y-142093826D01*
X165216326Y-141615546D01*
X163969146Y-141614457D01*
X162816485Y-142090727D01*
X161933826Y-142971847D01*
X161455546Y-144123674D01*
X161454457Y-145370854D01*
X137561812Y-145370854D01*
X137584454Y-145316326D01*
X137585543Y-144069146D01*
X137109273Y-142916485D01*
X136228153Y-142033826D01*
X135076326Y-141555546D01*
X133829146Y-141554457D01*
X132676485Y-142030727D01*
X131793826Y-142911847D01*
X131315546Y-144063674D01*
X131314457Y-145310854D01*
X130040000Y-145310854D01*
X130040000Y-124900854D01*
X131314457Y-124900854D01*
X131790727Y-126053515D01*
X132671847Y-126936174D01*
X133823674Y-127414454D01*
X135070854Y-127415543D01*
X135687790Y-127160630D01*
X134384210Y-128464210D01*
X134192367Y-128751325D01*
X134192367Y-128751326D01*
X134124999Y-129090000D01*
X134125000Y-129090005D01*
X134125000Y-134949995D01*
X134124999Y-134950000D01*
X134178772Y-135220330D01*
X134192367Y-135288675D01*
X134263411Y-135395000D01*
X134384210Y-135575790D01*
X135714208Y-136905787D01*
X135714210Y-136905790D01*
X136001325Y-137097633D01*
X136057516Y-137108810D01*
X136340000Y-137165001D01*
X136340005Y-137165000D01*
X136552987Y-137165000D01*
X136593238Y-137378917D01*
X136732310Y-137595041D01*
X136944510Y-137740031D01*
X137196400Y-137791040D01*
X138923600Y-137791040D01*
X139158917Y-137746762D01*
X139375041Y-137607690D01*
X139520031Y-137395490D01*
X139528908Y-137351655D01*
X139997152Y-137664526D01*
X140570641Y-137778600D01*
X140629359Y-137778600D01*
X141202848Y-137664526D01*
X141689029Y-137339670D01*
X141869992Y-137068839D01*
X142251510Y-137486821D01*
X142780973Y-137734968D01*
X143013000Y-137614469D01*
X143013000Y-136407000D01*
X142993000Y-136407000D01*
X142993000Y-136153000D01*
X143013000Y-136153000D01*
X143013000Y-136133000D01*
X143267000Y-136133000D01*
X143267000Y-136153000D01*
X143287000Y-136153000D01*
X143287000Y-136407000D01*
X143267000Y-136407000D01*
X143267000Y-137614469D01*
X143499027Y-137734968D01*
X144028490Y-137486821D01*
X144410008Y-137068839D01*
X144590971Y-137339670D01*
X145077152Y-137664526D01*
X145650641Y-137778600D01*
X145709359Y-137778600D01*
X146282848Y-137664526D01*
X146769029Y-137339670D01*
X146949992Y-137068839D01*
X147331510Y-137486821D01*
X147860973Y-137734968D01*
X148093000Y-137614469D01*
X148093000Y-136407000D01*
X148073000Y-136407000D01*
X148073000Y-136153000D01*
X148093000Y-136153000D01*
X148093000Y-136133000D01*
X148347000Y-136133000D01*
X148347000Y-136153000D01*
X148367000Y-136153000D01*
X148367000Y-136407000D01*
X148347000Y-136407000D01*
X148347000Y-137614469D01*
X148579027Y-137734968D01*
X149108490Y-137486821D01*
X149490008Y-137068839D01*
X149670971Y-137339670D01*
X150157152Y-137664526D01*
X150730641Y-137778600D01*
X150789359Y-137778600D01*
X151362848Y-137664526D01*
X151849029Y-137339670D01*
X152030000Y-137068828D01*
X152210971Y-137339670D01*
X152697152Y-137664526D01*
X153270641Y-137778600D01*
X153329359Y-137778600D01*
X153902848Y-137664526D01*
X154389029Y-137339670D01*
X154570000Y-137068828D01*
X154750971Y-137339670D01*
X155237152Y-137664526D01*
X155810641Y-137778600D01*
X155869359Y-137778600D01*
X156442848Y-137664526D01*
X156929029Y-137339670D01*
X157109992Y-137068839D01*
X157491510Y-137486821D01*
X158020973Y-137734968D01*
X158253000Y-137614469D01*
X158253000Y-136407000D01*
X158233000Y-136407000D01*
X158233000Y-136153000D01*
X158253000Y-136153000D01*
X158253000Y-136133000D01*
X158507000Y-136133000D01*
X158507000Y-136153000D01*
X158527000Y-136153000D01*
X158527000Y-136407000D01*
X158507000Y-136407000D01*
X158507000Y-137614469D01*
X158739027Y-137734968D01*
X159268490Y-137486821D01*
X159650008Y-137068839D01*
X159830971Y-137339670D01*
X160317152Y-137664526D01*
X160890641Y-137778600D01*
X160949359Y-137778600D01*
X161522848Y-137664526D01*
X162009029Y-137339670D01*
X162333885Y-136853489D01*
X162447959Y-136280000D01*
X162333885Y-135706511D01*
X162009029Y-135220330D01*
X161694248Y-135010000D01*
X162009029Y-134799670D01*
X162333885Y-134313489D01*
X162447959Y-133740000D01*
X162333885Y-133166511D01*
X162009029Y-132680330D01*
X161522848Y-132355474D01*
X160949359Y-132241400D01*
X160890641Y-132241400D01*
X160317152Y-132355474D01*
X159830971Y-132680330D01*
X159650000Y-132951172D01*
X159469029Y-132680330D01*
X159175000Y-132483866D01*
X159175000Y-127830000D01*
X159115245Y-127529594D01*
X159115245Y-127529593D01*
X158945079Y-127274921D01*
X156571012Y-124900854D01*
X161454457Y-124900854D01*
X161930727Y-126053515D01*
X162811847Y-126936174D01*
X163963674Y-127414454D01*
X165210854Y-127415543D01*
X166363515Y-126939273D01*
X167246174Y-126058153D01*
X167724454Y-124906326D01*
X167725543Y-123659146D01*
X167249273Y-122506485D01*
X166368153Y-121623826D01*
X165216326Y-121145546D01*
X163969146Y-121144457D01*
X162816485Y-121620727D01*
X161933826Y-122501847D01*
X161455546Y-123653674D01*
X161454457Y-124900854D01*
X156571012Y-124900854D01*
X156004892Y-124334734D01*
X156005214Y-123965421D01*
X155817592Y-123511343D01*
X155470485Y-123163629D01*
X155016734Y-122975215D01*
X154525421Y-122974786D01*
X154071343Y-123162408D01*
X153723629Y-123509515D01*
X153535215Y-123963266D01*
X153534786Y-124454579D01*
X153722408Y-124908657D01*
X154069515Y-125256371D01*
X154523266Y-125444785D01*
X154894952Y-125445110D01*
X157605000Y-128155158D01*
X157605000Y-132468413D01*
X157604521Y-132470823D01*
X157290971Y-132680330D01*
X157110000Y-132951172D01*
X156929029Y-132680330D01*
X156442848Y-132355474D01*
X155869359Y-132241400D01*
X155810641Y-132241400D01*
X155237152Y-132355474D01*
X154750971Y-132680330D01*
X154570000Y-132951172D01*
X154389029Y-132680330D01*
X154075479Y-132470823D01*
X154025245Y-132218280D01*
X154025245Y-132218279D01*
X153855079Y-131963607D01*
X150765000Y-128873528D01*
X150765000Y-112691470D01*
X150986371Y-112470485D01*
X151174785Y-112016734D01*
X151175214Y-111525421D01*
X150987592Y-111071343D01*
X150640485Y-110723629D01*
X150186734Y-110535215D01*
X149965136Y-110535022D01*
X153191558Y-107308600D01*
X154918470Y-107308600D01*
X154927938Y-107358917D01*
X155034859Y-107525077D01*
X154934669Y-107671710D01*
X154883660Y-107923600D01*
X154883660Y-109123600D01*
X154927938Y-109358917D01*
X155034859Y-109525077D01*
X154934669Y-109671710D01*
X154883660Y-109923600D01*
X154883660Y-111123600D01*
X154927938Y-111358917D01*
X155034859Y-111525077D01*
X154957292Y-111638600D01*
X154816405Y-111638600D01*
X154816400Y-111638599D01*
X154533916Y-111694790D01*
X154477725Y-111705967D01*
X154190610Y-111897810D01*
X154190608Y-111897813D01*
X153314210Y-112774210D01*
X153122367Y-113061325D01*
X153122367Y-113061326D01*
X153054999Y-113400000D01*
X153055000Y-113400005D01*
X153055000Y-115969995D01*
X153054999Y-115970000D01*
X153105566Y-116224210D01*
X153122367Y-116308675D01*
X153240183Y-116485000D01*
X153314210Y-116595790D01*
X155754208Y-119035787D01*
X155754210Y-119035790D01*
X156029451Y-119219699D01*
X156041325Y-119227633D01*
X156380000Y-119295001D01*
X156380005Y-119295000D01*
X160435331Y-119295000D01*
X160445910Y-119311441D01*
X160658110Y-119456431D01*
X160910000Y-119507440D01*
X162110000Y-119507440D01*
X162345317Y-119463162D01*
X162561441Y-119324090D01*
X162607969Y-119255994D01*
X162750302Y-119398327D01*
X162983691Y-119495000D01*
X163424250Y-119495000D01*
X163583000Y-119336250D01*
X163583000Y-118537000D01*
X163837000Y-118537000D01*
X163837000Y-119336250D01*
X163995750Y-119495000D01*
X164436309Y-119495000D01*
X164669698Y-119398327D01*
X164848327Y-119219699D01*
X164945000Y-118986310D01*
X164945000Y-118695750D01*
X164786250Y-118537000D01*
X163837000Y-118537000D01*
X163583000Y-118537000D01*
X163563000Y-118537000D01*
X163563000Y-118283000D01*
X163583000Y-118283000D01*
X163583000Y-117483750D01*
X163837000Y-117483750D01*
X163837000Y-118283000D01*
X164786250Y-118283000D01*
X164945000Y-118124250D01*
X164945000Y-117833690D01*
X164848327Y-117600301D01*
X164669698Y-117421673D01*
X164436309Y-117325000D01*
X163995750Y-117325000D01*
X163837000Y-117483750D01*
X163583000Y-117483750D01*
X163424250Y-117325000D01*
X162983691Y-117325000D01*
X162750302Y-117421673D01*
X162609064Y-117562910D01*
X162574090Y-117508559D01*
X162361890Y-117363569D01*
X162110000Y-117312560D01*
X160910000Y-117312560D01*
X160674683Y-117356838D01*
X160458559Y-117495910D01*
X160438683Y-117525000D01*
X156746579Y-117525000D01*
X155677330Y-116455750D01*
X160165000Y-116455750D01*
X160165000Y-116746310D01*
X160261673Y-116979699D01*
X160440302Y-117158327D01*
X160673691Y-117255000D01*
X161114250Y-117255000D01*
X161273000Y-117096250D01*
X161273000Y-116297000D01*
X160323750Y-116297000D01*
X160165000Y-116455750D01*
X155677330Y-116455750D01*
X154825000Y-115603420D01*
X154825000Y-114809350D01*
X154896100Y-114809350D01*
X154896100Y-115249910D01*
X154992773Y-115483299D01*
X155171402Y-115661927D01*
X155404791Y-115758600D01*
X156745350Y-115758600D01*
X156904100Y-115599850D01*
X156904100Y-114650600D01*
X157158100Y-114650600D01*
X157158100Y-115599850D01*
X157316850Y-115758600D01*
X158657409Y-115758600D01*
X158890798Y-115661927D01*
X158959035Y-115593690D01*
X160165000Y-115593690D01*
X160165000Y-115884250D01*
X160323750Y-116043000D01*
X161273000Y-116043000D01*
X161273000Y-115243750D01*
X161114250Y-115085000D01*
X160673691Y-115085000D01*
X160440302Y-115181673D01*
X160261673Y-115360301D01*
X160165000Y-115593690D01*
X158959035Y-115593690D01*
X159069427Y-115483299D01*
X159166100Y-115249910D01*
X159166100Y-114809350D01*
X159007350Y-114650600D01*
X157158100Y-114650600D01*
X156904100Y-114650600D01*
X155054850Y-114650600D01*
X154896100Y-114809350D01*
X154825000Y-114809350D01*
X154825000Y-113766580D01*
X154968091Y-113623489D01*
X154896100Y-113797290D01*
X154896100Y-114237850D01*
X155054850Y-114396600D01*
X156904100Y-114396600D01*
X156904100Y-114376600D01*
X157158100Y-114376600D01*
X157158100Y-114396600D01*
X159007350Y-114396600D01*
X159166100Y-114237850D01*
X159166100Y-113843923D01*
X159249353Y-113968521D01*
X159254210Y-113975790D01*
X159674208Y-114395787D01*
X159674210Y-114395790D01*
X159961325Y-114587633D01*
X160017516Y-114598810D01*
X160218359Y-114638761D01*
X160335910Y-114821441D01*
X160548110Y-114966431D01*
X160800000Y-115017440D01*
X162000000Y-115017440D01*
X162235317Y-114973162D01*
X162451441Y-114834090D01*
X162499134Y-114764289D01*
X162535910Y-114821441D01*
X162715000Y-114943808D01*
X162715000Y-115148808D01*
X162548559Y-115255910D01*
X162502031Y-115324006D01*
X162359698Y-115181673D01*
X162126309Y-115085000D01*
X161685750Y-115085000D01*
X161527000Y-115243750D01*
X161527000Y-116043000D01*
X161547000Y-116043000D01*
X161547000Y-116297000D01*
X161527000Y-116297000D01*
X161527000Y-117096250D01*
X161685750Y-117255000D01*
X162126309Y-117255000D01*
X162359698Y-117158327D01*
X162500936Y-117017090D01*
X162535910Y-117071441D01*
X162748110Y-117216431D01*
X163000000Y-117267440D01*
X164200000Y-117267440D01*
X164435317Y-117223162D01*
X164651441Y-117084090D01*
X164796431Y-116871890D01*
X164847440Y-116620000D01*
X164847440Y-115720000D01*
X164803162Y-115484683D01*
X164664090Y-115268559D01*
X164485000Y-115146192D01*
X164485000Y-114941192D01*
X164651441Y-114834090D01*
X164796431Y-114621890D01*
X164847440Y-114370000D01*
X164847440Y-113170000D01*
X164815868Y-113002211D01*
X165109515Y-113296371D01*
X165563266Y-113484785D01*
X166054579Y-113485214D01*
X166508657Y-113297592D01*
X166856371Y-112950485D01*
X167044785Y-112496734D01*
X167045214Y-112005421D01*
X166857592Y-111551343D01*
X166510485Y-111203629D01*
X166056734Y-111015215D01*
X165826593Y-111015014D01*
X165015790Y-110204210D01*
X164956967Y-110164906D01*
X164953162Y-110144683D01*
X164814090Y-109928559D01*
X164601890Y-109783569D01*
X164350000Y-109732560D01*
X164218413Y-109732560D01*
X164409698Y-109653327D01*
X164588327Y-109474699D01*
X164685000Y-109241310D01*
X164685000Y-109025750D01*
X164526250Y-108867000D01*
X163577000Y-108867000D01*
X163577000Y-108887000D01*
X163323000Y-108887000D01*
X163323000Y-108867000D01*
X163303000Y-108867000D01*
X163303000Y-108613000D01*
X163323000Y-108613000D01*
X163323000Y-107888750D01*
X163577000Y-107888750D01*
X163577000Y-108613000D01*
X164526250Y-108613000D01*
X164685000Y-108454250D01*
X164685000Y-108238690D01*
X164588327Y-108005301D01*
X164409698Y-107826673D01*
X164176309Y-107730000D01*
X163735750Y-107730000D01*
X163577000Y-107888750D01*
X163323000Y-107888750D01*
X163164250Y-107730000D01*
X162723691Y-107730000D01*
X162490302Y-107826673D01*
X162488932Y-107828043D01*
X162435000Y-107791192D01*
X162435000Y-107484975D01*
X162496990Y-107394250D01*
X162511673Y-107429698D01*
X162690301Y-107608327D01*
X162923690Y-107705000D01*
X163164250Y-107705000D01*
X163323000Y-107546250D01*
X163323000Y-106247000D01*
X163577000Y-106247000D01*
X163577000Y-107546250D01*
X163735750Y-107705000D01*
X163976310Y-107705000D01*
X164209699Y-107608327D01*
X164388327Y-107429698D01*
X164485000Y-107196309D01*
X164485000Y-106405750D01*
X164326250Y-106247000D01*
X163577000Y-106247000D01*
X163323000Y-106247000D01*
X163303000Y-106247000D01*
X163303000Y-105993000D01*
X163323000Y-105993000D01*
X163323000Y-104693750D01*
X163577000Y-104693750D01*
X163577000Y-105993000D01*
X164326250Y-105993000D01*
X164485000Y-105834250D01*
X164485000Y-105043691D01*
X164388327Y-104810302D01*
X164209699Y-104631673D01*
X163976310Y-104535000D01*
X163735750Y-104535000D01*
X163577000Y-104693750D01*
X163323000Y-104693750D01*
X163236988Y-104607738D01*
X163351441Y-104534090D01*
X163496431Y-104321890D01*
X163547440Y-104070000D01*
X163547440Y-102170000D01*
X163503162Y-101934683D01*
X163364090Y-101718559D01*
X163151890Y-101573569D01*
X162900000Y-101522560D01*
X162100000Y-101522560D01*
X161864683Y-101566838D01*
X161648559Y-101705910D01*
X161503569Y-101918110D01*
X161452560Y-102170000D01*
X161452560Y-102235000D01*
X160740005Y-102235000D01*
X160740000Y-102234999D01*
X160457516Y-102291190D01*
X160401325Y-102302367D01*
X160114210Y-102494210D01*
X160114208Y-102494213D01*
X159154210Y-103454210D01*
X159067320Y-103584251D01*
X159027341Y-103522123D01*
X159127531Y-103375490D01*
X159178540Y-103123600D01*
X159178540Y-101923600D01*
X159134262Y-101688283D01*
X159027341Y-101522123D01*
X159127531Y-101375490D01*
X159178540Y-101123600D01*
X159178540Y-99923600D01*
X159134262Y-99688283D01*
X158995190Y-99472159D01*
X158782990Y-99327169D01*
X158531100Y-99276160D01*
X155531100Y-99276160D01*
X155295783Y-99320438D01*
X155079659Y-99459510D01*
X154934669Y-99671710D01*
X154919827Y-99745000D01*
X153120000Y-99745000D01*
X152819594Y-99804755D01*
X152564921Y-99974921D01*
X149254921Y-103284921D01*
X149084755Y-103539593D01*
X149048494Y-103721890D01*
X149025000Y-103840000D01*
X149025000Y-105208600D01*
X148763629Y-105469515D01*
X148745000Y-105514379D01*
X148745000Y-102270005D01*
X148745001Y-102270000D01*
X148685245Y-101969594D01*
X148515079Y-101714921D01*
X146768679Y-99968521D01*
X146514007Y-99798355D01*
X146213600Y-99738600D01*
X143143730Y-99738600D01*
X143134262Y-99688283D01*
X142995190Y-99472159D01*
X142782990Y-99327169D01*
X142531100Y-99276160D01*
X139531100Y-99276160D01*
X139295783Y-99320438D01*
X139079659Y-99459510D01*
X138957292Y-99638600D01*
X138542483Y-99638600D01*
X138542478Y-99638599D01*
X138259994Y-99694790D01*
X138203803Y-99705967D01*
X137916688Y-99897810D01*
X137916686Y-99897813D01*
X137509498Y-100305000D01*
X137200005Y-100305000D01*
X137200000Y-100304999D01*
X136917516Y-100361190D01*
X136861325Y-100372367D01*
X136574210Y-100564210D01*
X136574208Y-100564213D01*
X135924210Y-101214210D01*
X135732367Y-101501325D01*
X135732367Y-101501326D01*
X135664999Y-101840000D01*
X135665000Y-101840005D01*
X135665000Y-101961614D01*
X135649021Y-101985000D01*
X135631192Y-101985000D01*
X135524090Y-101818559D01*
X135311890Y-101673569D01*
X135060000Y-101622560D01*
X134160000Y-101622560D01*
X133924683Y-101666838D01*
X133708559Y-101805910D01*
X133563569Y-102018110D01*
X133512560Y-102270000D01*
X133512560Y-103470000D01*
X133556838Y-103705317D01*
X133695910Y-103921441D01*
X133765711Y-103969134D01*
X133708559Y-104005910D01*
X133563569Y-104218110D01*
X133512560Y-104470000D01*
X133512560Y-104915861D01*
X132974210Y-105454210D01*
X132782367Y-105741325D01*
X132771190Y-105797516D01*
X132714999Y-106080000D01*
X132715000Y-106080005D01*
X132715000Y-106132560D01*
X132650000Y-106132560D01*
X132414683Y-106176838D01*
X132198559Y-106315910D01*
X132053569Y-106528110D01*
X132002560Y-106780000D01*
X132002560Y-107580000D01*
X132046838Y-107815317D01*
X132185910Y-108031441D01*
X132325750Y-108126990D01*
X132290302Y-108141673D01*
X132111673Y-108320301D01*
X132015000Y-108553690D01*
X132015000Y-108794250D01*
X132173750Y-108953000D01*
X133473000Y-108953000D01*
X133473000Y-108933000D01*
X133727000Y-108933000D01*
X133727000Y-108953000D01*
X135026250Y-108953000D01*
X135112262Y-108866988D01*
X135185910Y-108981441D01*
X135398110Y-109126431D01*
X135650000Y-109177440D01*
X135906181Y-109177440D01*
X136044921Y-109385079D01*
X136494934Y-109835092D01*
X136494786Y-110004579D01*
X136568458Y-110182878D01*
X136371890Y-110048569D01*
X136120000Y-109997560D01*
X134930465Y-109997560D01*
X135088327Y-109839699D01*
X135185000Y-109606310D01*
X135185000Y-109365750D01*
X135026250Y-109207000D01*
X133727000Y-109207000D01*
X133727000Y-109956250D01*
X133843250Y-110072500D01*
X133747000Y-110168750D01*
X133747000Y-110893000D01*
X133767000Y-110893000D01*
X133767000Y-111147000D01*
X133747000Y-111147000D01*
X133747000Y-111871250D01*
X133905750Y-112030000D01*
X134346309Y-112030000D01*
X134579698Y-111933327D01*
X134581068Y-111931957D01*
X134635000Y-111968808D01*
X134635000Y-112173808D01*
X134581354Y-112208329D01*
X134579698Y-112206673D01*
X134346309Y-112110000D01*
X133905750Y-112110000D01*
X133747000Y-112268750D01*
X133747000Y-112993000D01*
X133767000Y-112993000D01*
X133767000Y-113247000D01*
X133747000Y-113247000D01*
X133747000Y-113267000D01*
X133493000Y-113267000D01*
X133493000Y-113247000D01*
X132543750Y-113247000D01*
X132385000Y-113405750D01*
X132385000Y-113621310D01*
X132481673Y-113854699D01*
X132660302Y-114033327D01*
X132893691Y-114130000D01*
X133228421Y-114130000D01*
X132884210Y-114474210D01*
X132692367Y-114761325D01*
X132682814Y-114809350D01*
X132641239Y-115018359D01*
X132458559Y-115135910D01*
X132313569Y-115348110D01*
X132262560Y-115600000D01*
X132262560Y-116500000D01*
X132306838Y-116735317D01*
X132445910Y-116951441D01*
X132658110Y-117096431D01*
X132674686Y-117099788D01*
X132692367Y-117188675D01*
X132882052Y-117472560D01*
X132884210Y-117475790D01*
X132891910Y-117483490D01*
X132714683Y-117516838D01*
X132498559Y-117655910D01*
X132353569Y-117868110D01*
X132302560Y-118120000D01*
X132302560Y-119020000D01*
X132346838Y-119255317D01*
X132437281Y-119395869D01*
X132433629Y-119399515D01*
X132245215Y-119853266D01*
X132244786Y-120344579D01*
X132432408Y-120798657D01*
X132779515Y-121146371D01*
X133233266Y-121334785D01*
X133368232Y-121334903D01*
X132676485Y-121620727D01*
X131793826Y-122501847D01*
X131315546Y-123653674D01*
X131314457Y-124900854D01*
X130040000Y-124900854D01*
X130040000Y-112618690D01*
X132385000Y-112618690D01*
X132385000Y-112834250D01*
X132543750Y-112993000D01*
X133493000Y-112993000D01*
X133493000Y-112268750D01*
X133334250Y-112110000D01*
X132893691Y-112110000D01*
X132660302Y-112206673D01*
X132481673Y-112385301D01*
X132385000Y-112618690D01*
X130040000Y-112618690D01*
X130040000Y-111305750D01*
X132385000Y-111305750D01*
X132385000Y-111521310D01*
X132481673Y-111754699D01*
X132660302Y-111933327D01*
X132893691Y-112030000D01*
X133334250Y-112030000D01*
X133493000Y-111871250D01*
X133493000Y-111147000D01*
X132543750Y-111147000D01*
X132385000Y-111305750D01*
X130040000Y-111305750D01*
X130040000Y-109365750D01*
X132015000Y-109365750D01*
X132015000Y-109606310D01*
X132111673Y-109839699D01*
X132290302Y-110018327D01*
X132523691Y-110115000D01*
X132651975Y-110115000D01*
X132481673Y-110285301D01*
X132385000Y-110518690D01*
X132385000Y-110734250D01*
X132543750Y-110893000D01*
X133493000Y-110893000D01*
X133493000Y-110168750D01*
X133376750Y-110052500D01*
X133473000Y-109956250D01*
X133473000Y-109207000D01*
X132173750Y-109207000D01*
X132015000Y-109365750D01*
X130040000Y-109365750D01*
X130040000Y-99097354D01*
X168760000Y-99116651D01*
G36*
X143365000Y-113545158D02*
X143365000Y-122124842D01*
X137504921Y-127984921D01*
X137334755Y-128239593D01*
X137275000Y-128540000D01*
X137275000Y-132477184D01*
X136970971Y-132680330D01*
X136646115Y-133166511D01*
X136532041Y-133740000D01*
X136646115Y-134313489D01*
X136970971Y-134799670D01*
X136984642Y-134808805D01*
X136961083Y-134813238D01*
X136744959Y-134952310D01*
X136599969Y-135164510D01*
X136579107Y-135267528D01*
X135895000Y-134583420D01*
X135895000Y-129456580D01*
X139775787Y-125575792D01*
X139775790Y-125575790D01*
X139967633Y-125288675D01*
X139975245Y-125250406D01*
X140035001Y-124950000D01*
X140035000Y-124949995D01*
X140035000Y-122920005D01*
X140035001Y-122920000D01*
X140035000Y-122919995D01*
X140035000Y-117671280D01*
X141656887Y-116049392D01*
X141656890Y-116049390D01*
X141842876Y-115771040D01*
X142531100Y-115771040D01*
X142766417Y-115726762D01*
X142982541Y-115587690D01*
X143127531Y-115375490D01*
X143178540Y-115123600D01*
X143178540Y-113923600D01*
X143134262Y-113688283D01*
X143027341Y-113522123D01*
X143127531Y-113375490D01*
X143138949Y-113319107D01*
X143365000Y-113545158D01*
X143365000Y-113545158D01*
G37*
X143365000Y-113545158D02*
X143365000Y-122124842D01*
X137504921Y-127984921D01*
X137334755Y-128239593D01*
X137275000Y-128540000D01*
X137275000Y-132477184D01*
X136970971Y-132680330D01*
X136646115Y-133166511D01*
X136532041Y-133740000D01*
X136646115Y-134313489D01*
X136970971Y-134799670D01*
X136984642Y-134808805D01*
X136961083Y-134813238D01*
X136744959Y-134952310D01*
X136599969Y-135164510D01*
X136579107Y-135267528D01*
X135895000Y-134583420D01*
X135895000Y-129456580D01*
X139775787Y-125575792D01*
X139775790Y-125575790D01*
X139967633Y-125288675D01*
X139975245Y-125250406D01*
X140035001Y-124950000D01*
X140035000Y-124949995D01*
X140035000Y-122920005D01*
X140035001Y-122920000D01*
X140035000Y-122919995D01*
X140035000Y-117671280D01*
X141656887Y-116049392D01*
X141656890Y-116049390D01*
X141842876Y-115771040D01*
X142531100Y-115771040D01*
X142766417Y-115726762D01*
X142982541Y-115587690D01*
X143127531Y-115375490D01*
X143178540Y-115123600D01*
X143178540Y-113923600D01*
X143134262Y-113688283D01*
X143027341Y-113522123D01*
X143127531Y-113375490D01*
X143138949Y-113319107D01*
X143365000Y-113545158D01*
G36*
X145145000Y-126344842D02*
X140044921Y-131444921D01*
X139874755Y-131699593D01*
X139824228Y-131953607D01*
X139815000Y-132000000D01*
X139815000Y-132477184D01*
X139510971Y-132680330D01*
X139330000Y-132951172D01*
X139149029Y-132680330D01*
X138845000Y-132477184D01*
X138845000Y-128865158D01*
X144705079Y-123005079D01*
X144875245Y-122750406D01*
X144935001Y-122450000D01*
X144935000Y-122449995D01*
X144935000Y-113220000D01*
X144920955Y-113149390D01*
X144875245Y-112919593D01*
X144705079Y-112664921D01*
X144008679Y-111968521D01*
X143761216Y-111803172D01*
X143813266Y-111824785D01*
X144304579Y-111825214D01*
X144758657Y-111637592D01*
X145106371Y-111290485D01*
X145145000Y-111197456D01*
X145145000Y-126344842D01*
X145145000Y-126344842D01*
G37*
X145145000Y-126344842D02*
X140044921Y-131444921D01*
X139874755Y-131699593D01*
X139824228Y-131953607D01*
X139815000Y-132000000D01*
X139815000Y-132477184D01*
X139510971Y-132680330D01*
X139330000Y-132951172D01*
X139149029Y-132680330D01*
X138845000Y-132477184D01*
X138845000Y-128865158D01*
X144705079Y-123005079D01*
X144875245Y-122750406D01*
X144935001Y-122450000D01*
X144935000Y-122449995D01*
X144935000Y-113220000D01*
X144920955Y-113149390D01*
X144875245Y-112919593D01*
X144705079Y-112664921D01*
X144008679Y-111968521D01*
X143761216Y-111803172D01*
X143813266Y-111824785D01*
X144304579Y-111825214D01*
X144758657Y-111637592D01*
X145106371Y-111290485D01*
X145145000Y-111197456D01*
X145145000Y-126344842D01*
G36*
X147175000Y-102595158D02*
X147175000Y-108128600D01*
X146913629Y-108389515D01*
X146725215Y-108843266D01*
X146724786Y-109334579D01*
X146912408Y-109788657D01*
X147259515Y-110136371D01*
X147713266Y-110324785D01*
X147954846Y-110324996D01*
X147664921Y-110614921D01*
X147494755Y-110869593D01*
X147459913Y-111044755D01*
X147435000Y-111170000D01*
X147435000Y-132477184D01*
X147130971Y-132680330D01*
X146950000Y-132951172D01*
X146769029Y-132680330D01*
X146282848Y-132355474D01*
X145709359Y-132241400D01*
X145650641Y-132241400D01*
X145077152Y-132355474D01*
X144590971Y-132680330D01*
X144410000Y-132951172D01*
X144229029Y-132680330D01*
X143742848Y-132355474D01*
X143169359Y-132241400D01*
X143110641Y-132241400D01*
X142537152Y-132355474D01*
X142050971Y-132680330D01*
X141870000Y-132951172D01*
X141689029Y-132680330D01*
X141385000Y-132477184D01*
X141385000Y-132325158D01*
X146485079Y-127225079D01*
X146655245Y-126970407D01*
X146715000Y-126670000D01*
X146715000Y-107540000D01*
X146655245Y-107239594D01*
X146485079Y-106984921D01*
X145468679Y-105968521D01*
X145214007Y-105798355D01*
X144967327Y-105749287D01*
X145358657Y-105587592D01*
X145706371Y-105240485D01*
X145894785Y-104786734D01*
X145895214Y-104295421D01*
X145707592Y-103841343D01*
X145360485Y-103493629D01*
X144906734Y-103305215D01*
X144415421Y-103304786D01*
X143961343Y-103492408D01*
X143698292Y-103755000D01*
X143146816Y-103755000D01*
X143134262Y-103688283D01*
X143027341Y-103522123D01*
X143127531Y-103375490D01*
X143178540Y-103123600D01*
X143178540Y-101923600D01*
X143134262Y-101688283D01*
X143027341Y-101522123D01*
X143127531Y-101375490D01*
X143141077Y-101308600D01*
X145888442Y-101308600D01*
X147175000Y-102595158D01*
X147175000Y-102595158D01*
G37*
X147175000Y-102595158D02*
X147175000Y-108128600D01*
X146913629Y-108389515D01*
X146725215Y-108843266D01*
X146724786Y-109334579D01*
X146912408Y-109788657D01*
X147259515Y-110136371D01*
X147713266Y-110324785D01*
X147954846Y-110324996D01*
X147664921Y-110614921D01*
X147494755Y-110869593D01*
X147459913Y-111044755D01*
X147435000Y-111170000D01*
X147435000Y-132477184D01*
X147130971Y-132680330D01*
X146950000Y-132951172D01*
X146769029Y-132680330D01*
X146282848Y-132355474D01*
X145709359Y-132241400D01*
X145650641Y-132241400D01*
X145077152Y-132355474D01*
X144590971Y-132680330D01*
X144410000Y-132951172D01*
X144229029Y-132680330D01*
X143742848Y-132355474D01*
X143169359Y-132241400D01*
X143110641Y-132241400D01*
X142537152Y-132355474D01*
X142050971Y-132680330D01*
X141870000Y-132951172D01*
X141689029Y-132680330D01*
X141385000Y-132477184D01*
X141385000Y-132325158D01*
X146485079Y-127225079D01*
X146655245Y-126970407D01*
X146715000Y-126670000D01*
X146715000Y-107540000D01*
X146655245Y-107239594D01*
X146485079Y-106984921D01*
X145468679Y-105968521D01*
X145214007Y-105798355D01*
X144967327Y-105749287D01*
X145358657Y-105587592D01*
X145706371Y-105240485D01*
X145894785Y-104786734D01*
X145895214Y-104295421D01*
X145707592Y-103841343D01*
X145360485Y-103493629D01*
X144906734Y-103305215D01*
X144415421Y-103304786D01*
X143961343Y-103492408D01*
X143698292Y-103755000D01*
X143146816Y-103755000D01*
X143134262Y-103688283D01*
X143027341Y-103522123D01*
X143127531Y-103375490D01*
X143178540Y-103123600D01*
X143178540Y-101923600D01*
X143134262Y-101688283D01*
X143027341Y-101522123D01*
X143127531Y-101375490D01*
X143141077Y-101308600D01*
X145888442Y-101308600D01*
X147175000Y-102595158D01*
G36*
X139034859Y-101525077D02*
X138934669Y-101671710D01*
X138883660Y-101923600D01*
X138883660Y-103123600D01*
X138927938Y-103358917D01*
X139034859Y-103525077D01*
X138934669Y-103671710D01*
X138883660Y-103923600D01*
X138883660Y-105123600D01*
X138927938Y-105358917D01*
X139034859Y-105525077D01*
X138934669Y-105671710D01*
X138883660Y-105923600D01*
X138883660Y-107123600D01*
X138927938Y-107358917D01*
X139034859Y-107525077D01*
X138934669Y-107671710D01*
X138883660Y-107923600D01*
X138883660Y-109123600D01*
X138927938Y-109358917D01*
X139034859Y-109525077D01*
X138965116Y-109627149D01*
X138965214Y-109515421D01*
X138777592Y-109061343D01*
X138430485Y-108713629D01*
X138181215Y-108610123D01*
X138197440Y-108530000D01*
X138197440Y-107730000D01*
X138153162Y-107494683D01*
X138014090Y-107278559D01*
X137801890Y-107133569D01*
X137550000Y-107082560D01*
X135650000Y-107082560D01*
X135414683Y-107126838D01*
X135198559Y-107265910D01*
X135197440Y-107267548D01*
X135197440Y-106780000D01*
X135153162Y-106544683D01*
X135014090Y-106328559D01*
X134997817Y-106317440D01*
X135060000Y-106317440D01*
X135295317Y-106273162D01*
X135511441Y-106134090D01*
X135656431Y-105921890D01*
X135673681Y-105836706D01*
X135815301Y-105978327D01*
X136048690Y-106075000D01*
X136264250Y-106075000D01*
X136423000Y-105916250D01*
X136423000Y-104967000D01*
X136677000Y-104967000D01*
X136677000Y-105916250D01*
X136835750Y-106075000D01*
X137051310Y-106075000D01*
X137284699Y-105978327D01*
X137463327Y-105799698D01*
X137560000Y-105566309D01*
X137560000Y-105125750D01*
X137401250Y-104967000D01*
X136677000Y-104967000D01*
X136423000Y-104967000D01*
X136403000Y-104967000D01*
X136403000Y-104713000D01*
X136423000Y-104713000D01*
X136423000Y-104693000D01*
X136677000Y-104693000D01*
X136677000Y-104713000D01*
X137401250Y-104713000D01*
X137560000Y-104554250D01*
X137560000Y-104113691D01*
X137463327Y-103880302D01*
X137461957Y-103878932D01*
X137521431Y-103791890D01*
X137572440Y-103540000D01*
X137572440Y-102340000D01*
X137529545Y-102112034D01*
X137566579Y-102075000D01*
X137876073Y-102075000D01*
X137876078Y-102075001D01*
X138162082Y-102018110D01*
X138214753Y-102007633D01*
X138501868Y-101815790D01*
X138501869Y-101815789D01*
X138909057Y-101408600D01*
X138959908Y-101408600D01*
X139034859Y-101525077D01*
X139034859Y-101525077D01*
G37*
X139034859Y-101525077D02*
X138934669Y-101671710D01*
X138883660Y-101923600D01*
X138883660Y-103123600D01*
X138927938Y-103358917D01*
X139034859Y-103525077D01*
X138934669Y-103671710D01*
X138883660Y-103923600D01*
X138883660Y-105123600D01*
X138927938Y-105358917D01*
X139034859Y-105525077D01*
X138934669Y-105671710D01*
X138883660Y-105923600D01*
X138883660Y-107123600D01*
X138927938Y-107358917D01*
X139034859Y-107525077D01*
X138934669Y-107671710D01*
X138883660Y-107923600D01*
X138883660Y-109123600D01*
X138927938Y-109358917D01*
X139034859Y-109525077D01*
X138965116Y-109627149D01*
X138965214Y-109515421D01*
X138777592Y-109061343D01*
X138430485Y-108713629D01*
X138181215Y-108610123D01*
X138197440Y-108530000D01*
X138197440Y-107730000D01*
X138153162Y-107494683D01*
X138014090Y-107278559D01*
X137801890Y-107133569D01*
X137550000Y-107082560D01*
X135650000Y-107082560D01*
X135414683Y-107126838D01*
X135198559Y-107265910D01*
X135197440Y-107267548D01*
X135197440Y-106780000D01*
X135153162Y-106544683D01*
X135014090Y-106328559D01*
X134997817Y-106317440D01*
X135060000Y-106317440D01*
X135295317Y-106273162D01*
X135511441Y-106134090D01*
X135656431Y-105921890D01*
X135673681Y-105836706D01*
X135815301Y-105978327D01*
X136048690Y-106075000D01*
X136264250Y-106075000D01*
X136423000Y-105916250D01*
X136423000Y-104967000D01*
X136677000Y-104967000D01*
X136677000Y-105916250D01*
X136835750Y-106075000D01*
X137051310Y-106075000D01*
X137284699Y-105978327D01*
X137463327Y-105799698D01*
X137560000Y-105566309D01*
X137560000Y-105125750D01*
X137401250Y-104967000D01*
X136677000Y-104967000D01*
X136423000Y-104967000D01*
X136403000Y-104967000D01*
X136403000Y-104713000D01*
X136423000Y-104713000D01*
X136423000Y-104693000D01*
X136677000Y-104693000D01*
X136677000Y-104713000D01*
X137401250Y-104713000D01*
X137560000Y-104554250D01*
X137560000Y-104113691D01*
X137463327Y-103880302D01*
X137461957Y-103878932D01*
X137521431Y-103791890D01*
X137572440Y-103540000D01*
X137572440Y-102340000D01*
X137529545Y-102112034D01*
X137566579Y-102075000D01*
X137876073Y-102075000D01*
X137876078Y-102075001D01*
X138162082Y-102018110D01*
X138214753Y-102007633D01*
X138501868Y-101815790D01*
X138501869Y-101815789D01*
X138909057Y-101408600D01*
X138959908Y-101408600D01*
X139034859Y-101525077D01*
M02*
